<?xml version="1.0" standalone="no"?>
<!DOCTYPE svg PUBLIC "-//W3C//DTD SVG 1.1//EN" "http://www.w3.org/Graphics/SVG/1.1/DTD/svg11.dtd" >
<svg xmlns="http://www.w3.org/2000/svg" xmlns:xlink="http://www.w3.org/1999/xlink" version="1.1">
<metadata></metadata>
<defs>
<font id="ciscosansthin" horiz-adv-x="600" >
<font-face units-per-em="1000" ascent="790" descent="-210" />
<missing-glyph horiz-adv-x="300" />
<glyph unicode="ff" horiz-adv-x="613" d="M618 723v-30c-24 7 -55 12 -76 12c-48 0 -77 -30 -77 -90v-95h121v-31h-121v-489h-36v489h-286v-489h-36v489h-77v31h77v48c0 97 36 161 169 161c56 0 119 -15 175 -36c19 27 51 42 91 42c24 0 51 -4 76 -12zM143 569v-49h286v94c0 20 3 38 8 53c-42 17 -106 32 -161 32 c-104 0 -133 -43 -133 -130z" />
<glyph unicode="ffi" horiz-adv-x="866" d="M786 0h-36v489h-286v-489h-36v489h-285v-489h-36v489h-77v31h77v48c0 97 36 161 169 161c58 0 122 -16 180 -38c25 29 66 44 122 44c51 0 98 -11 123 -19v-30c-24 7 -74 19 -123 19c-76 0 -114 -30 -114 -100v-85h322v-520zM428 604c0 23 4 44 12 61 c-42 18 -108 34 -164 34c-104 0 -133 -43 -133 -130v-49h285v84z" />
<glyph unicode="ffj" horiz-adv-x="866" d="M617 -184v32c21 -7 48 -11 65 -11c44 0 68 24 68 88v564h-286v-489h-36v489h-285v-489h-36v489h-77v31h77v48c0 97 36 161 169 161c58 0 122 -16 180 -38c25 29 66 44 122 44c51 0 98 -11 123 -19v-30c-24 7 -74 19 -123 19c-76 0 -114 -30 -114 -100v-85h322v-597 c0 -78 -36 -118 -99 -118c-22 0 -45 3 -70 11zM428 604c0 23 4 44 12 61c-42 18 -108 34 -164 34c-104 0 -133 -43 -133 -130v-49h285v84z" />
<glyph unicode="ffl" horiz-adv-x="867" d="M787 0h-36v682c-38 12 -106 23 -152 23c-103 0 -134 -43 -134 -130v-55h121v-31h-121v-489h-36v489h-286v-489h-36v489h-77v31h77v48c0 97 36 161 169 161c57 0 127 -16 186 -41c26 30 69 47 137 47c47 0 113 -10 153 -21l35 6v-720zM429 574c0 34 5 64 17 89 c-46 21 -116 36 -170 36c-104 0 -133 -43 -133 -130v-49h286v54z" />
<glyph unicode="fi" horiz-adv-x="545" d="M465 0h-36v489h-286v-489h-36v489h-77v31h77v84c0 86 53 131 150 131c51 0 98 -11 123 -19v-30c-24 7 -74 19 -123 19c-76 0 -114 -30 -114 -100v-85h322v-520z" />
<glyph unicode="fj" horiz-adv-x="545" d="M296 -184v32c21 -7 48 -11 65 -11c44 0 68 24 68 88v564h-286v-489h-36v489h-77v31h77v84c0 86 53 131 150 131c51 0 98 -11 123 -19v-30c-24 7 -74 19 -123 19c-76 0 -114 -30 -114 -100v-85h322v-597c0 -78 -36 -118 -99 -118c-22 0 -45 3 -70 11z" />
<glyph unicode="fl" horiz-adv-x="545" d="M465 0h-36v682c-38 12 -106 23 -152 23c-103 0 -134 -43 -134 -130v-55h122v-31h-122v-489h-36v489h-77v31h77v54c0 97 39 161 170 161c47 0 113 -10 153 -21l35 6v-720z" />
<glyph unicode="&#xd;" horiz-adv-x="300" />
<glyph unicode=" "  horiz-adv-x="300" />
<glyph unicode="&#x09;" horiz-adv-x="300" />
<glyph unicode="&#xa0;" horiz-adv-x="300" />
<glyph unicode="!" horiz-adv-x="250" d="M141 220h-39v500h39v-500zM152 0h-54v64h54v-64z" />
<glyph unicode="&#x22;" d="M155 643l-7 -153h-25l-8 153v92h40v-92zM285 643l-7 -153h-25l-8 153v92h40v-92z" />
<glyph unicode="#" d="M75 466v33h93l18 201h36l-18 -201h217l18 201h36l-18 -201h88v-33h-91l-20 -232h91v-33h-94l-17 -201h-36l17 201h-217l-17 -201h-36l17 201h-87v33h90l20 232h-90zM201 466l-20 -232h217l20 232h-217z" />
<glyph unicode="$" d="M287 -135v126c-127 5 -224 71 -248 190h39c22 -107 118 -157 228 -157c135 0 215 63 215 156c0 85 -47 136 -235 178c-155 35 -214 86 -214 181c0 94 76 169 215 175v116h35v-116c119 -5 216 -69 240 -172h-38c-22 87 -107 140 -216 140c-130 0 -198 -62 -198 -140 c0 -80 40 -118 201 -154c183 -41 248 -103 248 -206s-86 -186 -237 -192v-125h-35z" />
<glyph unicode="%" horiz-adv-x="824" d="M585 700l-313 -700h-35l313 700h35zM93 546c0 -98 60 -140 126 -140c65 0 127 42 127 140s-61 140 -127 140s-126 -42 -126 -140zM380 546c0 -113 -74 -169 -161 -169s-160 56 -160 169s74 169 160 169c87 0 161 -56 161 -169zM478 154c0 -98 60 -140 126 -140 c65 0 127 42 127 140s-61 140 -127 140s-126 -42 -126 -140zM765 154c0 -113 -74 -169 -161 -169s-160 56 -160 169s74 169 160 169c87 0 161 -56 161 -169z" />
<glyph unicode="&#x26;" horiz-adv-x="605" d="M531 334l33 -4c-9 -72 -35 -151 -79 -215l110 -110l-25 -20l-104 104c-51 -62 -122 -104 -214 -104c-144 0 -219 70 -219 172c0 93 62 147 159 206c-72 73 -132 132 -132 201c0 75 54 151 177 151c125 0 182 -77 182 -153c0 -72 -76 -146 -177 -205l220 -219 c37 56 61 126 69 196zM255 15c77 0 141 39 188 97l-228 229c-86 -52 -145 -101 -145 -181c0 -91 69 -145 185 -145zM94 564c0 -55 43 -101 126 -185c100 59 165 120 165 183c0 57 -41 123 -148 123c-100 0 -143 -57 -143 -121z" />
<glyph unicode="'" horiz-adv-x="270" d="M155 643l-7 -153h-25l-8 153v92h40v-92z" />
<glyph unicode="(" horiz-adv-x="340" d="M126 320c0 -215 76 -363 159 -490h-34c-77 102 -161 273 -161 490s84 388 161 490h34c-83 -127 -159 -275 -159 -490z" />
<glyph unicode=")" horiz-adv-x="340" d="M214 320c0 215 -76 363 -159 490h34c77 -102 161 -273 161 -490s-84 -388 -161 -490h-34c83 127 159 275 159 490z" />
<glyph unicode="*" horiz-adv-x="470" d="M329 389l-94 142l-94 -142l-28 22l107 134l-166 46l11 33l160 -60l-8 171h36l-8 -171l160 60l11 -33l-166 -46l107 -134z" />
<glyph unicode="+" d="M282 522h36v-183h182v-34h-182v-183h-36v183h-182v34h182v183z" />
<glyph unicode="," horiz-adv-x="270" d="M166 64v-61c0 -77 -34 -120 -93 -138v29c39 16 55 46 55 106h-18v64h56z" />
<glyph unicode="-" horiz-adv-x="540" d="M440 339v-34h-340v34h340z" />
<glyph unicode="." horiz-adv-x="278" d="M166 0h-54v64h54v-64z" />
<glyph unicode="/" horiz-adv-x="340" d="M292 735l-209 -825h-35l209 825h35z" />
<glyph unicode="0" d="M300 17c121 0 198 106 198 332s-77 334 -198 334s-198 -108 -198 -334s77 -332 198 -332zM300 -15c-134 0 -235 109 -235 364c0 256 101 366 235 366s235 -110 235 -366s-101 -364 -235 -364z" />
<glyph unicode="1" d="M361 0h-37v660l-164 -97v39l165 98h36v-700z" />
<glyph unicode="2" d="M114 537h-39c18 114 107 178 222 178s206 -72 206 -188c0 -90 -44 -150 -138 -247l-240 -246h377v-34h-424v34l274 283c73 76 115 131 115 210c0 95 -67 156 -171 156c-100 0 -170 -60 -182 -146z" />
<glyph unicode="3" d="M285 -15c-119 0 -212 60 -233 168h37c18 -88 97 -136 197 -136c114 0 193 65 193 173c0 106 -69 165 -175 165h-78v33h74c102 0 161 62 161 146c0 93 -70 149 -173 149c-102 0 -170 -48 -189 -136h-37c21 105 105 168 227 168c121 0 208 -68 208 -177 c0 -88 -45 -145 -134 -166c87 -10 153 -76 153 -180c0 -130 -95 -207 -231 -207z" />
<glyph unicode="4" d="M398 700h40v-536h106v-32h-106v-132h-37v132h-327v39zM108 164h293v480z" />
<glyph unicode="5" d="M285 -15c-110 0 -204 63 -226 175h37c20 -98 101 -143 192 -143c110 0 199 79 199 205c0 123 -79 194 -192 194c-102 0 -162 -55 -185 -89h-28l13 373h388v-32h-353l-12 -292c35 36 95 72 181 72c130 0 225 -83 225 -227s-106 -236 -239 -236z" />
<glyph unicode="6" d="M500 581h-37c-20 65 -76 102 -150 102c-111 0 -211 -71 -214 -356c29 68 103 127 200 127c124 0 222 -85 222 -232s-98 -237 -222 -237c-181 0 -234 155 -234 333c0 316 123 397 248 397c87 0 165 -51 187 -134zM296 422c-96 0 -188 -66 -188 -187 c0 -78 40 -217 193 -217c95 0 184 74 184 200c0 132 -78 204 -189 204z" />
<glyph unicode="7" d="M512 667l-326 -667h-39l327 667h-404v33h442v-33z" />
<glyph unicode="8" d="M519 544c0 -106 -84 -150 -161 -172c87 -24 186 -77 186 -193c0 -110 -93 -194 -244 -194c-150 0 -244 86 -244 190c0 123 90 171 174 195c-70 21 -149 71 -149 169c0 118 106 176 219 176c114 0 219 -53 219 -171zM507 178c0 117 -116 162 -213 179 c-103 -24 -201 -63 -201 -180c0 -99 92 -160 207 -160c114 0 207 60 207 161zM117 542c0 -107 97 -142 179 -157c96 21 187 55 187 157c0 101 -90 142 -183 142c-87 0 -183 -41 -183 -142z" />
<glyph unicode="9" d="M81 119h36c19 -66 84 -102 156 -102c125 0 211 90 214 356c-29 -69 -103 -127 -200 -127c-118 0 -222 79 -222 232c0 142 99 237 218 237c181 0 238 -155 238 -333c0 -297 -106 -397 -248 -397c-88 0 -171 52 -192 134zM290 278c96 0 188 66 188 187 c0 78 -40 217 -193 217c-102 0 -184 -81 -184 -200c0 -138 84 -204 189 -204z" />
<glyph unicode=":" horiz-adv-x="278" d="M166 0h-54v64h54v-64zM166 456h-54v64h54v-64z" />
<glyph unicode=";" horiz-adv-x="278" d="M166 456h-54v64h54v-64zM166 64v-61c0 -77 -34 -120 -93 -138v29c39 16 55 46 55 106h-18v64h56z" />
<glyph unicode="&#x3c;" d="M142 323v-1l358 -177v-40l-400 203v29l400 203v-40z" />
<glyph unicode="=" d="M500 444v-34h-400v34h400zM500 234v-34h-400v34h400z" />
<glyph unicode="&#x3e;" d="M458 322v1l-358 177v40l400 -203v-29l-400 -203v40z" />
<glyph unicode="?" horiz-adv-x="493" d="M95 573h-38c16 90 90 162 204 162c113 0 192 -69 192 -155c0 -63 -23 -94 -125 -202c-58 -61 -62 -99 -62 -178h-36c0 108 6 134 74 203c79 80 113 113 113 176c0 66 -61 125 -157 125c-85 0 -150 -55 -165 -131zM275 0h-54v64h54v-64z" />
<glyph unicode="@" horiz-adv-x="930" d="M690 105c-68 0 -103 51 -104 110c-15 -38 -76 -105 -167 -105c-84 0 -164 66 -164 185c0 166 98 263 216 263c50 0 114 -28 134 -86l18 79h27l-37 -284c-1 -15 -2 -21 -2 -31c0 -65 32 -100 79 -100c81 0 144 88 144 258c0 177 -135 309 -356 309 c-168 0 -382 -99 -382 -383c0 -238 181 -368 386 -368c59 0 116 11 156 24l10 -30c-41 -15 -102 -27 -167 -27c-213 0 -421 137 -421 401c0 302 228 415 418 415c248 0 392 -154 392 -340c0 -181 -78 -290 -180 -290zM425 141c71 0 144 50 157 149l10 73c1 11 2 22 2 32 c0 96 -62 133 -123 133c-90 0 -181 -77 -181 -229c0 -102 60 -158 135 -158z" />
<glyph unicode="A" horiz-adv-x="642" d="M632 0h-41l-84 213h-373l-85 -213h-39l286 720h51zM322 686l-176 -441h349z" />
<glyph unicode="B" horiz-adv-x="632" d="M85 720h242c141 0 220 -67 220 -173c0 -76 -51 -145 -136 -165c93 -12 167 -85 167 -183c0 -122 -82 -199 -245 -199h-248v720zM344 364h-222v-331h216c129 0 201 60 201 166c0 97 -74 165 -195 165zM333 687h-211v-291h219c111 0 169 67 169 150c0 89 -65 141 -177 141z " />
<glyph unicode="C" horiz-adv-x="715" d="M378 -15c-191 0 -323 146 -323 367c0 248 141 383 319 383c149 0 266 -77 291 -226h-36c-27 129 -124 193 -255 193c-158 0 -281 -126 -281 -350c0 -206 123 -334 285 -334c134 0 230 78 249 215h37c-18 -141 -124 -248 -286 -248z" />
<glyph unicode="D" horiz-adv-x="674" d="M85 720h190c201 0 344 -131 344 -360c0 -227 -149 -360 -345 -360h-189v720zM277 687h-155v-654h157c172 0 302 115 302 327c0 213 -131 327 -304 327z" />
<glyph unicode="E" horiz-adv-x="561" d="M472 383v-33h-350v-317h379v-33h-416v720h416v-33h-379v-304h350z" />
<glyph unicode="F" horiz-adv-x="550" d="M85 720h410v-33h-373v-324h336v-33h-336v-330h-37v720z" />
<glyph unicode="G" horiz-adv-x="728" d="M651 374v-374h-27l-5 132c-43 -92 -132 -147 -241 -147c-176 0 -323 128 -323 374s140 376 318 376c147 0 250 -73 281 -205h-38c-31 115 -118 172 -243 172c-145 0 -280 -110 -280 -343c0 -224 134 -341 285 -341c132 0 241 93 241 217v106h-243v33h275z" />
<glyph unicode="H" horiz-adv-x="676" d="M554 720h37v-720h-37v351h-432v-351h-37v720h37v-335h432v335z" />
<glyph unicode="I" horiz-adv-x="207" d="M85 720h37v-720h-37v720z" />
<glyph unicode="J" horiz-adv-x="517" d="M35 186h36c5 -109 71 -168 167 -168c100 0 162 62 162 178v524h37v-523c0 -126 -76 -212 -199 -212c-124 0 -198 80 -203 201z" />
<glyph unicode="K" horiz-adv-x="580" d="M565 0h-50l-393 360v-360h-37v720h37v-341l369 341h45l-373 -348z" />
<glyph unicode="L" horiz-adv-x="546" d="M85 720h37v-687h379v-33h-416v720z" />
<glyph unicode="M" horiz-adv-x="829" d="M445 0h-45l-279 682v-682h-36v720h58l280 -685l265 685h56v-720h-36v677z" />
<glyph unicode="N" horiz-adv-x="709" d="M590 720h34v-720h-39l-464 668v-668h-36v720h41l464 -663v663z" />
<glyph unicode="O" horiz-adv-x="744" d="M372 18c147 0 279 106 279 341c0 223 -122 343 -279 343s-279 -120 -279 -343c0 -230 132 -341 279 -341zM372 -15c-176 0 -317 134 -317 374c0 242 142 376 317 376s317 -134 317 -376c0 -245 -141 -374 -317 -374z" />
<glyph unicode="P" horiz-adv-x="624" d="M85 720h245c155 0 244 -84 244 -222c0 -132 -105 -214 -246 -214h-206v-284h-37v720zM333 687h-211v-369h206c126 0 207 68 207 180c0 118 -75 189 -202 189z" />
<glyph unicode="Q" horiz-adv-x="744" d="M372 -15c-176 0 -317 134 -317 374c0 242 142 376 317 376s317 -134 317 -376c0 -140 -46 -242 -119 -304l111 -136l-34 -24l-105 139c-49 -33 -107 -49 -170 -49zM372 18c147 0 279 106 279 341c0 223 -122 343 -279 343s-279 -120 -279 -343c0 -230 132 -341 279 -341z " />
<glyph unicode="R" horiz-adv-x="619" d="M599 0h-46l-201 305h-230v-305h-37v720h251c154 0 239 -80 239 -211c0 -103 -78 -175 -183 -199zM339 687h-217v-349h212c125 0 202 72 202 171c0 112 -69 178 -197 178z" />
<glyph unicode="S" horiz-adv-x="643" d="M322 19c145 0 225 62 225 161c0 96 -50 147 -245 186c-161 32 -224 94 -224 195c0 102 83 174 244 174c137 0 241 -65 266 -173h-38c-22 87 -107 140 -226 140c-140 0 -208 -57 -208 -138c0 -85 45 -134 211 -168c189 -39 258 -101 258 -215c0 -113 -92 -196 -264 -196 c-146 0 -251 67 -276 191h39c22 -107 118 -157 238 -157z" />
<glyph unicode="T" horiz-adv-x="563" d="M543 720v-33h-243v-687h-37v687h-243v33h523z" />
<glyph unicode="U" horiz-adv-x="700" d="M350 -15c-173 0 -270 116 -270 250v485h36v-486c0 -127 101 -216 234 -216c132 0 234 89 234 216v486h36v-485c0 -134 -100 -250 -270 -250z" />
<glyph unicode="V" horiz-adv-x="618" d="M10 720h38l260 -691l264 691h36l-272 -720h-55z" />
<glyph unicode="W" horiz-adv-x="950" d="M899 720h36l-203 -720h-55l-202 690l-201 -690h-56l-203 720h39l193 -691l202 691h55l201 -689z" />
<glyph unicode="X" horiz-adv-x="596" d="M567 720l-244 -348l253 -372h-44l-234 345l-235 -345h-43l256 374l-236 346h44l217 -319l225 319h41z" />
<glyph unicode="Y" horiz-adv-x="620" d="M10 720h40l259 -403l263 403h38l-282 -439v-281h-37v283z" />
<glyph unicode="Z" horiz-adv-x="639" d="M589 689l-496 -656h486v-33h-529v34l495 653h-472v33h516v-31z" />
<glyph unicode="[" horiz-adv-x="230" d="M200 -138v-32h-170v980h170v-32h-134v-916h134z" />
<glyph unicode="\" horiz-adv-x="304" d="M239 -90l-209 825h35l209 -825h-35z" />
<glyph unicode="]" horiz-adv-x="230" d="M30 -170v32h134v916h-134v32h170v-980h-170z" />
<glyph unicode="^" horiz-adv-x="480" d="M240 692l-157 -292h-37l174 320h40l174 -320h-37z" />
<glyph unicode="_" horiz-adv-x="604" d="M574 -70v-34h-544v34h544z" />
<glyph unicode="`" horiz-adv-x="216" d="M83 735l103 -137h-34l-122 137h53z" />
<glyph unicode="a" horiz-adv-x="520" d="M103 390h-36c8 86 85 145 193 145s185 -62 185 -167v-368h-29l-6 93c-31 -57 -92 -108 -188 -108s-172 51 -172 146c0 87 53 140 201 165l158 26v53c0 79 -57 130 -151 130c-87 0 -148 -48 -155 -115zM409 183v109l-144 -24c-138 -23 -178 -66 -178 -135 c0 -79 61 -117 145 -117c87 0 177 67 177 167z" />
<glyph unicode="b" horiz-adv-x="568" d="M109 0h-29v720h36v-307c32 71 97 122 187 122c125 0 215 -86 215 -268c0 -186 -96 -282 -218 -282c-89 0 -154 49 -185 121zM481 268c0 163 -77 237 -184 237c-89 0 -185 -63 -185 -247c0 -164 78 -243 183 -243c104 0 186 82 186 253z" />
<glyph unicode="c" horiz-adv-x="534" d="M447 147h37c-17 -95 -99 -162 -209 -162c-126 0 -225 93 -225 271c0 188 105 279 227 279c108 0 187 -62 204 -155h-38c-13 75 -78 125 -165 125c-106 0 -192 -81 -192 -251c0 -163 88 -238 191 -238c88 0 157 55 170 131z" />
<glyph unicode="d" horiz-adv-x="568" d="M488 0h-29l-6 110c-32 -73 -97 -125 -187 -125c-116 0 -216 87 -216 269c0 189 100 281 218 281c86 0 152 -48 184 -118v303h36v-720zM87 255c0 -164 83 -240 185 -240c87 0 184 63 184 247c0 164 -80 243 -183 243c-100 0 -186 -80 -186 -250z" />
<glyph unicode="e" horiz-adv-x="568" d="M465 138h38c-25 -94 -105 -153 -210 -153c-138 0 -243 99 -243 275c0 177 102 275 231 275s232 -92 232 -284h-426c4 -161 95 -235 207 -235c84 0 150 44 171 122zM281 505c-103 0 -187 -78 -194 -223h388c-7 148 -90 223 -194 223z" />
<glyph unicode="f" horiz-adv-x="291" d="M296 723v-30c-24 7 -55 12 -76 12c-48 0 -77 -30 -77 -90v-95h127v-31h-127v-489h-36v489h-77v31h77v94c0 78 45 121 113 121c24 0 51 -4 76 -12z" />
<glyph unicode="g" horiz-adv-x="568" d="M72 -54h38c15 -78 85 -111 168 -111c108 0 174 66 174 165v133c-32 -66 -96 -113 -185 -113c-114 0 -217 88 -217 253c0 170 99 262 218 262c85 0 153 -45 185 -115l6 100h29v-520c0 -111 -79 -195 -209 -195c-110 0 -188 49 -207 141zM87 274c0 -147 83 -224 186 -224 c90 0 183 54 183 227c0 157 -81 228 -184 228c-100 0 -185 -73 -185 -231z" />
<glyph unicode="h" horiz-adv-x="547" d="M116 0h-36v720h36v-298c33 73 103 113 178 113c108 0 178 -68 178 -175v-360h-36v358c0 91 -55 147 -150 147c-81 0 -170 -71 -170 -182v-323z" />
<glyph unicode="i" horiz-adv-x="184" d="M110 0h-36v520h36v-520zM115 663h-46v57h46v-57z" />
<glyph unicode="j" horiz-adv-x="184" d="M-59 -184v32c21 -7 48 -11 65 -11c44 0 68 24 68 88v595h36v-597c0 -78 -36 -118 -99 -118c-22 0 -45 3 -70 11zM115 663h-46v57h46v-57z" />
<glyph unicode="k" horiz-adv-x="474" d="M116 0h-36v720h36v-416l268 216h50l-281 -227l316 -293h-49l-304 280v-280z" />
<glyph unicode="l" horiz-adv-x="196" d="M116 720v-720h-36v720h36z" />
<glyph unicode="m" horiz-adv-x="843" d="M116 0h-36v520h30l5 -89c33 72 101 104 163 104c81 0 137 -40 156 -112c33 78 105 112 170 112c103 0 164 -64 164 -174v-361h-36v359c0 100 -50 146 -134 146c-90 0 -156 -79 -156 -181v-324h-36v359c0 98 -48 146 -132 146c-92 0 -158 -79 -158 -181v-324z" />
<glyph unicode="n" horiz-adv-x="547" d="M116 0h-36v520h30l5 -99c34 74 104 114 179 114c108 0 178 -68 178 -175v-360h-36v358c0 91 -55 147 -150 147c-81 0 -170 -70 -170 -181v-324z" />
<glyph unicode="o" horiz-adv-x="565" d="M87 260c0 -163 86 -245 196 -245c113 0 195 82 195 245c0 164 -82 245 -195 245s-196 -82 -196 -245zM50 260c0 181 100 275 233 275c136 0 232 -95 232 -275c0 -181 -98 -275 -230 -275c-133 0 -235 96 -235 275z" />
<glyph unicode="p" horiz-adv-x="568" d="M80 520h29l6 -109c31 72 97 124 188 124c124 0 215 -86 215 -268c0 -186 -98 -282 -220 -282c-87 0 -151 48 -182 119v-284h-36v700zM481 268c0 163 -78 237 -184 237c-89 0 -185 -63 -185 -247c0 -164 78 -243 181 -243c104 0 188 82 188 253z" />
<glyph unicode="q" horiz-adv-x="568" d="M459 520h29v-700h-36v288c-32 -72 -97 -123 -186 -123c-116 0 -216 87 -216 269c0 189 100 281 218 281c87 0 153 -49 185 -121zM87 255c0 -164 83 -240 185 -240c87 0 184 63 184 247c0 164 -80 243 -183 243c-100 0 -186 -80 -186 -250z" />
<glyph unicode="r" horiz-adv-x="334" d="M116 0h-36v520h29l6 -110c27 87 84 125 152 125c19 0 40 -4 52 -8v-35c-17 5 -35 9 -55 9c-80 0 -148 -84 -148 -207v-294z" />
<glyph unicode="s" horiz-adv-x="491" d="M403 136c0 69 -50 103 -179 123c-98 15 -168 58 -168 142c0 73 60 134 184 134c105 0 184 -56 199 -140h-38c-8 62 -75 110 -164 110c-99 0 -144 -47 -144 -101c0 -64 40 -96 156 -116c138 -24 192 -68 192 -151c0 -78 -74 -152 -198 -152c-119 0 -190 62 -203 148h38 c7 -68 70 -117 166 -117c103 0 159 58 159 120z" />
<glyph unicode="t" horiz-adv-x="294" d="M260 489h-124v-394c0 -55 29 -80 74 -80c19 0 38 2 64 9v-30c-23 -6 -44 -9 -64 -9c-67 0 -110 36 -110 111v393h-75v31h75l4 125h32v-125h124v-31z" />
<glyph unicode="u" horiz-adv-x="542" d="M75 520h36v-356c0 -99 58 -149 148 -149c93 0 167 79 167 185v320h36v-520h-30l-5 93c-36 -75 -110 -108 -176 -108c-100 0 -176 59 -176 177v358z" />
<glyph unicode="v" horiz-adv-x="490" d="M433 520h37l-201 -520h-48l-201 520h39l186 -488z" />
<glyph unicode="w" horiz-adv-x="752" d="M692 520h35l-149 -520h-46l-154 488l-145 -488h-46l-162 520h36l150 -485l144 485h48l152 -483z" />
<glyph unicode="x" horiz-adv-x="504" d="M453 520l-182 -246l213 -274h-45l-192 248l-184 -248h-43l205 274l-196 246h46l175 -220l161 220h42z" />
<glyph unicode="y" horiz-adv-x="490" d="M470 520l-186 -523c-55 -153 -70 -192 -136 -192c-17 0 -37 5 -51 10v30c17 -6 37 -10 52 -10c44 0 58 39 100 165h-17l-212 520h39l200 -494l174 494h37z" />
<glyph unicode="z" horiz-adv-x="478" d="M438 482l-358 -451h358v-31h-398v36l360 453h-345v31h383v-38z" />
<glyph unicode="{" horiz-adv-x="340" d="M60 339c57 0 95 37 95 101v238c0 83 35 132 135 132v-32c-79 0 -99 -35 -99 -95v-240c0 -66 -37 -111 -92 -122c55 -11 92 -56 92 -122v-240c0 -60 20 -95 99 -95v-32c-100 0 -135 49 -135 132v238c0 64 -38 101 -95 101v36z" />
<glyph unicode="|" horiz-adv-x="340" d="M153 785h34v-925h-34v925z" />
<glyph unicode="}" horiz-adv-x="340" d="M280 339v-36c-57 0 -95 -37 -95 -101v-238c0 -83 -35 -132 -135 -132v32c79 0 99 35 99 95v240c0 66 37 111 92 122c-55 11 -92 56 -92 122v240c0 60 -20 95 -99 95v32c100 0 135 -49 135 -132v-238c0 -64 38 -101 95 -101z" />
<glyph unicode="~" d="M396 314c41 0 70 19 104 49v-41c-27 -21 -58 -40 -105 -40c-82 0 -122 59 -191 59c-41 0 -70 -19 -104 -49v41c27 21 58 40 105 40c82 0 122 -59 191 -59z" />
<glyph unicode="&#xa1;" horiz-adv-x="250" d="M102 320h39v-500h-39v500zM98 540h54v-64h-54v64z" />
<glyph unicode="&#xa2;" d="M287 -135v121c-116 10 -204 102 -204 270c0 176 92 267 204 278v126h35v-126c102 -4 175 -65 192 -154h-38c-13 75 -78 125 -165 125c-106 0 -192 -81 -192 -251c0 -163 88 -238 191 -238c88 0 157 55 170 131h37c-17 -91 -92 -156 -195 -161v-121h-35z" />
<glyph unicode="&#xa3;" d="M383 367v-32h-223v-199c0 -35 -14 -76 -52 -103h392v-33h-445v33c47 18 70 58 70 108v194h-45v32h45v158c0 121 73 190 183 190c93 0 165 -60 183 -137h-35c-15 60 -72 106 -148 106c-95 0 -148 -58 -148 -159v-158h223z" />
<glyph unicode="&#xa4;" d="M77 340c0 61 19 109 49 146l-65 65l24 24l64 -65c44 40 100 59 151 59s108 -20 151 -60l66 66l24 -24l-67 -67c29 -36 49 -84 49 -144c0 -62 -20 -111 -50 -147l68 -68l-24 -24l-68 67c-43 -38 -99 -57 -149 -57s-105 18 -149 56l-66 -66l-24 24l67 67 c-31 36 -51 85 -51 148zM113 340c0 -117 85 -197 188 -197c100 0 186 80 186 197s-86 197 -186 197c-102 0 -188 -80 -188 -197z" />
<glyph unicode="&#xa5;" d="M471 182v-32h-153v-150h-37v150h-151v32h151v102h-151v32h131l-248 384h40l246 -383l250 383h38l-248 -384h132v-32h-153v-102h153z" />
<glyph unicode="&#xa6;" horiz-adv-x="340" d="M153 245h34v-385h-34v385zM153 785h34v-385h-34v385z" />
<glyph unicode="&#xa7;" d="M104 319c0 69 50 119 137 139c-66 30 -99 68 -99 123c0 80 64 134 167 134c88 0 152 -48 168 -104h-39c-15 43 -67 74 -130 74c-84 0 -131 -47 -131 -101c0 -64 52 -93 138 -120c138 -44 181 -89 181 -158c0 -70 -51 -119 -137 -140c66 -30 100 -68 100 -122 c0 -83 -71 -134 -167 -134c-88 0 -157 51 -175 105h41c13 -39 67 -75 135 -75c79 0 131 46 131 101c0 64 -52 92 -138 120c-138 45 -182 90 -182 158zM308 186l15 -5c71 16 137 49 137 123c0 67 -44 94 -167 135l-16 5c-79 -16 -137 -48 -137 -123c0 -67 45 -94 168 -135z " />
<glyph unicode="&#xa8;" horiz-adv-x="370" d="M106 663h-46v57h46v-57zM302 663h-46v57h46v-57z" />
<glyph unicode="&#xa9;" horiz-adv-x="843" d="M91 360c0 -242 167 -346 330 -346s330 104 330 346s-167 346 -330 346s-330 -104 -330 -346zM783 360c0 -262 -185 -375 -362 -375s-362 113 -362 375s185 375 362 375s362 -113 362 -375zM548 280h35c-14 -75 -77 -126 -163 -126c-98 0 -175 72 -175 207 c0 143 82 213 176 213c85 0 146 -48 160 -121h-36c-11 56 -58 91 -123 91c-78 0 -142 -60 -142 -184c0 -120 66 -175 141 -175c66 0 116 38 127 95z" />
<glyph unicode="&#xaa;" horiz-adv-x="440" d="M123 638h-35c10 65 72 96 138 96c83 0 135 -47 135 -127v-300h-26l-6 67c-22 -40 -63 -75 -129 -75c-72 0 -126 46 -126 120c0 77 62 112 143 127l111 20v43c0 61 -35 98 -105 98c-55 0 -95 -27 -100 -69zM328 449v88l-99 -18c-66 -12 -121 -34 -121 -98 c0 -60 39 -94 101 -94c66 0 119 62 119 122zM371 34v-34h-302v34h302z" />
<glyph unicode="&#xab;" horiz-adv-x="459" d="M174 90l-109 225l119 205h30l-106 -207l96 -223h-30zM354 90l-109 225l119 205h30l-106 -207l96 -223h-30z" />
<glyph unicode="&#xac;" d="M100 339h400v-217h-36v183h-364v34z" />
<glyph unicode="&#xad;" horiz-adv-x="540" d="M440 339v-34h-340v34h340z" />
<glyph unicode="&#xae;" horiz-adv-x="614" d="M75 493c0 164 125 237 232 237s232 -73 232 -237s-125 -237 -232 -237s-232 73 -232 237zM103 493c0 -138 101 -212 204 -212s204 74 204 212s-101 212 -204 212s-204 -74 -204 -212zM410 366h-31l-63 104h-58v-104h-26v258h77c51 0 91 -22 91 -74c0 -32 -15 -62 -57 -75 zM310 602h-52v-110h55c40 0 60 30 60 58c0 27 -17 52 -63 52z" />
<glyph unicode="&#xaf;" horiz-adv-x="290" d="M260 661h-230v32h230v-32z" />
<glyph unicode="&#xb0;" horiz-adv-x="540" d="M86 552c0 -81 52 -128 119 -128s119 47 119 128s-52 128 -119 128s-119 -47 -119 -128zM360 552c0 -103 -75 -158 -155 -158s-155 55 -155 158s75 158 155 158s155 -55 155 -158z" />
<glyph unicode="&#xb1;" d="M282 522h36v-183h182v-34h-182v-173h-36v173h-182v34h182v183zM500 34v-34h-400v34h400z" />
<glyph unicode="&#xb2;" horiz-adv-x="340" d="M81 715h-34c14 56 60 95 125 95c73 0 118 -51 118 -110c0 -55 -28 -91 -71 -134l-116 -116h182v-30h-223v30l135 138c28 28 59 61 59 112c0 32 -20 82 -84 82c-47 0 -79 -27 -91 -67z" />
<glyph unicode="&#xb3;" horiz-adv-x="340" d="M86 725h-34c13 54 59 85 120 85c65 0 107 -43 107 -100c0 -42 -24 -74 -69 -87c38 -8 84 -32 84 -99c0 -63 -50 -110 -123 -110c-58 0 -111 40 -121 88h36c11 -35 49 -59 84 -59c58 0 90 38 90 82c0 55 -44 82 -92 82h-23v27h28c40 0 73 36 73 75c0 45 -29 73 -75 73 s-75 -23 -85 -57z" />
<glyph unicode="&#xb4;" horiz-adv-x="216" d="M30 598l103 137h53l-122 -137h-34z" />
<glyph unicode="&#xb5;" horiz-adv-x="547" d="M80 520h36v-356c0 -99 58 -149 148 -149c93 0 167 79 167 185v320h36v-520h-30l-5 93c-36 -75 -110 -108 -176 -108c-58 0 -109 19 -140 59v-224h-36v700z" />
<glyph unicode="&#xb6;" horiz-adv-x="550" d="M255 -180h-34v575c-50 0 -151 40 -151 162s101 163 151 163h34v-900zM406 720h34v-900h-34v900z" />
<glyph unicode="&#xb7;" horiz-adv-x="278" d="M166 289h-54v64h54v-64z" />
<glyph unicode="&#xb8;" horiz-adv-x="281" d="M251 -143c0 -52 -45 -95 -108 -95c-59 0 -105 28 -113 82h33c4 -35 38 -53 81 -53c45 0 75 28 75 65c0 40 -32 67 -115 67l7 92h28v-67c74 -7 112 -43 112 -91z" />
<glyph unicode="&#xb9;" horiz-adv-x="340" d="M281 420h-206v29h94v318l-108 -64v35l104 62h38v-351h78v-29z" />
<glyph unicode="&#xba;" horiz-adv-x="384" d="M69 515c0 -140 60 -188 124 -188s122 48 122 188c0 141 -58 191 -122 191s-124 -51 -124 -191zM35 515c0 146 62 219 158 219s156 -71 156 -219s-63 -216 -155 -216c-93 0 -159 70 -159 216zM334 34v-34h-294v34h294z" />
<glyph unicode="&#xbb;" horiz-adv-x="459" d="M394 315l-109 -225h-30l96 223l-106 207h30zM214 315l-109 -225h-30l96 223l-106 207h30z" />
<glyph unicode="&#xbc;" horiz-adv-x="880" d="M316 320h-206v29h94v318l-108 -64v35l104 62h38v-351h78v-29zM687 240h29v-121h67v-29h-67v-90h-34v90h-148v30l84 260h34l-85 -261h115v20zM697 790l-455 -880h-34l454 880h35z" />
<glyph unicode="&#xbd;" horiz-adv-x="880" d="M581 295h-34c14 56 60 95 125 95c73 0 118 -51 118 -110c0 -55 -28 -91 -71 -134l-116 -116h182v-30h-223v30l135 138c28 28 59 61 59 112c0 32 -20 82 -84 82c-47 0 -79 -27 -91 -67zM309 320h-206v29h94v318l-108 -64v35l104 62h38v-351h78v-29zM690 790l-455 -880h-34 l454 880h35z" />
<glyph unicode="&#xbe;" horiz-adv-x="880" d="M132 630h-34c13 54 59 85 120 85c65 0 107 -43 107 -100c0 -42 -24 -74 -69 -87c38 -8 84 -32 84 -99c0 -63 -50 -110 -123 -110c-58 0 -111 40 -121 88h36c11 -35 49 -59 84 -59c58 0 90 38 90 82c0 55 -44 82 -92 82h-23v27h28c40 0 73 36 73 75c0 45 -29 73 -75 73 s-75 -23 -85 -57zM688 240h29v-121h67v-29h-67v-90h-34v90h-148v30l84 260h34l-85 -261h115v20zM698 790l-455 -880h-34l454 880h35z" />
<glyph unicode="&#xbf;" horiz-adv-x="493" d="M398 -33h38c-16 -90 -90 -162 -204 -162c-113 0 -192 69 -192 155c0 63 23 94 125 202c58 61 62 82 62 178h36c0 -108 -6 -134 -74 -203c-79 -80 -113 -113 -113 -176c0 -66 61 -125 157 -125c85 0 150 55 165 131zM218 540h54v-64h-54v64z" />
<glyph unicode="&#xc0;" horiz-adv-x="642" d="M632 0h-41l-84 213h-373l-85 -213h-39l286 720h51zM322 686l-176 -441h349zM261 905l103 -137h-34l-122 137h53z" />
<glyph unicode="&#xc1;" horiz-adv-x="642" d="M632 0h-41l-84 213h-373l-85 -213h-39l286 720h51zM322 686l-176 -441h349zM271 768l103 137h53l-122 -137h-34z" />
<glyph unicode="&#xc2;" horiz-adv-x="642" d="M632 0h-41l-84 213h-373l-85 -213h-39l286 720h51zM322 686l-176 -441h349zM344 905l103 -137h-34l-91 113l-90 -113h-35l104 137h43z" />
<glyph unicode="&#xc3;" horiz-adv-x="642" d="M632 0h-41l-84 213h-373l-85 -213h-39l286 720h51zM322 686l-176 -441h349zM375 803c-53 0 -65 32 -107 32c-23 0 -44 -9 -73 -32v36c27 20 46 29 74 29c53 0 65 -32 107 -32c23 0 44 9 73 32v-36c-27 -20 -46 -29 -74 -29z" />
<glyph unicode="&#xc4;" horiz-adv-x="642" d="M632 0h-41l-84 213h-373l-85 -213h-39l286 720h51zM322 686l-176 -441h349zM247 833h-46v57h46v-57zM443 833h-46v57h46v-57z" />
<glyph unicode="&#xc5;" horiz-adv-x="642" d="M632 0h-41l-84 213h-373l-85 -213h-39l278 700c-50 12 -83 55 -83 111c0 67 47 115 115 115s115 -48 115 -115c0 -55 -32 -97 -81 -111zM322 686l-176 -441h349zM237 811c0 -57 36 -88 83 -88s83 31 83 88s-36 88 -83 88s-83 -31 -83 -88z" />
<glyph unicode="&#xc6;" horiz-adv-x="917" d="M828 383v-33h-330v-317h359v-33h-396v213h-293l-129 -213h-39l436 720h421v-33h-359v-304h330zM188 245h273v450z" />
<glyph unicode="&#xc7;" horiz-adv-x="715" d="M503 -143c0 -52 -45 -95 -108 -95c-59 0 -105 28 -113 82h33c4 -35 38 -53 81 -53c45 0 75 28 75 65c0 40 -32 67 -115 67l5 63c-182 9 -306 151 -306 366c0 248 141 383 319 383c149 0 266 -77 291 -226h-36c-27 129 -124 193 -255 193c-158 0 -281 -126 -281 -350 c0 -206 123 -334 285 -334c134 0 230 78 249 215h37c-18 -137 -119 -242 -273 -248v-37c74 -7 112 -43 112 -91z" />
<glyph unicode="&#xc8;" horiz-adv-x="561" d="M472 383v-33h-350v-317h379v-33h-416v720h416v-33h-379v-304h350zM253 905l103 -137h-34l-122 137h53z" />
<glyph unicode="&#xc9;" horiz-adv-x="561" d="M472 383v-33h-350v-317h379v-33h-416v720h416v-33h-379v-304h350zM230 768l103 137h53l-122 -137h-34z" />
<glyph unicode="&#xca;" horiz-adv-x="561" d="M472 383v-33h-350v-317h379v-33h-416v720h416v-33h-379v-304h350zM318 905l103 -137h-34l-91 113l-90 -113h-35l104 137h43z" />
<glyph unicode="&#xcb;" horiz-adv-x="561" d="M472 383v-33h-350v-317h379v-33h-416v720h416v-33h-379v-304h350zM210 833h-46v57h46v-57zM406 833h-46v57h46v-57z" />
<glyph unicode="&#xcc;" horiz-adv-x="207" d="M85 720h37v-720h-37v720zM46 905l103 -137h-34l-122 137h53z" />
<glyph unicode="&#xcd;" horiz-adv-x="207" d="M85 720h37v-720h-37v720zM58 768l103 137h53l-122 -137h-34z" />
<glyph unicode="&#xce;" horiz-adv-x="207" d="M85 720h37v-720h-37v720zM125 905l103 -137h-34l-91 113l-90 -113h-35l104 137h43z" />
<glyph unicode="&#xcf;" horiz-adv-x="207" d="M85 720h37v-720h-37v720zM28 833h-46v57h46v-57zM224 833h-46v57h46v-57z" />
<glyph unicode="&#xd0;" horiz-adv-x="674" d="M85 0v362h-60v33h60v325h190c201 0 344 -131 344 -360c0 -227 -149 -360 -345 -360h-189zM360 395v-33h-238v-329h157c172 0 302 115 302 327c0 213 -131 327 -304 327h-155v-292h238z" />
<glyph unicode="&#xd1;" horiz-adv-x="709" d="M590 720h34v-720h-39l-464 668v-668h-36v720h41l464 -663v663zM419 803c-53 0 -65 32 -107 32c-23 0 -44 -9 -73 -32v36c27 20 46 29 74 29c53 0 65 -32 107 -32c23 0 44 9 73 32v-36c-27 -20 -46 -29 -74 -29z" />
<glyph unicode="&#xd2;" horiz-adv-x="744" d="M372 18c147 0 279 106 279 341c0 223 -122 343 -279 343s-279 -120 -279 -343c0 -230 132 -341 279 -341zM372 -15c-176 0 -317 134 -317 374c0 242 142 376 317 376s317 -134 317 -376c0 -245 -141 -374 -317 -374zM303 905l103 -137h-34l-122 137h53z" />
<glyph unicode="&#xd3;" horiz-adv-x="744" d="M372 18c147 0 279 106 279 341c0 223 -122 343 -279 343s-279 -120 -279 -343c0 -230 132 -341 279 -341zM372 -15c-176 0 -317 134 -317 374c0 242 142 376 317 376s317 -134 317 -376c0 -245 -141 -374 -317 -374zM327 768l103 137h53l-122 -137h-34z" />
<glyph unicode="&#xd4;" horiz-adv-x="744" d="M372 18c147 0 279 106 279 341c0 223 -122 343 -279 343s-279 -120 -279 -343c0 -230 132 -341 279 -341zM372 -15c-176 0 -317 134 -317 374c0 242 142 376 317 376s317 -134 317 -376c0 -245 -141 -374 -317 -374zM394 905l103 -137h-34l-91 113l-90 -113h-35l104 137 h43z" />
<glyph unicode="&#xd5;" horiz-adv-x="744" d="M372 18c147 0 279 106 279 341c0 223 -122 343 -279 343s-279 -120 -279 -343c0 -230 132 -341 279 -341zM372 -15c-176 0 -317 134 -317 374c0 242 142 376 317 376s317 -134 317 -376c0 -245 -141 -374 -317 -374zM425 803c-53 0 -65 32 -107 32c-23 0 -44 -9 -73 -32 v36c27 20 46 29 74 29c53 0 65 -32 107 -32c23 0 44 9 73 32v-36c-27 -20 -46 -29 -74 -29z" />
<glyph unicode="&#xd6;" horiz-adv-x="744" d="M372 18c147 0 279 106 279 341c0 223 -122 343 -279 343s-279 -120 -279 -343c0 -230 132 -341 279 -341zM372 -15c-176 0 -317 134 -317 374c0 242 142 376 317 376s317 -134 317 -376c0 -245 -141 -374 -317 -374zM296 833h-46v57h46v-57zM492 833h-46v57h46v-57z" />
<glyph unicode="&#xd7;" d="M147 451l24 24l129 -129l129 129l24 -24l-129 -129l129 -129l-24 -24l-129 129l-129 -129l-24 24l129 129z" />
<glyph unicode="&#xd8;" horiz-adv-x="744" d="M372 -15c-39 0 -77 7 -112 19l-42 -114h-35l47 128c-104 54 -175 170 -175 341c0 242 142 376 317 376c40 0 79 -7 115 -21l39 106h35l-44 -120c102 -55 172 -172 172 -341c0 -245 -141 -374 -317 -374zM93 359c0 -159 62 -261 149 -309l233 632c-32 13 -66 20 -103 20 c-157 0 -279 -120 -279 -343zM372 18c147 0 279 106 279 341c0 154 -58 259 -146 309l-233 -632c32 -12 65 -18 100 -18z" />
<glyph unicode="&#xd9;" horiz-adv-x="700" d="M350 -15c-173 0 -270 116 -270 250v485h36v-486c0 -127 101 -216 234 -216c132 0 234 89 234 216v486h36v-485c0 -134 -100 -250 -270 -250zM298 905l103 -137h-34l-122 137h53z" />
<glyph unicode="&#xda;" horiz-adv-x="700" d="M350 -15c-173 0 -270 116 -270 250v485h36v-486c0 -127 101 -216 234 -216c132 0 234 89 234 216v486h36v-485c0 -134 -100 -250 -270 -250zM295 768l103 137h53l-122 -137h-34z" />
<glyph unicode="&#xdb;" horiz-adv-x="700" d="M350 -15c-173 0 -270 116 -270 250v485h36v-486c0 -127 101 -216 234 -216c132 0 234 89 234 216v486h36v-485c0 -134 -100 -250 -270 -250zM371 905l103 -137h-34l-91 113l-90 -113h-35l104 137h43z" />
<glyph unicode="&#xdc;" horiz-adv-x="700" d="M350 -15c-173 0 -270 116 -270 250v485h36v-486c0 -127 101 -216 234 -216c132 0 234 89 234 216v486h36v-485c0 -134 -100 -250 -270 -250zM275 833h-46v57h46v-57zM471 833h-46v57h46v-57z" />
<glyph unicode="&#xdd;" horiz-adv-x="620" d="M10 720h40l259 -403l263 403h38l-282 -439v-281h-37v283zM255 768l103 137h53l-122 -137h-34z" />
<glyph unicode="&#xde;" horiz-adv-x="624" d="M85 720h37v-133h208c155 0 244 -84 244 -222c0 -132 -105 -214 -246 -214h-206v-151h-37v720zM333 554h-211v-369h206c126 0 207 68 207 180c0 118 -75 189 -202 189z" />
<glyph unicode="&#xdf;" horiz-adv-x="545" d="M186 87h38c11 -46 61 -72 123 -72c70 0 130 50 130 125c0 60 -28 96 -108 140c-77 42 -96 73 -96 123c0 78 108 97 108 187c0 76 -55 115 -130 115c-71 0 -135 -37 -135 -154v-551h-36v549c0 115 57 186 171 186c90 0 165 -45 165 -143c0 -96 -110 -130 -110 -188 c0 -37 21 -65 82 -97c93 -49 127 -101 127 -163c0 -87 -69 -159 -171 -159c-88 0 -145 44 -158 102z" />
<glyph unicode="&#xe0;" horiz-adv-x="520" d="M103 390h-36c8 86 85 145 193 145s185 -62 185 -167v-368h-29l-6 93c-31 -57 -92 -108 -188 -108s-172 51 -172 146c0 87 53 140 201 165l158 26v53c0 79 -57 130 -151 130c-87 0 -148 -48 -155 -115zM409 183v109l-144 -24c-138 -23 -178 -66 -178 -135 c0 -79 61 -117 145 -117c87 0 177 67 177 167zM191 735l103 -137h-34l-122 137h53z" />
<glyph unicode="&#xe1;" horiz-adv-x="520" d="M103 390h-36c8 86 85 145 193 145s185 -62 185 -167v-368h-29l-6 93c-31 -57 -92 -108 -188 -108s-172 51 -172 146c0 87 53 140 201 165l158 26v53c0 79 -57 130 -151 130c-87 0 -148 -48 -155 -115zM409 183v109l-144 -24c-138 -23 -178 -66 -178 -135 c0 -79 61 -117 145 -117c87 0 177 67 177 167zM226 598l103 137h53l-122 -137h-34z" />
<glyph unicode="&#xe2;" horiz-adv-x="520" d="M103 390h-36c8 86 85 145 193 145s185 -62 185 -167v-368h-29l-6 93c-31 -57 -92 -108 -188 -108s-172 51 -172 146c0 87 53 140 201 165l158 26v53c0 79 -57 130 -151 130c-87 0 -148 -48 -155 -115zM409 183v109l-144 -24c-138 -23 -178 -66 -178 -135 c0 -79 61 -117 145 -117c87 0 177 67 177 167zM285 735l103 -137h-34l-91 113l-90 -113h-35l104 137h43z" />
<glyph unicode="&#xe3;" horiz-adv-x="520" d="M103 390h-36c8 86 85 145 193 145s185 -62 185 -167v-368h-29l-6 93c-31 -57 -92 -108 -188 -108s-172 51 -172 146c0 87 53 140 201 165l158 26v53c0 79 -57 130 -151 130c-87 0 -148 -48 -155 -115zM409 183v109l-144 -24c-138 -23 -178 -66 -178 -135 c0 -79 61 -117 145 -117c87 0 177 67 177 167zM313 633c-53 0 -65 32 -107 32c-23 0 -44 -9 -73 -32v36c27 20 46 29 74 29c53 0 65 -32 107 -32c23 0 44 9 73 32v-36c-27 -20 -46 -29 -74 -29z" />
<glyph unicode="&#xe4;" horiz-adv-x="520" d="M103 390h-36c8 86 85 145 193 145s185 -62 185 -167v-368h-29l-6 93c-31 -57 -92 -108 -188 -108s-172 51 -172 146c0 87 53 140 201 165l158 26v53c0 79 -57 130 -151 130c-87 0 -148 -48 -155 -115zM409 183v109l-144 -24c-138 -23 -178 -66 -178 -135 c0 -79 61 -117 145 -117c87 0 177 67 177 167zM185 663h-46v57h46v-57zM381 663h-46v57h46v-57z" />
<glyph unicode="&#xe5;" horiz-adv-x="520" d="M103 390h-36c8 86 85 145 193 145s185 -62 185 -167v-368h-29l-6 93c-31 -57 -92 -108 -188 -108s-172 51 -172 146c0 87 53 140 201 165l158 26v53c0 79 -57 130 -151 130c-87 0 -148 -48 -155 -115zM409 183v109l-144 -24c-138 -23 -178 -66 -178 -135 c0 -79 61 -117 145 -117c87 0 177 67 177 167zM174 700c0 -57 36 -88 83 -88s83 31 83 88s-36 88 -83 88s-83 -31 -83 -88zM372 700c0 -67 -47 -115 -115 -115s-115 48 -115 115s47 115 115 115s115 -48 115 -115z" />
<glyph unicode="&#xe6;" horiz-adv-x="927" d="M822 143h38c-26 -99 -111 -158 -210 -158c-89 0 -181 45 -221 154c-19 -78 -82 -154 -207 -154c-96 0 -172 49 -172 143c0 84 57 140 204 156l155 17v74c0 79 -57 130 -151 130c-87 0 -148 -48 -155 -115h-36c8 86 85 145 193 145c92 0 161 -45 179 -124 c43 87 123 124 199 124c114 0 227 -74 232 -263h-426v-22c0 -168 105 -234 207 -234c74 0 148 41 171 127zM232 16c85 0 172 64 177 159v85v11l-141 -15c-137 -15 -181 -61 -181 -126c0 -79 61 -114 145 -114zM638 505c-97 0 -178 -75 -192 -202h385 c-12 125 -87 202 -193 202z" />
<glyph unicode="&#xe7;" horiz-adv-x="534" d="M395 -143c0 -52 -45 -95 -108 -95c-59 0 -105 28 -113 82h33c4 -35 38 -53 81 -53c45 0 75 28 75 65c0 40 -32 67 -115 67l5 63c-116 11 -203 102 -203 270c0 188 105 279 227 279c108 0 187 -62 204 -155h-38c-13 75 -78 125 -165 125c-106 0 -192 -81 -192 -251 c0 -163 88 -238 191 -238c88 0 157 55 170 131h37c-17 -93 -95 -159 -201 -162v-37c74 -7 112 -43 112 -91z" />
<glyph unicode="&#xe8;" horiz-adv-x="568" d="M465 138h38c-25 -94 -105 -153 -210 -153c-138 0 -243 99 -243 275c0 177 102 275 231 275s232 -92 232 -284h-426c4 -161 95 -235 207 -235c84 0 150 44 171 122zM281 505c-103 0 -187 -78 -194 -223h388c-7 148 -90 223 -194 223zM216 735l103 -137h-34l-122 137h53z " />
<glyph unicode="&#xe9;" horiz-adv-x="568" d="M465 138h38c-25 -94 -105 -153 -210 -153c-138 0 -243 99 -243 275c0 177 102 275 231 275s232 -92 232 -284h-426c4 -161 95 -235 207 -235c84 0 150 44 171 122zM281 505c-103 0 -187 -78 -194 -223h388c-7 148 -90 223 -194 223zM249 598l103 137h53l-122 -137h-34z " />
<glyph unicode="&#xea;" horiz-adv-x="568" d="M465 138h38c-25 -94 -105 -153 -210 -153c-138 0 -243 99 -243 275c0 177 102 275 231 275s232 -92 232 -284h-426c4 -161 95 -235 207 -235c84 0 150 44 171 122zM281 505c-103 0 -187 -78 -194 -223h388c-7 148 -90 223 -194 223zM302 735l103 -137h-34l-91 113 l-90 -113h-35l104 137h43z" />
<glyph unicode="&#xeb;" horiz-adv-x="568" d="M465 138h38c-25 -94 -105 -153 -210 -153c-138 0 -243 99 -243 275c0 177 102 275 231 275s232 -92 232 -284h-426c4 -161 95 -235 207 -235c84 0 150 44 171 122zM281 505c-103 0 -187 -78 -194 -223h388c-7 148 -90 223 -194 223zM206 663h-46v57h46v-57zM402 663h-46 v57h46v-57z" />
<glyph unicode="&#xec;" horiz-adv-x="184" d="M110 0h-36v520h36v-520zM37 735l103 -137h-34l-122 137h53z" />
<glyph unicode="&#xed;" horiz-adv-x="184" d="M110 0h-36v520h36v-520zM44 598l103 137h53l-122 -137h-34z" />
<glyph unicode="&#xee;" horiz-adv-x="184" d="M110 0h-36v520h36v-520zM114 735l103 -137h-34l-91 113l-90 -113h-35l104 137h43z" />
<glyph unicode="&#xef;" horiz-adv-x="184" d="M110 0h-36v520h36v-520zM17 663h-46v57h46v-57zM213 663h-46v57h46v-57z" />
<glyph unicode="&#xf0;" horiz-adv-x="536" d="M133 696l9 29c53 -10 115 -29 172 -66l58 61h43l-75 -79c81 -62 146 -163 146 -328c0 -184 -52 -328 -226 -328c-132 0 -210 107 -210 252c0 131 71 241 205 241c111 0 174 -71 194 -143c-5 144 -59 231 -130 284l-60 -63h-43l77 81c-51 32 -108 48 -160 59zM261 446 c-96 0 -174 -61 -174 -212c0 -122 65 -216 173 -216c127 0 186 99 186 221c0 96 -61 207 -185 207z" />
<glyph unicode="&#xf1;" horiz-adv-x="547" d="M116 0h-36v520h30l5 -99c34 74 104 114 179 114c108 0 178 -68 178 -175v-360h-36v358c0 91 -55 147 -150 147c-81 0 -170 -70 -170 -181v-324zM337 633c-53 0 -65 32 -107 32c-23 0 -44 -9 -73 -32v36c27 20 46 29 74 29c53 0 65 -32 107 -32c23 0 44 9 73 32v-36 c-27 -20 -46 -29 -74 -29z" />
<glyph unicode="&#xf2;" horiz-adv-x="565" d="M87 260c0 -163 86 -245 196 -245c113 0 195 82 195 245c0 164 -82 245 -195 245s-196 -82 -196 -245zM50 260c0 181 100 275 233 275c136 0 232 -95 232 -275c0 -181 -98 -275 -230 -275c-133 0 -235 96 -235 275zM216 735l103 -137h-34l-122 137h53z" />
<glyph unicode="&#xf3;" horiz-adv-x="565" d="M87 260c0 -163 86 -245 196 -245c113 0 195 82 195 245c0 164 -82 245 -195 245s-196 -82 -196 -245zM50 260c0 181 100 275 233 275c136 0 232 -95 232 -275c0 -181 -98 -275 -230 -275c-133 0 -235 96 -235 275zM245 598l103 137h53l-122 -137h-34z" />
<glyph unicode="&#xf4;" horiz-adv-x="565" d="M87 260c0 -163 86 -245 196 -245c113 0 195 82 195 245c0 164 -82 245 -195 245s-196 -82 -196 -245zM50 260c0 181 100 275 233 275c136 0 232 -95 232 -275c0 -181 -98 -275 -230 -275c-133 0 -235 96 -235 275zM305 735l103 -137h-34l-91 113l-90 -113h-35l104 137h43 z" />
<glyph unicode="&#xf5;" horiz-adv-x="565" d="M87 260c0 -163 86 -245 196 -245c113 0 195 82 195 245c0 164 -82 245 -195 245s-196 -82 -196 -245zM50 260c0 181 100 275 233 275c136 0 232 -95 232 -275c0 -181 -98 -275 -230 -275c-133 0 -235 96 -235 275zM335 633c-53 0 -65 32 -107 32c-23 0 -44 -9 -73 -32v36 c27 20 46 29 74 29c53 0 65 -32 107 -32c23 0 44 9 73 32v-36c-27 -20 -46 -29 -74 -29z" />
<glyph unicode="&#xf6;" horiz-adv-x="565" d="M87 260c0 -163 86 -245 196 -245c113 0 195 82 195 245c0 164 -82 245 -195 245s-196 -82 -196 -245zM50 260c0 181 100 275 233 275c136 0 232 -95 232 -275c0 -181 -98 -275 -230 -275c-133 0 -235 96 -235 275zM208 663h-46v57h46v-57zM404 663h-46v57h46v-57z" />
<glyph unicode="&#xf7;" d="M325 64h-50v64h50v-64zM325 516h-50v64h50v-64zM500 339v-34h-400v34h400z" />
<glyph unicode="&#xf8;" horiz-adv-x="565" d="M50 260c0 181 100 275 233 275c35 0 67 -6 96 -19l51 114h36l-58 -129c66 -43 107 -124 107 -241c0 -181 -98 -275 -230 -275c-36 0 -69 7 -99 20l-51 -115h-36l58 131c-65 43 -107 124 -107 239zM283 15c113 0 195 82 195 245c0 102 -32 172 -84 210l-195 -437 c25 -12 53 -18 84 -18zM87 260c0 -101 33 -171 84 -209l195 436c-25 12 -53 18 -83 18c-113 0 -196 -82 -196 -245z" />
<glyph unicode="&#xf9;" horiz-adv-x="542" d="M75 520h36v-356c0 -99 58 -149 148 -149c93 0 167 79 167 185v320h36v-520h-30l-5 93c-36 -75 -110 -108 -176 -108c-100 0 -176 59 -176 177v358zM206 735l103 -137h-34l-122 137h53z" />
<glyph unicode="&#xfa;" horiz-adv-x="542" d="M75 520h36v-356c0 -99 58 -149 148 -149c93 0 167 79 167 185v320h36v-520h-30l-5 93c-36 -75 -110 -108 -176 -108c-100 0 -176 59 -176 177v358zM228 598l103 137h53l-122 -137h-34z" />
<glyph unicode="&#xfb;" horiz-adv-x="542" d="M75 520h36v-356c0 -99 58 -149 148 -149c93 0 167 79 167 185v320h36v-520h-30l-5 93c-36 -75 -110 -108 -176 -108c-100 0 -176 59 -176 177v358zM291 735l103 -137h-34l-91 113l-90 -113h-35l104 137h43z" />
<glyph unicode="&#xfc;" horiz-adv-x="542" d="M75 520h36v-356c0 -99 58 -149 148 -149c93 0 167 79 167 185v320h36v-520h-30l-5 93c-36 -75 -110 -108 -176 -108c-100 0 -176 59 -176 177v358zM194 663h-46v57h46v-57zM390 663h-46v57h46v-57z" />
<glyph unicode="&#xfd;" horiz-adv-x="490" d="M470 520l-186 -523c-55 -153 -70 -192 -136 -192c-17 0 -37 5 -51 10v30c17 -6 37 -10 52 -10c44 0 58 39 100 165h-17l-212 520h39l200 -494l174 494h37zM196 598l103 137h53l-122 -137h-34z" />
<glyph unicode="&#xfe;" horiz-adv-x="568" d="M116 -180h-36v900h36v-307c32 71 97 122 187 122c125 0 215 -86 215 -268c0 -186 -96 -282 -218 -282c-88 0 -152 48 -184 119v-284zM481 268c0 163 -77 237 -184 237c-89 0 -185 -63 -185 -247c0 -164 78 -243 183 -243c104 0 186 82 186 253z" />
<glyph unicode="&#xff;" horiz-adv-x="490" d="M470 520l-186 -523c-55 -153 -70 -192 -136 -192c-17 0 -37 5 -51 10v30c17 -6 37 -10 52 -10c44 0 58 39 100 165h-17l-212 520h39l200 -494l174 494h37zM174 663h-46v57h46v-57zM370 663h-46v57h46v-57z" />
<glyph unicode="&#x100;" horiz-adv-x="642" d="M632 0h-41l-84 213h-373l-85 -213h-39l286 720h51zM322 686l-176 -441h349zM436 831h-230v32h230v-32z" />
<glyph unicode="&#x101;" horiz-adv-x="520" d="M103 390h-36c8 86 85 145 193 145s185 -62 185 -167v-368h-29l-6 93c-31 -57 -92 -108 -188 -108s-172 51 -172 146c0 87 53 140 201 165l158 26v53c0 79 -57 130 -151 130c-87 0 -148 -48 -155 -115zM409 183v109l-144 -24c-138 -23 -178 -66 -178 -135 c0 -79 61 -117 145 -117c87 0 177 67 177 167zM372 661h-230v32h230v-32z" />
<glyph unicode="&#x102;" horiz-adv-x="642" d="M632 0h-41l-84 213h-373l-85 -213h-39l286 720h51zM322 686l-176 -441h349zM321 758c-78 1 -123 52 -128 132h33c3 -55 30 -103 95 -103s92 48 95 103h33c-5 -80 -50 -131 -128 -132z" />
<glyph unicode="&#x103;" horiz-adv-x="520" d="M103 390h-36c8 86 85 145 193 145s185 -62 185 -167v-368h-29l-6 93c-31 -57 -92 -108 -188 -108s-172 51 -172 146c0 87 53 140 201 165l158 26v53c0 79 -57 130 -151 130c-87 0 -148 -48 -155 -115zM409 183v109l-144 -24c-138 -23 -178 -66 -178 -135 c0 -79 61 -117 145 -117c87 0 177 67 177 167zM254 588c-78 1 -123 52 -128 132h33c3 -55 30 -103 95 -103s92 48 95 103h33c-5 -80 -50 -131 -128 -132z" />
<glyph unicode="&#x104;" horiz-adv-x="642" d="M632 0c-69 -34 -118 -73 -118 -128c0 -40 28 -72 85 -72c42 0 61 14 75 45h36c-19 -53 -58 -78 -114 -78c-69 0 -118 44 -118 106c0 56 47 100 112 129l-83 211h-373l-85 -213h-39l286 720h51zM322 686l-176 -441h349z" />
<glyph unicode="&#x105;" horiz-adv-x="520" d="M103 390h-36c8 86 85 145 193 145s185 -62 185 -167v-368c-69 -34 -118 -73 -118 -128c0 -40 28 -72 85 -72c42 0 61 14 75 45h36c-19 -53 -58 -78 -114 -78c-69 0 -118 44 -118 106c0 59 54 106 124 135l-5 85c-31 -57 -92 -108 -188 -108s-172 51 -172 146 c0 87 53 140 201 165l158 26v53c0 79 -57 130 -151 130c-87 0 -148 -48 -155 -115zM232 16c85 0 177 70 177 159v117l-144 -24c-138 -23 -178 -66 -178 -135c0 -79 61 -117 145 -117z" />
<glyph unicode="&#x106;" horiz-adv-x="715" d="M378 -15c-191 0 -323 146 -323 367c0 248 141 383 319 383c149 0 266 -77 291 -226h-36c-27 129 -124 193 -255 193c-158 0 -281 -126 -281 -350c0 -206 123 -334 285 -334c134 0 230 78 249 215h37c-18 -141 -124 -248 -286 -248zM331 768l103 137h53l-122 -137h-34z " />
<glyph unicode="&#x107;" horiz-adv-x="534" d="M447 147h37c-17 -95 -99 -162 -209 -162c-126 0 -225 93 -225 271c0 188 105 279 227 279c108 0 187 -62 204 -155h-38c-13 75 -78 125 -165 125c-106 0 -192 -81 -192 -251c0 -163 88 -238 191 -238c88 0 157 55 170 131zM251 598l103 137h53l-122 -137h-34z" />
<glyph unicode="&#x108;" horiz-adv-x="715" d="M378 -15c-191 0 -323 146 -323 367c0 248 141 383 319 383c149 0 266 -77 291 -226h-36c-27 129 -124 193 -255 193c-158 0 -281 -126 -281 -350c0 -206 123 -334 285 -334c134 0 230 78 249 215h37c-18 -141 -124 -248 -286 -248zM382 905l103 -137h-34l-91 113 l-90 -113h-35l104 137h43z" />
<glyph unicode="&#x109;" horiz-adv-x="534" d="M447 147h37c-17 -95 -99 -162 -209 -162c-126 0 -225 93 -225 271c0 188 105 279 227 279c108 0 187 -62 204 -155h-38c-13 75 -78 125 -165 125c-106 0 -192 -81 -192 -251c0 -163 88 -238 191 -238c88 0 157 55 170 131zM289 735l103 -137h-34l-91 113l-90 -113h-35 l104 137h43z" />
<glyph unicode="&#x10a;" horiz-adv-x="715" d="M378 -15c-191 0 -323 146 -323 367c0 248 141 383 319 383c149 0 266 -77 291 -226h-36c-27 129 -124 193 -255 193c-158 0 -281 -126 -281 -350c0 -206 123 -334 285 -334c134 0 230 78 249 215h37c-18 -141 -124 -248 -286 -248zM397 833h-46v57h46v-57z" />
<glyph unicode="&#x10b;" horiz-adv-x="534" d="M447 147h37c-17 -95 -99 -162 -209 -162c-126 0 -225 93 -225 271c0 188 105 279 227 279c108 0 187 -62 204 -155h-38c-13 75 -78 125 -165 125c-106 0 -192 -81 -192 -251c0 -163 88 -238 191 -238c88 0 157 55 170 131zM297 663h-46v57h46v-57z" />
<glyph unicode="&#x10c;" horiz-adv-x="715" d="M378 -15c-191 0 -323 146 -323 367c0 248 141 383 319 383c149 0 266 -77 291 -226h-36c-27 129 -124 193 -255 193c-158 0 -281 -126 -281 -350c0 -206 123 -334 285 -334c134 0 230 78 249 215h37c-18 -141 -124 -248 -286 -248zM336 768l-103 137h34l91 -113l90 113 h35l-104 -137h-43z" />
<glyph unicode="&#x10d;" horiz-adv-x="534" d="M447 147h37c-17 -95 -99 -162 -209 -162c-126 0 -225 93 -225 271c0 188 105 279 227 279c108 0 187 -62 204 -155h-38c-13 75 -78 125 -165 125c-106 0 -192 -81 -192 -251c0 -163 88 -238 191 -238c88 0 157 55 170 131zM252 598l-103 137h34l91 -113l90 113h35 l-104 -137h-43z" />
<glyph unicode="&#x10e;" horiz-adv-x="674" d="M85 720h190c201 0 344 -131 344 -360c0 -227 -149 -360 -345 -360h-189v720zM277 687h-155v-654h157c172 0 302 115 302 327c0 213 -131 327 -304 327zM271 768l-103 137h34l91 -113l90 113h35l-104 -137h-43z" />
<glyph unicode="&#x10f;" horiz-adv-x="611" d="M488 0h-29l-6 110c-32 -73 -97 -125 -187 -125c-116 0 -216 87 -216 269c0 189 100 281 218 281c86 0 152 -48 184 -118v303h36v-720zM87 255c0 -164 83 -240 185 -240c87 0 184 63 184 247c0 164 -80 243 -183 243c-100 0 -186 -80 -186 -250zM601 720v-61 c0 -61 -24 -92 -76 -110v24c32 15 42 38 42 83h-16v64h50z" />
<glyph unicode="&#x110;" horiz-adv-x="674" d="M85 0v362h-60v33h60v325h190c201 0 344 -131 344 -360c0 -227 -149 -360 -345 -360h-189zM360 395v-33h-238v-329h157c172 0 302 115 302 327c0 213 -131 327 -304 327h-155v-292h238z" />
<glyph unicode="&#x111;" horiz-adv-x="568" d="M488 0h-29l-6 110c-32 -73 -97 -125 -187 -125c-116 0 -216 87 -216 269c0 189 100 281 218 281c86 0 152 -48 184 -118v203h-185v31h185v69h36v-69h50v-31h-50v-620zM87 255c0 -164 83 -240 185 -240c87 0 184 63 184 247c0 164 -80 243 -183 243 c-100 0 -186 -80 -186 -250z" />
<glyph unicode="&#x112;" horiz-adv-x="561" d="M472 383v-33h-350v-317h379v-33h-416v720h416v-33h-379v-304h350zM404 831h-230v32h230v-32z" />
<glyph unicode="&#x113;" horiz-adv-x="568" d="M465 138h38c-25 -94 -105 -153 -210 -153c-138 0 -243 99 -243 275c0 177 102 275 231 275s232 -92 232 -284h-426c4 -161 95 -235 207 -235c84 0 150 44 171 122zM281 505c-103 0 -187 -78 -194 -223h388c-7 148 -90 223 -194 223zM395 661h-230v32h230v-32z" />
<glyph unicode="&#x116;" horiz-adv-x="561" d="M472 383v-33h-350v-317h379v-33h-416v720h416v-33h-379v-304h350zM311 833h-46v57h46v-57z" />
<glyph unicode="&#x117;" horiz-adv-x="568" d="M465 138h38c-25 -94 -105 -153 -210 -153c-138 0 -243 99 -243 275c0 177 102 275 231 275s232 -92 232 -284h-426c4 -161 95 -235 207 -235c84 0 150 44 171 122zM281 505c-103 0 -187 -78 -194 -223h388c-7 148 -90 223 -194 223zM302 663h-46v57h46v-57z" />
<glyph unicode="&#x118;" horiz-adv-x="561" d="M472 383v-33h-350v-317h379v-33h-114c-70 -35 -121 -75 -121 -132c0 -48 30 -73 77 -73c42 0 70 22 82 56h35c-17 -55 -66 -86 -119 -86c-64 0 -108 38 -108 100c0 55 47 103 111 135h-259v720h416v-33h-379v-304h350z" />
<glyph unicode="&#x119;" horiz-adv-x="568" d="M414 -149h35c-17 -55 -66 -86 -119 -86c-64 0 -108 38 -108 100c0 47 35 90 85 121c-5 -1 -9 -1 -14 -1c-138 0 -243 99 -243 275c0 177 102 275 231 275s232 -92 232 -284h-426c4 -161 95 -235 207 -235c84 0 150 44 171 122h38c-14 -53 -45 -95 -86 -120 c-15 -9 -31 -16 -49 -21c-66 -34 -113 -74 -113 -129c0 -48 30 -73 77 -73c42 0 70 22 82 56zM281 505c-103 0 -187 -78 -194 -223h388c-7 148 -90 223 -194 223z" />
<glyph unicode="&#x11a;" horiz-adv-x="561" d="M472 383v-33h-350v-317h379v-33h-416v720h416v-33h-379v-304h350zM271 768l-103 137h34l91 -113l90 113h35l-104 -137h-43z" />
<glyph unicode="&#x11b;" horiz-adv-x="568" d="M465 138h38c-25 -94 -105 -153 -210 -153c-138 0 -243 99 -243 275c0 177 102 275 231 275s232 -92 232 -284h-426c4 -161 95 -235 207 -235c84 0 150 44 171 122zM281 505c-103 0 -187 -78 -194 -223h388c-7 148 -90 223 -194 223zM263 598l-103 137h34l91 -113l90 113 h35l-104 -137h-43z" />
<glyph unicode="&#x11c;" horiz-adv-x="728" d="M651 374v-374h-27l-5 132c-43 -92 -132 -147 -241 -147c-176 0 -323 128 -323 374s140 376 318 376c147 0 250 -73 281 -205h-38c-31 115 -118 172 -243 172c-145 0 -280 -110 -280 -343c0 -224 134 -341 285 -341c132 0 241 93 241 217v106h-243v33h275zM385 905 l103 -137h-34l-91 113l-90 -113h-35l104 137h43z" />
<glyph unicode="&#x11d;" horiz-adv-x="568" d="M72 -54h38c15 -78 85 -111 168 -111c108 0 174 66 174 165v133c-32 -66 -96 -113 -185 -113c-114 0 -217 88 -217 253c0 170 99 262 218 262c85 0 153 -45 185 -115l6 100h29v-520c0 -111 -79 -195 -209 -195c-110 0 -188 49 -207 141zM87 274c0 -147 83 -224 186 -224 c90 0 183 54 183 227c0 157 -81 228 -184 228c-100 0 -185 -73 -185 -231zM299 735l103 -137h-34l-91 113l-90 -113h-35l104 137h43z" />
<glyph unicode="&#x11e;" horiz-adv-x="728" d="M651 374v-374h-27l-5 132c-43 -92 -132 -147 -241 -147c-176 0 -323 128 -323 374s140 376 318 376c147 0 250 -73 281 -205h-38c-31 115 -118 172 -243 172c-145 0 -280 -110 -280 -343c0 -224 134 -341 285 -341c132 0 241 93 241 217v106h-243v33h275zM365 758 c-78 1 -123 52 -128 132h33c3 -55 30 -103 95 -103s92 48 95 103h33c-5 -80 -50 -131 -128 -132z" />
<glyph unicode="&#x11f;" horiz-adv-x="568" d="M72 -54h38c15 -78 85 -111 168 -111c108 0 174 66 174 165v133c-32 -66 -96 -113 -185 -113c-114 0 -217 88 -217 253c0 170 99 262 218 262c85 0 153 -45 185 -115l6 100h29v-520c0 -111 -79 -195 -209 -195c-110 0 -188 49 -207 141zM87 274c0 -147 83 -224 186 -224 c90 0 183 54 183 227c0 157 -81 228 -184 228c-100 0 -185 -73 -185 -231zM274 588c-78 1 -123 52 -128 132h33c3 -55 30 -103 95 -103s92 48 95 103h33c-5 -80 -50 -131 -128 -132z" />
<glyph unicode="&#x120;" horiz-adv-x="728" d="M651 374v-374h-27l-5 132c-43 -92 -132 -147 -241 -147c-176 0 -323 128 -323 374s140 376 318 376c147 0 250 -73 281 -205h-38c-31 115 -118 172 -243 172c-145 0 -280 -110 -280 -343c0 -224 134 -341 285 -341c132 0 241 93 241 217v106h-243v33h275zM386 833h-46v57 h46v-57z" />
<glyph unicode="&#x121;" horiz-adv-x="568" d="M72 -54h38c15 -78 85 -111 168 -111c108 0 174 66 174 165v133c-32 -66 -96 -113 -185 -113c-114 0 -217 88 -217 253c0 170 99 262 218 262c85 0 153 -45 185 -115l6 100h29v-520c0 -111 -79 -195 -209 -195c-110 0 -188 49 -207 141zM87 274c0 -147 83 -224 186 -224 c90 0 183 54 183 227c0 157 -81 228 -184 228c-100 0 -185 -73 -185 -231zM293 663h-46v57h46v-57z" />
<glyph unicode="&#x122;" horiz-adv-x="728" d="M651 374v-374h-27l-5 132c-43 -92 -132 -147 -241 -147c-176 0 -323 128 -323 374s140 376 318 376c147 0 250 -73 281 -205h-38c-31 115 -118 172 -243 172c-145 0 -280 -110 -280 -343c0 -224 134 -341 285 -341c132 0 241 93 241 217v106h-243v33h275zM394 -90v-61 c0 -63 -24 -99 -76 -117v23c32 15 44 46 44 91h-14v64h46z" />
<glyph unicode="&#x123;" horiz-adv-x="568" d="M72 -54h38c15 -78 85 -111 168 -111c108 0 174 66 174 165v133c-32 -66 -96 -113 -185 -113c-114 0 -217 88 -217 253c0 170 99 262 218 262c85 0 153 -45 185 -115l6 100h29v-520c0 -111 -79 -195 -209 -195c-110 0 -188 49 -207 141zM87 274c0 -147 83 -224 186 -224 c90 0 183 54 183 227c0 157 -81 228 -184 228c-100 0 -185 -73 -185 -231zM236 610v61c0 65 24 102 76 120v-24c-32 -15 -42 -48 -42 -93h16v-64h-50z" />
<glyph unicode="&#x124;" horiz-adv-x="676" d="M554 720h37v-720h-37v351h-432v-351h-37v720h37v-335h432v335zM360 905l103 -137h-34l-91 113l-90 -113h-35l104 137h43z" />
<glyph unicode="&#x125;" horiz-adv-x="547" d="M116 0h-36v720h36v-298c33 73 103 113 178 113c108 0 178 -68 178 -175v-360h-36v358c0 91 -55 147 -150 147c-81 0 -170 -71 -170 -182v-323zM240 905l103 -137h-34l-91 113l-90 -113h-35l104 137h43z" />
<glyph unicode="&#x126;" horiz-adv-x="676" d="M85 720h37v-115h432v115h37v-115h60v-31h-60v-574h-37v351h-432v-351h-37v574h-60v31h60v115zM122 385h432v189h-432v-189z" />
<glyph unicode="&#x127;" horiz-adv-x="547" d="M116 0h-36v620h-54v31h54v69h36v-69h181v-31h-181v-198c33 73 103 113 178 113c108 0 178 -68 178 -175v-360h-36v358c0 91 -55 147 -150 147c-81 0 -170 -70 -170 -181v-324z" />
<glyph unicode="&#x128;" horiz-adv-x="207" d="M85 720h37v-720h-37v720zM156 803c-53 0 -65 32 -107 32c-23 0 -44 -9 -73 -32v36c27 20 46 29 74 29c53 0 65 -32 107 -32c23 0 44 9 73 32v-36c-27 -20 -46 -29 -74 -29z" />
<glyph unicode="&#x129;" horiz-adv-x="184" d="M110 0h-36v520h36v-520zM145 633c-53 0 -65 32 -107 32c-23 0 -44 -9 -73 -32v36c27 20 46 29 74 29c53 0 65 -32 107 -32c23 0 44 9 73 32v-36c-27 -20 -46 -29 -74 -29z" />
<glyph unicode="&#x12a;" horiz-adv-x="207" d="M85 720h37v-720h-37v720zM218 831h-230v32h230v-32z" />
<glyph unicode="&#x12b;" horiz-adv-x="184" d="M110 0h-36v520h36v-520zM207 661h-230v32h230v-32z" />
<glyph unicode="&#x12e;" horiz-adv-x="207" d="M159 -149h35c-17 -55 -66 -86 -119 -86c-64 0 -108 38 -108 100c0 57 51 107 118 138v717h37v-720c-70 -35 -122 -75 -122 -132c0 -48 30 -73 77 -73c42 0 70 22 82 56z" />
<glyph unicode="&#x12f;" horiz-adv-x="184" d="M146 -149h35c-17 -55 -66 -86 -119 -86c-64 0 -108 38 -108 100c0 57 52 108 120 139v516h36v-520c-70 -35 -123 -75 -123 -132c0 -48 30 -73 77 -73c42 0 70 22 82 56zM115 663h-46v57h46v-57z" />
<glyph unicode="&#x130;" horiz-adv-x="207" d="M85 720h37v-720h-37v720zM126 833h-46v57h46v-57z" />
<glyph unicode="&#x131;" horiz-adv-x="184" d="M110 0h-36v520h36v-520z" />
<glyph unicode="&#x134;" horiz-adv-x="517" d="M35 186h36c5 -109 71 -168 167 -168c100 0 162 62 162 178v524h37v-523c0 -126 -76 -212 -199 -212c-124 0 -198 80 -203 201zM435 905l103 -137h-34l-91 113l-90 -113h-35l104 137h43z" />
<glyph unicode="&#x135;" horiz-adv-x="184" d="M-59 -184v32c21 -7 48 -11 65 -11c44 0 68 24 68 88v595h36v-597c0 -78 -36 -118 -99 -118c-22 0 -45 3 -70 11zM113 735l103 -137h-34l-91 113l-90 -113h-35l104 137h43z" />
<glyph unicode="&#x136;" horiz-adv-x="580" d="M565 0h-50l-393 360v-360h-37v720h37v-341l369 341h45l-373 -348zM316 -90v-61c0 -63 -24 -99 -76 -117v23c32 15 44 46 44 91h-14v64h46z" />
<glyph unicode="&#x137;" horiz-adv-x="474" d="M116 0h-36v720h36v-416l268 216h50l-281 -227l316 -293h-49l-304 280v-280zM273 -90v-61c0 -63 -24 -99 -76 -117v23c32 15 44 46 44 91h-14v64h46z" />
<glyph unicode="&#x138;" horiz-adv-x="474" d="M116 0h-36v520h36v-239l273 239h45l-281 -247l316 -273h-48l-305 262v-262z" />
<glyph unicode="&#x139;" horiz-adv-x="546" d="M85 720h37v-687h379v-33h-416v720zM59 768l103 137h53l-122 -137h-34z" />
<glyph unicode="&#x13a;" horiz-adv-x="196" d="M116 720v-720h-36v720h36zM50 768l103 137h53l-122 -137h-34z" />
<glyph unicode="&#x13b;" horiz-adv-x="546" d="M85 720h37v-687h379v-33h-416v720zM307 -90v-61c0 -63 -24 -99 -76 -117v23c32 15 44 46 44 91h-14v64h46z" />
<glyph unicode="&#x13c;" horiz-adv-x="196" d="M116 720v-720h-36v720h36zM123 -90v-61c0 -63 -24 -99 -76 -117v23c32 15 44 46 44 91h-14v64h46z" />
<glyph unicode="&#x13d;" horiz-adv-x="546" d="M85 720h37v-687h379v-33h-416v720zM284 720v-61c0 -61 -24 -92 -76 -110v24c32 15 42 38 42 83h-16v64h50z" />
<glyph unicode="&#x13e;" horiz-adv-x="196" d="M116 720v-720h-36v720h36zM232 720v-61c0 -61 -24 -92 -76 -110v24c32 15 42 38 42 83h-16v64h50z" />
<glyph unicode="&#x141;" horiz-adv-x="546" d="M85 720h37v-329l156 95v-41l-156 -95v-315h379v-35h-416v328l-61 -37v41l61 37v351z" />
<glyph unicode="&#x142;" horiz-adv-x="196" d="M116 720v-307l77 49v-40l-77 -49v-373h-36v350l-77 -49v40l77 49v330h36z" />
<glyph unicode="&#x143;" horiz-adv-x="709" d="M590 720h34v-720h-39l-464 668v-668h-36v720h41l464 -663v663zM308 768l103 137h53l-122 -137h-34z" />
<glyph unicode="&#x144;" horiz-adv-x="547" d="M116 0h-36v520h30l5 -99c34 74 104 114 179 114c108 0 178 -68 178 -175v-360h-36v358c0 91 -55 147 -150 147c-81 0 -170 -70 -170 -181v-324zM236 598l103 137h53l-122 -137h-34z" />
<glyph unicode="&#x145;" horiz-adv-x="709" d="M590 720h34v-720h-39l-464 668v-668h-36v720h41l464 -663v663zM384 -90v-61c0 -63 -24 -99 -76 -117v23c32 15 44 46 44 91h-14v64h46z" />
<glyph unicode="&#x146;" horiz-adv-x="547" d="M116 0h-36v520h30l5 -99c34 74 104 114 179 114c108 0 178 -68 178 -175v-360h-36v358c0 91 -55 147 -150 147c-81 0 -170 -70 -170 -181v-324zM309 -90v-61c0 -63 -24 -99 -76 -117v23c32 15 44 46 44 91h-14v64h46z" />
<glyph unicode="&#x147;" horiz-adv-x="709" d="M590 720h34v-720h-39l-464 668v-668h-36v720h41l464 -663v663zM345 768l-103 137h34l91 -113l90 113h35l-104 -137h-43z" />
<glyph unicode="&#x148;" horiz-adv-x="547" d="M116 0h-36v520h30l5 -99c34 74 104 114 179 114c108 0 178 -68 178 -175v-360h-36v358c0 91 -55 147 -150 147c-81 0 -170 -70 -170 -181v-324zM260 598l-103 137h34l91 -113l90 113h35l-104 -137h-43z" />
<glyph unicode="&#x14a;" horiz-adv-x="709" d="M456 -184v32c21 -7 48 -11 65 -11c44 0 69 24 69 88v72l-469 671v-668h-36v720h41l464 -660v660h34v-797c0 -78 -35 -118 -98 -118c-22 0 -45 3 -70 11z" />
<glyph unicode="&#x14b;" horiz-adv-x="547" d="M116 0h-36v520h30l5 -99c34 74 104 114 179 114c108 0 178 -68 178 -175v-437c0 -78 -36 -118 -99 -118c-22 0 -45 3 -70 11v32c21 -7 48 -11 65 -11c44 0 68 24 68 88v433c0 91 -55 147 -150 147c-81 0 -170 -69 -170 -180v-325z" />
<glyph unicode="&#x14c;" horiz-adv-x="744" d="M372 18c147 0 279 106 279 341c0 223 -122 343 -279 343s-279 -120 -279 -343c0 -230 132 -341 279 -341zM372 -15c-176 0 -317 134 -317 374c0 242 142 376 317 376s317 -134 317 -376c0 -245 -141 -374 -317 -374zM486 831h-230v32h230v-32z" />
<glyph unicode="&#x14d;" horiz-adv-x="565" d="M87 260c0 -163 86 -245 196 -245c113 0 195 82 195 245c0 164 -82 245 -195 245s-196 -82 -196 -245zM50 260c0 181 100 275 233 275c136 0 232 -95 232 -275c0 -181 -98 -275 -230 -275c-133 0 -235 96 -235 275zM397 661h-230v32h230v-32z" />
<glyph unicode="&#x150;" horiz-adv-x="744" d="M372 18c147 0 279 106 279 341c0 223 -122 343 -279 343s-279 -120 -279 -343c0 -230 132 -341 279 -341zM372 -15c-176 0 -317 134 -317 374c0 242 142 376 317 376s317 -134 317 -376c0 -245 -141 -374 -317 -374zM274 768l75 137h51l-94 -137h-32zM427 768l75 137h51 l-94 -137h-32z" />
<glyph unicode="&#x151;" horiz-adv-x="565" d="M87 260c0 -163 86 -245 196 -245c113 0 195 82 195 245c0 164 -82 245 -195 245s-196 -82 -196 -245zM50 260c0 181 100 275 233 275c136 0 232 -95 232 -275c0 -181 -98 -275 -230 -275c-133 0 -235 96 -235 275zM188 598l75 137h51l-94 -137h-32zM341 598l75 137h51 l-94 -137h-32z" />
<glyph unicode="&#x152;" horiz-adv-x="927" d="M867 33v-33h-396c-30 -7 -66 -10 -99 -10c-180 0 -317 133 -317 372c0 245 143 373 322 373c33 0 66 -6 97 -15h393v-33h-359v-304h330v-33h-330v-317h359zM372 23c32 0 69 3 99 12v652c-29 10 -61 15 -94 15c-161 0 -284 -120 -284 -340c0 -229 127 -339 279 -339z" />
<glyph unicode="&#x153;" horiz-adv-x="995" d="M939 251h-426c5 -162 109 -235 207 -235c74 0 148 41 171 127h38c-26 -99 -111 -158 -210 -158c-94 0 -185 60 -223 165c-32 -98 -109 -165 -211 -165c-133 0 -235 101 -235 275c0 176 100 275 233 275c104 0 181 -66 213 -163c37 102 124 163 211 163 c113 0 230 -76 232 -284zM87 260c0 -158 86 -245 196 -245c108 0 195 85 195 245s-86 245 -195 245c-113 0 -196 -87 -196 -245zM707 505c-98 0 -186 -83 -194 -223h388c-7 144 -87 223 -194 223z" />
<glyph unicode="&#x154;" horiz-adv-x="619" d="M599 0h-46l-201 305h-230v-305h-37v720h251c154 0 239 -80 239 -211c0 -103 -78 -175 -183 -199zM339 687h-217v-349h212c125 0 202 72 202 171c0 112 -69 178 -197 178zM256 768l103 137h53l-122 -137h-34z" />
<glyph unicode="&#x155;" horiz-adv-x="334" d="M116 0h-36v520h29l6 -110c27 87 84 125 152 125c19 0 40 -4 52 -8v-35c-17 5 -35 9 -55 9c-80 0 -148 -84 -148 -207v-294zM162 598l103 137h53l-122 -137h-34z" />
<glyph unicode="&#x156;" horiz-adv-x="619" d="M599 0h-46l-201 305h-230v-305h-37v720h251c154 0 239 -80 239 -211c0 -103 -78 -175 -183 -199zM339 687h-217v-349h212c125 0 202 72 202 171c0 112 -69 178 -197 178zM326 -90v-61c0 -63 -24 -99 -76 -117v23c32 15 44 46 44 91h-14v64h46z" />
<glyph unicode="&#x157;" horiz-adv-x="334" d="M116 0h-36v520h29l6 -110c27 87 84 125 152 125c19 0 40 -4 52 -8v-35c-17 5 -35 9 -55 9c-80 0 -148 -84 -148 -207v-294zM123 -90v-61c0 -63 -24 -99 -76 -117v23c32 15 44 46 44 91h-14v64h46z" />
<glyph unicode="&#x158;" horiz-adv-x="619" d="M599 0h-46l-201 305h-230v-305h-37v720h251c154 0 239 -80 239 -211c0 -103 -78 -175 -183 -199zM339 687h-217v-349h212c125 0 202 72 202 171c0 112 -69 178 -197 178zM262 768l-103 137h34l91 -113l90 113h35l-104 -137h-43z" />
<glyph unicode="&#x159;" horiz-adv-x="334" d="M116 0h-36v520h29l6 -110c27 87 84 125 152 125c19 0 40 -4 52 -8v-35c-17 5 -35 9 -55 9c-80 0 -148 -84 -148 -207v-294zM168 598l-103 137h34l91 -113l90 113h35l-104 -137h-43z" />
<glyph unicode="&#x15a;" horiz-adv-x="643" d="M322 19c145 0 225 62 225 161c0 96 -50 147 -245 186c-161 32 -224 94 -224 195c0 102 83 174 244 174c137 0 241 -65 266 -173h-38c-22 87 -107 140 -226 140c-140 0 -208 -57 -208 -138c0 -85 45 -134 211 -168c189 -39 258 -101 258 -215c0 -113 -92 -196 -264 -196 c-146 0 -251 67 -276 191h39c22 -107 118 -157 238 -157zM280 768l103 137h53l-122 -137h-34z" />
<glyph unicode="&#x15b;" horiz-adv-x="491" d="M403 136c0 69 -50 103 -179 123c-98 15 -168 58 -168 142c0 73 60 134 184 134c105 0 184 -56 199 -140h-38c-8 62 -75 110 -164 110c-99 0 -144 -47 -144 -101c0 -64 40 -96 156 -116c138 -24 192 -68 192 -151c0 -78 -74 -152 -198 -152c-119 0 -190 62 -203 148h38 c7 -68 70 -117 166 -117c103 0 159 58 159 120zM211 598l103 137h53l-122 -137h-34z" />
<glyph unicode="&#x15c;" horiz-adv-x="643" d="M322 19c145 0 225 62 225 161c0 96 -50 147 -245 186c-161 32 -224 94 -224 195c0 102 83 174 244 174c137 0 241 -65 266 -173h-38c-22 87 -107 140 -226 140c-140 0 -208 -57 -208 -138c0 -85 45 -134 211 -168c189 -39 258 -101 258 -215c0 -113 -92 -196 -264 -196 c-146 0 -251 67 -276 191h39c22 -107 118 -157 238 -157zM339 905l103 -137h-34l-91 113l-90 -113h-35l104 137h43z" />
<glyph unicode="&#x15d;" horiz-adv-x="491" d="M403 136c0 69 -50 103 -179 123c-98 15 -168 58 -168 142c0 73 60 134 184 134c105 0 184 -56 199 -140h-38c-8 62 -75 110 -164 110c-99 0 -144 -47 -144 -101c0 -64 40 -96 156 -116c138 -24 192 -68 192 -151c0 -78 -74 -152 -198 -152c-119 0 -190 62 -203 148h38 c7 -68 70 -117 166 -117c103 0 159 58 159 120zM259 735l103 -137h-34l-91 113l-90 -113h-35l104 137h43z" />
<glyph unicode="&#x15e;" horiz-adv-x="643" d="M456 -143c0 -52 -45 -95 -108 -95c-59 0 -105 28 -113 82h33c4 -35 38 -53 81 -53c45 0 75 28 75 65c0 40 -32 67 -115 67l4 62c-142 2 -244 69 -268 191h39c22 -107 118 -157 238 -157c145 0 225 62 225 161c0 96 -50 147 -245 186c-161 32 -224 94 -224 195 c0 102 83 174 244 174c137 0 241 -65 266 -173h-38c-22 87 -107 140 -226 140c-140 0 -208 -57 -208 -138c0 -85 45 -134 211 -168c189 -39 258 -101 258 -215c0 -108 -84 -188 -241 -195v-38c74 -7 112 -43 112 -91z" />
<glyph unicode="&#x15f;" horiz-adv-x="491" d="M372 -143c0 -52 -45 -95 -108 -95c-59 0 -105 28 -113 82h33c4 -35 38 -53 81 -53c45 0 75 28 75 65c0 40 -32 67 -115 67l4 63c-111 4 -177 64 -189 147h38c7 -68 70 -117 166 -117c103 0 159 58 159 120c0 69 -50 103 -179 123c-98 15 -168 58 -168 142 c0 73 60 134 184 134c105 0 184 -56 199 -140h-38c-8 62 -75 110 -164 110c-99 0 -144 -47 -144 -101c0 -64 40 -96 156 -116c138 -24 192 -68 192 -151c0 -75 -68 -145 -181 -151v-38c74 -7 112 -43 112 -91z" />
<glyph unicode="&#x160;" horiz-adv-x="643" d="M322 19c145 0 225 62 225 161c0 96 -50 147 -245 186c-161 32 -224 94 -224 195c0 102 83 174 244 174c137 0 241 -65 266 -173h-38c-22 87 -107 140 -226 140c-140 0 -208 -57 -208 -138c0 -85 45 -134 211 -168c189 -39 258 -101 258 -215c0 -113 -92 -196 -264 -196 c-146 0 -251 67 -276 191h39c22 -107 118 -157 238 -157zM292 768l-103 137h34l91 -113l90 113h35l-104 -137h-43z" />
<glyph unicode="&#x161;" horiz-adv-x="491" d="M403 136c0 69 -50 103 -179 123c-98 15 -168 58 -168 142c0 73 60 134 184 134c105 0 184 -56 199 -140h-38c-8 62 -75 110 -164 110c-99 0 -144 -47 -144 -101c0 -64 40 -96 156 -116c138 -24 192 -68 192 -151c0 -78 -74 -152 -198 -152c-119 0 -190 62 -203 148h38 c7 -68 70 -117 166 -117c103 0 159 58 159 120zM218 598l-103 137h34l91 -113l90 113h35l-104 -137h-43z" />
<glyph unicode="&#x162;" horiz-adv-x="563" d="M543 720v-33h-243v-687h-37v687h-243v33h523zM306 -90v-61c0 -63 -24 -99 -76 -117v23c32 15 44 46 44 91h-14v64h46z" />
<glyph unicode="&#x163;" horiz-adv-x="294" d="M260 489h-124v-394c0 -55 29 -80 74 -80c19 0 38 2 64 9v-30c-23 -6 -44 -9 -64 -9c-67 0 -110 36 -110 111v393h-75v31h75l4 125h32v-125h124v-31zM183 -90v-61c0 -63 -24 -99 -76 -117v23c32 15 44 46 44 91h-14v64h46z" />
<glyph unicode="&#x164;" horiz-adv-x="563" d="M543 720v-33h-243v-687h-37v687h-243v33h523zM259 768l-103 137h34l91 -113l90 113h35l-104 -137h-43z" />
<glyph unicode="&#x165;" horiz-adv-x="321" d="M311 720v-61c0 -61 -24 -92 -76 -110v24c32 15 42 38 42 83h-16v64h50zM260 489h-124v-394c0 -55 29 -80 74 -80c19 0 38 2 64 9v-30c-23 -6 -44 -9 -64 -9c-67 0 -110 36 -110 111v393h-75v31h75l4 125h32v-125h124v-31z" />
<glyph unicode="&#x166;" horiz-adv-x="563" d="M543 720v-33h-243v-262h124v-33h-124v-392h-37v392h-124v33h124v262h-243v33h523z" />
<glyph unicode="&#x167;" horiz-adv-x="294" d="M136 350v-255c0 -55 29 -80 74 -80c19 0 38 2 64 9v-30c-23 -6 -44 -9 -64 -9c-67 0 -110 36 -110 111v254h-67v31h67v108h-75v31h75l4 125h32v-125h124v-31h-124v-108h115v-31h-115z" />
<glyph unicode="&#x168;" horiz-adv-x="700" d="M350 -15c-173 0 -270 116 -270 250v485h36v-486c0 -127 101 -216 234 -216c132 0 234 89 234 216v486h36v-485c0 -134 -100 -250 -270 -250zM403 803c-53 0 -65 32 -107 32c-23 0 -44 -9 -73 -32v36c27 20 46 29 74 29c53 0 65 -32 107 -32c23 0 44 9 73 32v-36 c-27 -20 -46 -29 -74 -29z" />
<glyph unicode="&#x169;" horiz-adv-x="542" d="M75 520h36v-356c0 -99 58 -149 148 -149c93 0 167 79 167 185v320h36v-520h-30l-5 93c-36 -75 -110 -108 -176 -108c-100 0 -176 59 -176 177v358zM317 633c-53 0 -65 32 -107 32c-23 0 -44 -9 -73 -32v36c27 20 46 29 74 29c53 0 65 -32 107 -32c23 0 44 9 73 32v-36 c-27 -20 -46 -29 -74 -29z" />
<glyph unicode="&#x16a;" horiz-adv-x="700" d="M350 -15c-173 0 -270 116 -270 250v485h36v-486c0 -127 101 -216 234 -216c132 0 234 89 234 216v486h36v-485c0 -134 -100 -250 -270 -250zM465 831h-230v32h230v-32z" />
<glyph unicode="&#x16b;" horiz-adv-x="542" d="M75 520h36v-356c0 -99 58 -149 148 -149c93 0 167 79 167 185v320h36v-520h-30l-5 93c-36 -75 -110 -108 -176 -108c-100 0 -176 59 -176 177v358zM378 661h-230v32h230v-32z" />
<glyph unicode="&#x16c;" horiz-adv-x="700" d="M350 -15c-173 0 -270 116 -270 250v485h36v-486c0 -127 101 -216 234 -216c132 0 234 89 234 216v486h36v-485c0 -134 -100 -250 -270 -250zM350 758c-78 1 -123 52 -128 132h33c3 -55 30 -103 95 -103s92 48 95 103h33c-5 -80 -50 -131 -128 -132z" />
<glyph unicode="&#x16d;" horiz-adv-x="542" d="M75 520h36v-356c0 -99 58 -149 148 -149c93 0 167 79 167 185v320h36v-520h-30l-5 93c-36 -75 -110 -108 -176 -108c-100 0 -176 59 -176 177v358zM267 588c-78 1 -123 52 -128 132h33c3 -55 30 -103 95 -103s92 48 95 103h33c-5 -80 -50 -131 -128 -132z" />
<glyph unicode="&#x16e;" horiz-adv-x="700" d="M350 -15c-173 0 -270 116 -270 250v485h36v-486c0 -127 101 -216 234 -216c132 0 234 89 234 216v486h36v-485c0 -134 -100 -250 -270 -250zM267 870c0 -57 36 -88 83 -88s83 31 83 88s-36 88 -83 88s-83 -31 -83 -88zM465 870c0 -67 -47 -115 -115 -115 s-115 48 -115 115s47 115 115 115s115 -48 115 -115z" />
<glyph unicode="&#x16f;" horiz-adv-x="542" d="M75 520h36v-356c0 -99 58 -149 148 -149c93 0 167 79 167 185v320h36v-520h-30l-5 93c-36 -75 -110 -108 -176 -108c-100 0 -176 59 -176 177v358zM184 700c0 -57 36 -88 83 -88s83 31 83 88s-36 88 -83 88s-83 -31 -83 -88zM382 700c0 -67 -47 -115 -115 -115 s-115 48 -115 115s47 115 115 115s115 -48 115 -115z" />
<glyph unicode="&#x170;" horiz-adv-x="700" d="M350 -15c-173 0 -270 116 -270 250v485h36v-486c0 -127 101 -216 234 -216c132 0 234 89 234 216v486h36v-485c0 -134 -100 -250 -270 -250zM236 768l75 137h51l-94 -137h-32zM389 768l75 137h51l-94 -137h-32z" />
<glyph unicode="&#x171;" horiz-adv-x="542" d="M75 520h36v-356c0 -99 58 -149 148 -149c93 0 167 79 167 185v320h36v-520h-30l-5 93c-36 -75 -110 -108 -176 -108c-100 0 -176 59 -176 177v358zM175 598l75 137h51l-94 -137h-32zM328 598l75 137h51l-94 -137h-32z" />
<glyph unicode="&#x172;" horiz-adv-x="700" d="M475 -149h35c-17 -55 -66 -86 -119 -86c-64 0 -108 38 -108 100c0 47 35 90 85 121c-6 -1 -12 -1 -18 -1c-173 0 -270 116 -270 250v485h36v-486c0 -127 101 -216 234 -216c132 0 234 89 234 216v486h36v-485c0 -114 -65 -201 -180 -238c-72 -23 -124 -76 -124 -129 c0 -48 30 -73 77 -73c42 0 70 22 82 56z" />
<glyph unicode="&#x173;" horiz-adv-x="542" d="M75 520h36v-356c0 -99 58 -149 148 -149c93 0 167 79 167 185v320h36v-520h-8c-70 -35 -121 -75 -121 -132c0 -48 30 -73 77 -73c42 0 70 22 82 56h35c-17 -55 -66 -86 -119 -86c-64 0 -108 38 -108 100c0 60 58 114 131 144l-4 84c-36 -75 -110 -108 -176 -108 c-100 0 -176 59 -176 177v358z" />
<glyph unicode="&#x174;" horiz-adv-x="950" d="M899 720h36l-203 -720h-55l-202 690l-201 -690h-56l-203 720h39l193 -691l202 691h55l201 -689zM496 905l103 -137h-34l-91 113l-90 -113h-35l104 137h43z" />
<glyph unicode="&#x175;" horiz-adv-x="752" d="M692 520h35l-149 -520h-46l-154 488l-145 -488h-46l-162 520h36l150 -485l144 485h48l152 -483zM400 735l103 -137h-34l-91 113l-90 -113h-35l104 137h43z" />
<glyph unicode="&#x178;" horiz-adv-x="620" d="M10 720h40l259 -403l263 403h38l-282 -439v-281h-37v283zM234 833h-46v57h46v-57zM430 833h-46v57h46v-57z" />
<glyph unicode="&#x179;" horiz-adv-x="639" d="M589 689l-496 -656h486v-33h-529v34l495 653h-472v33h516v-31zM275 768l103 137h53l-122 -137h-34z" />
<glyph unicode="&#x17a;" horiz-adv-x="478" d="M438 482l-358 -451h358v-31h-398v36l360 453h-345v31h383v-38zM202 598l103 137h53l-122 -137h-34z" />
<glyph unicode="&#x17b;" horiz-adv-x="639" d="M589 689l-496 -656h486v-33h-529v34l495 653h-472v33h516v-31zM342 833h-46v57h46v-57z" />
<glyph unicode="&#x17c;" horiz-adv-x="478" d="M438 482l-358 -451h358v-31h-398v36l360 453h-345v31h383v-38zM266 663h-46v57h46v-57z" />
<glyph unicode="&#x17d;" horiz-adv-x="639" d="M589 689l-496 -656h486v-33h-529v34l495 653h-472v33h516v-31zM295 768l-103 137h34l91 -113l90 113h35l-104 -137h-43z" />
<glyph unicode="&#x17e;" horiz-adv-x="478" d="M438 482l-358 -451h358v-31h-398v36l360 453h-345v31h383v-38zM219 598l-103 137h34l91 -113l90 113h35l-104 -137h-43z" />
<glyph unicode="&#x192;" horiz-adv-x="291" d="M296 723v-30c-24 7 -55 12 -76 12c-48 0 -77 -30 -77 -90v-95h127v-31h-127v-669h-36v669h-77v31h77v94c0 78 45 121 113 121c24 0 51 -4 76 -12z" />
<glyph unicode="&#x218;" horiz-adv-x="643" d="M322 19c145 0 225 62 225 161c0 96 -50 147 -245 186c-161 32 -224 94 -224 195c0 102 83 174 244 174c137 0 241 -65 266 -173h-38c-22 87 -107 140 -226 140c-140 0 -208 -57 -208 -138c0 -85 45 -134 211 -168c189 -39 258 -101 258 -215c0 -113 -92 -196 -264 -196 c-146 0 -251 67 -276 191h39c22 -107 118 -157 238 -157zM355 -90v-61c0 -63 -24 -99 -76 -117v23c32 15 44 46 44 91h-14v64h46z" />
<glyph unicode="&#x219;" horiz-adv-x="491" d="M403 136c0 69 -50 103 -179 123c-98 15 -168 58 -168 142c0 73 60 134 184 134c105 0 184 -56 199 -140h-38c-8 62 -75 110 -164 110c-99 0 -144 -47 -144 -101c0 -64 40 -96 156 -116c138 -24 192 -68 192 -151c0 -78 -74 -152 -198 -152c-119 0 -190 62 -203 148h38 c7 -68 70 -117 166 -117c103 0 159 58 159 120zM274 -90v-61c0 -63 -24 -99 -76 -117v23c32 15 44 46 44 91h-14v64h46z" />
<glyph unicode="&#x21a;" horiz-adv-x="563" d="M543 720v-33h-243v-687h-37v687h-243v33h523zM306 -90v-61c0 -63 -24 -99 -76 -117v23c32 15 44 46 44 91h-14v64h46z" />
<glyph unicode="&#x21b;" horiz-adv-x="294" d="M260 489h-124v-394c0 -55 29 -80 74 -80c19 0 38 2 64 9v-30c-23 -6 -44 -9 -64 -9c-67 0 -110 36 -110 111v393h-75v31h75l4 125h32v-125h124v-31zM183 -90v-61c0 -63 -24 -99 -76 -117v23c32 15 44 46 44 91h-14v64h46z" />
<glyph unicode="&#x237;" horiz-adv-x="184" d="M-59 -184v32c21 -7 48 -11 65 -11c44 0 68 24 68 88v595h36v-597c0 -78 -36 -118 -99 -118c-22 0 -45 3 -70 11z" />
<glyph unicode="&#x2c6;" horiz-adv-x="310" d="M177 735l103 -137h-34l-91 113l-90 -113h-35l104 137h43z" />
<glyph unicode="&#x2c7;" horiz-adv-x="310" d="M133 598l-103 137h34l91 -113l90 113h35l-104 -137h-43z" />
<glyph unicode="&#x2c9;" horiz-adv-x="290" d="M260 661h-230v32h230v-32z" />
<glyph unicode="&#x2d8;" horiz-adv-x="316" d="M158 588c-78 1 -123 52 -128 132h33c3 -55 30 -103 95 -103s92 48 95 103h33c-5 -80 -50 -131 -128 -132z" />
<glyph unicode="&#x2d9;" horiz-adv-x="106" d="M76 663h-46v57h46v-57z" />
<glyph unicode="&#x2da;" horiz-adv-x="290" d="M62 700c0 -57 36 -88 83 -88s83 31 83 88s-36 88 -83 88s-83 -31 -83 -88zM260 700c0 -67 -47 -115 -115 -115s-115 48 -115 115s47 115 115 115s115 -48 115 -115z" />
<glyph unicode="&#x2db;" horiz-adv-x="287" d="M222 -149h35c-17 -55 -66 -86 -119 -86c-64 0 -108 38 -108 100c0 67 72 125 157 154h39c-91 -39 -163 -84 -163 -151c0 -48 30 -73 77 -73c42 0 70 22 82 56z" />
<glyph unicode="&#x2dc;" horiz-adv-x="314" d="M210 633c-53 0 -65 32 -107 32c-23 0 -44 -9 -73 -32v36c27 20 46 29 74 29c53 0 65 -32 107 -32c23 0 44 9 73 32v-36c-27 -20 -46 -29 -74 -29z" />
<glyph unicode="&#x2dd;" horiz-adv-x="339" d="M30 598l75 137h51l-94 -137h-32zM183 598l75 137h51l-94 -137h-32z" />
<glyph unicode="&#x312;" horiz-adv-x="119" d="M35 610v61c0 65 24 102 76 120v-24c-32 -15 -42 -48 -42 -93h16v-64h-50z" />
<glyph unicode="&#x323;" horiz-adv-x="106" d="M76 -180h-46v57h46v-57z" />
<glyph unicode="&#x37e;" horiz-adv-x="278" d="M166 456h-54v64h54v-64zM166 64v-61c0 -77 -34 -120 -93 -138v29c39 16 55 46 55 106h-18v64h56z" />
<glyph unicode="&#x384;" horiz-adv-x="136" d="M30 573l29 147h47l-45 -147h-31z" />
<glyph unicode="&#x385;" horiz-adv-x="302" d="M76 663h-46v57h46v-57zM272 663h-46v57h46v-57zM133 735l29 147h48l-48 -147h-29z" />
<glyph unicode="&#x386;" horiz-adv-x="642" d="M632 0h-41l-84 213h-373l-85 -213h-39l286 720h51zM322 686l-176 -441h349zM160 573l29 147h47l-45 -147h-31z" />
<glyph unicode="&#x387;" horiz-adv-x="278" d="M166 289h-54v64h54v-64z" />
<glyph unicode="&#x388;" horiz-adv-x="581" d="M492 383v-33h-350v-317h379v-33h-416v720h416v-33h-379v-304h350zM-16 573l29 147h47l-45 -147h-31z" />
<glyph unicode="&#x389;" horiz-adv-x="696" d="M574 720h37v-720h-37v351h-432v-351h-37v720h37v-335h432v335zM-16 573l29 147h47l-45 -147h-31z" />
<glyph unicode="&#x38a;" horiz-adv-x="227" d="M105 720h37v-720h-37v720zM-16 573l29 147h47l-45 -147h-31z" />
<glyph unicode="&#x38c;" horiz-adv-x="744" d="M372 18c147 0 279 95 279 341c0 223 -122 343 -279 343c-170 0 -279 -121 -279 -343c0 -230 132 -341 279 -341zM372 -15c-176 0 -317 134 -317 374c0 257 142 376 317 376s317 -134 317 -376c0 -256 -141 -374 -317 -374zM16 573l29 147h47l-45 -147h-31z" />
<glyph unicode="&#x38e;" horiz-adv-x="686" d="M76 720h40l259 -403l263 403h38l-282 -439v-281h-37v283zM-36 573l29 147h47l-45 -147h-31z" />
<glyph unicode="&#x38f;" horiz-adv-x="744" d="M413 0v34c125 0 238 85 238 328c0 220 -122 340 -279 340c-170 0 -279 -120 -279 -340c0 -222 107 -323 228 -328h10v-34h-236v34h122c-92 49 -162 162 -162 328c0 255 142 373 317 373s317 -134 317 -373c0 -174 -69 -281 -159 -328h119v-34h-236zM16 573l29 147h47 l-45 -147h-31z" />
<glyph unicode="&#x390;" horiz-adv-x="184" d="M110 0h-36v520h36v-520zM17 663h-46v57h46v-57zM213 663h-46v57h46v-57zM74 735l29 147h48l-48 -147h-29z" />
<glyph unicode="&#x391;" horiz-adv-x="642" d="M632 0h-41l-84 213h-373l-85 -213h-39l286 720h51zM322 686l-176 -441h349z" />
<glyph unicode="&#x392;" horiz-adv-x="632" d="M85 720h242c141 0 220 -67 220 -173c0 -76 -51 -145 -136 -165c93 -12 167 -85 167 -183c0 -122 -82 -199 -245 -199h-248v720zM344 364h-222v-331h216c129 0 201 60 201 166c0 97 -74 165 -195 165zM333 687h-211v-291h219c111 0 169 67 169 150c0 89 -65 141 -177 141z " />
<glyph unicode="&#x393;" horiz-adv-x="485" d="M85 720h380v-33h-343v-687h-37v720z" />
<glyph unicode="&#x394;" horiz-adv-x="642" d="M632 0h-622l286 720h51zM322 686l-261 -654h517z" />
<glyph unicode="&#x395;" horiz-adv-x="561" d="M472 383v-33h-350v-317h379v-33h-416v720h416v-33h-379v-304h350z" />
<glyph unicode="&#x396;" horiz-adv-x="639" d="M589 689l-496 -656h486v-33h-529v34l495 653h-472v33h516v-31z" />
<glyph unicode="&#x397;" horiz-adv-x="676" d="M554 720h37v-720h-37v351h-432v-351h-37v720h37v-335h432v335z" />
<glyph unicode="&#x398;" horiz-adv-x="744" d="M556 383v-33h-367v33h367zM372 18c147 0 279 106 279 341c0 223 -122 343 -279 343s-279 -120 -279 -343c0 -230 132 -341 279 -341zM372 -15c-176 0 -317 134 -317 374c0 242 142 376 317 376s317 -134 317 -376c0 -245 -141 -374 -317 -374z" />
<glyph unicode="&#x399;" horiz-adv-x="207" d="M85 720h37v-720h-37v720z" />
<glyph unicode="&#x39a;" horiz-adv-x="580" d="M565 0h-50l-393 360v-360h-37v720h37v-341l369 341h45l-373 -348z" />
<glyph unicode="&#x39b;" horiz-adv-x="632" d="M622 0h-41l-264 686l-268 -686h-39l281 720h51z" />
<glyph unicode="&#x39c;" horiz-adv-x="829" d="M445 0h-45l-279 682v-682h-36v720h58l280 -685l265 685h56v-720h-36v677z" />
<glyph unicode="&#x39d;" horiz-adv-x="709" d="M590 720h34v-720h-39l-464 668v-668h-36v720h41l464 -663v663z" />
<glyph unicode="&#x39e;" horiz-adv-x="589" d="M60 0v36h469v-36h-469zM529 720v-35h-468v35h468zM460 340h-330v34h330v-34z" />
<glyph unicode="&#x39f;" horiz-adv-x="744" d="M372 18c147 0 279 95 279 341c0 223 -122 343 -279 343c-170 0 -279 -121 -279 -343c0 -230 132 -341 279 -341zM372 -15c-176 0 -317 134 -317 374c0 257 142 376 317 376s317 -134 317 -376c0 -256 -141 -374 -317 -374z" />
<glyph unicode="&#x3a0;" horiz-adv-x="676" d="M85 720h506v-720h-37v686h-432v-686h-37v720z" />
<glyph unicode="&#x3a1;" horiz-adv-x="624" d="M85 720h245c155 0 244 -84 244 -222c0 -132 -105 -214 -246 -214h-206v-284h-37v720zM333 687h-211v-369h206c126 0 207 68 207 180c0 118 -75 189 -202 189z" />
<glyph unicode="&#x3a3;" horiz-adv-x="559" d="M81 687l285 -307v-31l-285 -316h438v-33h-479v34l294 330l-294 322v34h479v-33h-438z" />
<glyph unicode="&#x3a4;" horiz-adv-x="563" d="M543 720v-33h-243v-687h-37v687h-243v33h523z" />
<glyph unicode="&#x3a5;" horiz-adv-x="620" d="M10 720h40l259 -403l263 403h38l-282 -439v-281h-37v283z" />
<glyph unicode="&#x3a6;" horiz-adv-x="771" d="M367 735h37v-35c172 -2 312 -116 312 -341c0 -208 -139 -337 -312 -339v-35h-37v35c-174 2 -312 131 -312 339c0 225 139 339 312 341v35zM678 359c0 190 -107 306 -274 308v-614c145 2 274 108 274 306zM93 359c0 -198 129 -304 274 -306v614 c-167 -2 -274 -118 -274 -308z" />
<glyph unicode="&#x3a7;" horiz-adv-x="596" d="M567 720l-244 -348l253 -372h-44l-234 345l-235 -345h-43l256 374l-236 346h44l217 -319l225 319h41z" />
<glyph unicode="&#x3a8;" horiz-adv-x="726" d="M70 720h37v-319c0 -115 110 -173 240 -178v497h36v-497c121 5 237 63 237 178v319h36v-315c0 -136 -119 -209 -273 -215v-190h-36v190c-155 5 -277 79 -277 215v315z" />
<glyph unicode="&#x3a9;" horiz-adv-x="744" d="M413 0v34c125 0 238 85 238 328c0 220 -122 340 -279 340c-170 0 -279 -120 -279 -340c0 -222 107 -323 228 -328h10v-34h-236v34h122c-92 49 -162 162 -162 328c0 255 142 373 317 373s317 -134 317 -373c0 -174 -69 -281 -159 -328h119v-34h-236z" />
<glyph unicode="&#x3aa;" horiz-adv-x="208" d="M85 720h37v-720h-37v720zM29 833h-46v57h46v-57zM225 833h-46v57h46v-57z" />
<glyph unicode="&#x3ab;" horiz-adv-x="620" d="M10 720h40l259 -403l263 403h38l-282 -439v-281h-37v283zM235 833h-46v57h46v-57zM431 833h-46v57h46v-57z" />
<glyph unicode="&#x3ac;" horiz-adv-x="563" d="M483 0h-29l-6 110c-32 -73 -98 -125 -186 -125c-113 0 -212 87 -212 269c0 189 100 281 215 281c86 0 151 -49 183 -120l6 105h29v-520zM87 255c0 -164 82 -240 181 -240c85 0 183 63 183 247c0 164 -80 243 -181 243c-97 0 -183 -80 -183 -250zM262 573l29 147h47 l-45 -147h-31z" />
<glyph unicode="&#x3ad;" horiz-adv-x="467" d="M225 505c-87 0 -131 -44 -131 -108c0 -62 63 -109 133 -109h43v-33h-45c-91 0 -149 -53 -149 -120c0 -76 58 -119 155 -119c83 0 150 46 164 127h35c-17 -95 -87 -158 -202 -158c-118 0 -188 57 -188 152c0 63 42 118 127 136c-72 20 -108 66 -108 128 c0 78 61 134 165 134c114 0 186 -63 203 -151h-36c-16 76 -77 121 -166 121zM207 573l29 147h47l-45 -147h-31z" />
<glyph unicode="&#x3ae;" horiz-adv-x="547" d="M116 0h-36v520h30l5 -99c34 74 104 114 179 114c108 0 178 -68 178 -175v-540h-36v538c0 91 -55 147 -150 147c-81 0 -170 -70 -170 -181v-324zM253 573l29 147h47l-45 -147h-31z" />
<glyph unicode="&#x3af;" horiz-adv-x="184" d="M110 0h-36v520h36v-520zM78 573l29 147h47l-45 -147h-31z" />
<glyph unicode="&#x3b0;" horiz-adv-x="538" d="M269 -15c-130 0 -194 68 -194 177v358h36v-354c0 -89 46 -151 158 -151s158 62 158 151v354h36v-358c0 -109 -64 -177 -194 -177zM194 663h-46v57h46v-57zM390 663h-46v57h46v-57zM251 735l29 147h48l-48 -147h-29z" />
<glyph unicode="&#x3b1;" horiz-adv-x="563" d="M483 0h-29l-6 110c-32 -73 -98 -125 -186 -125c-113 0 -212 87 -212 269c0 189 100 281 215 281c86 0 151 -49 183 -120l6 105h29v-520zM87 255c0 -164 82 -240 181 -240c85 0 183 63 183 247c0 164 -80 243 -181 243c-97 0 -183 -80 -183 -250z" />
<glyph unicode="&#x3b2;" horiz-adv-x="545" d="M445 566c0 -83 -56 -151 -133 -173c68 -14 152 -68 152 -185c0 -145 -79 -223 -185 -223c-71 0 -129 37 -163 102v-267h-36v684c0 145 56 231 181 231c120 0 184 -73 184 -169zM116 500v-317c0 -66 62 -166 159 -166c92 0 152 69 152 189c0 116 -89 169 -163 169h-45v33 h43c61 0 147 60 147 154c0 84 -49 143 -149 143c-94 0 -144 -65 -144 -205z" />
<glyph unicode="&#x3b3;" horiz-adv-x="490" d="M263 -180h-36v180l-207 520h39l186 -484l188 484h37l-207 -520v-180z" />
<glyph unicode="&#x3b4;" horiz-adv-x="533" d="M149 697v23h305v-31h-214c129 -35 243 -160 243 -376c0 -184 -49 -328 -223 -328c-132 0 -210 107 -210 252c0 131 71 241 205 241c111 0 174 -71 194 -143c-9 260 -184 336 -300 362zM446 226v11c0 96 -61 209 -185 209c-96 0 -174 -61 -174 -212 c0 -122 65 -216 173 -216c114 0 171 69 186 208z" />
<glyph unicode="&#x3b5;" horiz-adv-x="467" d="M225 505c-87 0 -131 -44 -131 -108c0 -62 63 -109 133 -109h43v-33h-45c-91 0 -149 -53 -149 -120c0 -76 58 -119 155 -119c83 0 150 46 164 127h35c-17 -95 -87 -158 -202 -158c-118 0 -188 57 -188 152c0 63 42 118 127 136c-72 20 -108 66 -108 128 c0 78 61 134 165 134c114 0 186 -63 203 -151h-36c-16 76 -77 121 -166 121z" />
<glyph unicode="&#x3b6;" horiz-adv-x="454" d="M61 271c0 -140 68 -206 203 -239c124 -30 150 -57 150 -107c0 -48 -39 -93 -66 -120l-20 17c23 23 52 60 52 92c0 43 -19 59 -118 83c-158 38 -237 121 -237 268c0 206 116 363 300 424h-283v31h367v-24c-193 -42 -348 -201 -348 -425z" />
<glyph unicode="&#x3b7;" horiz-adv-x="547" d="M116 0h-36v520h30l5 -99c34 74 104 114 179 114c108 0 178 -68 178 -175v-540h-36v538c0 91 -55 147 -150 147c-81 0 -170 -70 -170 -181v-324z" />
<glyph unicode="&#x3b8;" horiz-adv-x="570" d="M285 -15c-134 0 -235 119 -235 374c0 256 101 376 235 376s235 -120 235 -376s-101 -374 -235 -374zM285 17c118 0 195 111 198 329h-396c3 -218 79 -329 198 -329zM285 703c-118 0 -194 -112 -198 -325h396c-5 213 -81 325 -198 325z" />
<glyph unicode="&#x3b9;" horiz-adv-x="184" d="M110 0h-36v520h36v-520z" />
<glyph unicode="&#x3ba;" horiz-adv-x="474" d="M116 0h-36v520h36v-237l270 237h48l-281 -247l316 -273h-51l-302 259v-259z" />
<glyph unicode="&#x3bb;" horiz-adv-x="490" d="M285 523l185 -523h-38l-174 494l-200 -494h-38l212 520h17c-58 174 -73 185 -110 185c-17 0 -43 -6 -63 -13v30c19 7 45 13 63 13c60 0 76 -13 146 -212z" />
<glyph unicode="&#x3bc;" horiz-adv-x="547" d="M80 520h36v-356c0 -99 58 -149 148 -149c93 0 167 79 167 185v320h36v-520h-30l-5 93c-36 -75 -110 -108 -176 -108c-58 0 -109 19 -140 59v-224h-36v700z" />
<glyph unicode="&#x3bd;" horiz-adv-x="490" d="M433 520h37l-201 -520h-48l-201 520h39l186 -488z" />
<glyph unicode="&#x3be;" horiz-adv-x="438" d="M261 -12c-166 35 -241 101 -241 203c0 97 49 152 157 172c-87 15 -138 59 -138 151c0 82 69 154 179 175h-176v31h357v-26h-15c-214 0 -310 -83 -310 -183c0 -92 78 -133 173 -133h43v-33h-45c-126 0 -189 -62 -189 -156c0 -85 55 -133 207 -169 c129 -31 150 -53 150 -100c0 -45 -39 -88 -66 -115l-20 17c23 23 52 59 52 87c0 37 -19 58 -118 79z" />
<glyph unicode="&#x3bf;" horiz-adv-x="565" d="M87 260c0 -163 86 -245 196 -245c113 0 195 82 195 245c0 164 -82 245 -195 245s-196 -82 -196 -245zM50 260c0 181 100 275 233 275c136 0 232 -95 232 -275c0 -181 -98 -275 -230 -275c-133 0 -235 96 -235 275z" />
<glyph unicode="&#x3c0;" horiz-adv-x="608" d="M162 0h-36v488h-81v32h518v-32h-81v-488h-36v488h-284v-488z" />
<glyph unicode="&#x3c1;" horiz-adv-x="568" d="M80 287c0 162 80 248 212 248c128 0 226 -86 226 -268c0 -186 -98 -282 -220 -282c-87 0 -151 48 -182 119v-284h-36v467zM481 268c0 163 -83 237 -189 237c-117 0 -180 -80 -180 -247c0 -164 78 -243 181 -243c104 0 188 82 188 253z" />
<glyph unicode="&#x3c2;" horiz-adv-x="521" d="M50 272c0 172 102 263 224 263c112 0 188 -59 207 -155h-38c-13 76 -75 125 -168 125c-106 0 -189 -84 -189 -236c0 -126 65 -204 209 -239c135 -33 170 -47 170 -105c0 -48 -36 -93 -63 -120l-20 17c23 23 49 60 49 92c0 45 -27 59 -138 83c-164 36 -243 122 -243 275z " />
<glyph unicode="&#x3c3;" horiz-adv-x="565" d="M50 260c0 181 97 275 230 275c33 0 73 -6 103 -15h197v-32l-156 4c55 -45 91 -130 91 -232c0 -181 -98 -275 -230 -275c-133 0 -235 96 -235 275zM87 260c0 -163 86 -245 196 -245c113 0 195 82 195 245c0 97 -31 185 -99 233c-26 7 -67 12 -99 12 c-108 0 -193 -82 -193 -245z" />
<glyph unicode="&#x3c4;" horiz-adv-x="472" d="M254 0h-36v488h-203v32h442v-32h-203v-488z" />
<glyph unicode="&#x3c5;" horiz-adv-x="538" d="M269 -15c-130 0 -194 68 -194 177v358h36v-354c0 -89 46 -151 158 -151s158 62 158 151v354h36v-358c0 -109 -64 -177 -194 -177z" />
<glyph unicode="&#x3c6;" horiz-adv-x="759" d="M694 267c0 -181 -106 -277 -308 -282v-165h-36v165c-178 4 -285 69 -285 233c0 96 26 193 65 302h36c-40 -110 -65 -192 -65 -298c0 -135 78 -203 249 -207v267c0 162 54 253 169 253c107 0 175 -86 175 -268zM386 258v-243c186 5 271 87 271 253c0 163 -54 237 -140 237 c-82 0 -131 -63 -131 -247z" />
<glyph unicode="&#x3c7;" horiz-adv-x="504" d="M453 520l-182 -332l213 -368h-45l-192 342l-184 -342h-43l205 368l-196 332h46l175 -306l161 306h42z" />
<glyph unicode="&#x3c8;" horiz-adv-x="706" d="M75 520h37v-324c0 -115 97 -174 225 -179v503h36v-503c128 5 222 64 222 179v324h36v-320c0 -136 -106 -209 -258 -214v-166h-36v165c-154 5 -262 79 -262 215v320z" />
<glyph unicode="&#x3c9;" horiz-adv-x="772" d="M606 520h36c39 -109 65 -209 65 -305c0 -159 -69 -230 -161 -230c-86 0 -145 42 -160 133c-16 -90 -76 -133 -162 -133c-92 0 -159 71 -159 230c0 96 26 196 65 305h36c-40 -110 -65 -195 -65 -301c0 -143 54 -204 131 -204c81 0 137 63 137 164v201h34v-201 c0 -101 54 -164 135 -164c77 0 133 61 133 204c0 106 -25 191 -65 301z" />
<glyph unicode="&#x3ca;" horiz-adv-x="184" d="M110 0h-36v520h36v-520zM17 663h-46v57h46v-57zM213 663h-46v57h46v-57z" />
<glyph unicode="&#x3cb;" horiz-adv-x="538" d="M269 -15c-130 0 -194 68 -194 177v358h36v-354c0 -89 46 -151 158 -151s158 62 158 151v354h36v-358c0 -109 -64 -177 -194 -177zM193 663h-46v57h46v-57zM389 663h-46v57h46v-57z" />
<glyph unicode="&#x3cc;" horiz-adv-x="565" d="M87 260c0 -163 86 -245 196 -245c113 0 195 82 195 245c0 164 -82 245 -195 245s-196 -82 -196 -245zM50 260c0 181 100 275 233 275c136 0 232 -95 232 -275c0 -181 -98 -275 -230 -275c-133 0 -235 96 -235 275zM269 573l29 147h47l-45 -147h-31z" />
<glyph unicode="&#x3cd;" horiz-adv-x="538" d="M269 -15c-130 0 -194 68 -194 177v358h36v-354c0 -89 46 -151 158 -151s158 62 158 151v354h36v-358c0 -109 -64 -177 -194 -177zM238 573l29 147h47l-45 -147h-31z" />
<glyph unicode="&#x3ce;" horiz-adv-x="772" d="M606 520h36c39 -109 65 -209 65 -305c0 -159 -69 -230 -161 -230c-86 0 -145 42 -160 133c-16 -90 -76 -133 -162 -133c-92 0 -159 71 -159 230c0 96 26 196 65 305h36c-40 -110 -65 -195 -65 -301c0 -143 54 -204 131 -204c81 0 137 63 137 164v201h34v-201 c0 -101 54 -164 135 -164c77 0 133 61 133 204c0 106 -25 191 -65 301zM371 573l29 147h47l-45 -147h-31z" />
<glyph unicode="&#x401;" horiz-adv-x="561" d="M472 383v-33h-350v-317h379v-33h-416v720h416v-33h-379v-304h350zM215 833h-46v57h46v-57zM411 833h-46v57h46v-57z" />
<glyph unicode="&#x402;" horiz-adv-x="783" d="M280 0h-37v687h-223v33h483v-33h-223v-337c36 73 111 112 206 112c135 0 227 -74 227 -225v-137c0 -76 -38 -115 -100 -115c-22 0 -45 3 -70 11v32c21 -7 48 -11 65 -11c44 0 68 24 68 88v136c0 130 -81 188 -201 188c-124 0 -195 -81 -195 -193v-236z" />
<glyph unicode="&#x403;" horiz-adv-x="485" d="M85 720h380v-33h-343v-687h-37v720zM197 768l103 137h53l-122 -137h-34z" />
<glyph unicode="&#x404;" horiz-adv-x="715" d="M378 -15c-191 0 -323 146 -323 367c0 248 141 383 319 383c149 0 266 -77 291 -226h-36c-27 129 -124 193 -255 193c-151 0 -269 -115 -280 -319h365v-33h-366c1 -205 123 -332 285 -332c134 0 230 78 249 215h37c-18 -141 -124 -248 -286 -248z" />
<glyph unicode="&#x405;" horiz-adv-x="643" d="M322 19c145 0 225 62 225 161c0 96 -50 147 -245 186c-161 32 -224 94 -224 195c0 102 83 174 244 174c137 0 241 -65 266 -173h-38c-22 87 -107 140 -226 140c-140 0 -208 -57 -208 -138c0 -85 45 -134 211 -168c189 -39 258 -101 258 -215c0 -113 -92 -196 -264 -196 c-146 0 -251 67 -276 191h39c22 -107 118 -157 238 -157z" />
<glyph unicode="&#x406;" horiz-adv-x="207" d="M85 720h37v-720h-37v720z" />
<glyph unicode="&#x407;" horiz-adv-x="207" d="M85 720h37v-720h-37v720zM29 833h-46v57h46v-57zM225 833h-46v57h46v-57z" />
<glyph unicode="&#x408;" horiz-adv-x="517" d="M35 186h36c5 -109 71 -168 167 -168c100 0 162 62 162 178v524h37v-523c0 -126 -76 -212 -199 -212c-124 0 -198 80 -203 201z" />
<glyph unicode="&#x409;" horiz-adv-x="1027" d="M142 720h383v-284h208c155 0 244 -84 244 -222c0 -132 -105 -214 -246 -214h-243v686h-312l-48 -556c-9 -100 -36 -130 -108 -130v39c43 0 62 15 68 81zM736 403h-211v-369h206c126 0 207 68 207 180c0 118 -75 189 -202 189z" />
<glyph unicode="&#x40a;" horiz-adv-x="1073" d="M777 0h-243v383h-412v-383h-37v720h37v-304h412v304h37v-304h208c155 0 244 -84 244 -212c0 -122 -105 -204 -246 -204zM782 383h-211v-349h206c126 0 207 68 207 170c0 108 -75 179 -202 179z" />
<glyph unicode="&#x40b;" horiz-adv-x="783" d="M280 0h-37v687h-223v33h483v-33h-223v-337c36 73 111 112 206 112c135 0 227 -74 227 -225v-237h-37v241c0 130 -81 188 -201 188c-127 0 -195 -82 -195 -198v-231z" />
<glyph unicode="&#x40c;" horiz-adv-x="580" d="M565 0h-51l-335 350h-57v-350h-37v720h37v-337h59l310 337h45l-324 -352zM208 768l103 137h53l-122 -137h-34z" />
<glyph unicode="&#x40e;" horiz-adv-x="543" d="M533 720l-233 -548c-56 -133 -66 -187 -135 -187c-11 0 -29 3 -40 6v31c14 -3 30 -5 42 -5c41 0 55 38 97 155h-16l-238 548h39l225 -519l222 519h37zM267 768c-75 1 -128 32 -133 112h34c3 -55 37 -82 99 -82s96 27 99 82h34c-5 -80 -58 -111 -133 -112z" />
<glyph unicode="&#x40f;" horiz-adv-x="676" d="M591 0h-236v-140h-34v140h-236v720h37v-686h432v686h37v-720z" />
<glyph unicode="&#x410;" horiz-adv-x="642" d="M632 0h-41l-84 213h-373l-85 -213h-39l286 720h51zM322 686l-176 -441h349z" />
<glyph unicode="&#x411;" horiz-adv-x="624" d="M85 720h390v-33h-353v-251h208c155 0 244 -84 244 -222c0 -132 -105 -214 -246 -214h-243v720zM333 403h-211v-369h206c126 0 207 68 207 180c0 118 -75 189 -202 189z" />
<glyph unicode="&#x412;" horiz-adv-x="632" d="M85 720h242c141 0 220 -67 220 -173c0 -76 -51 -145 -136 -165c93 -12 167 -85 167 -183c0 -122 -82 -199 -245 -199h-248v720zM344 364h-222v-331h216c129 0 201 60 201 166c0 97 -74 165 -195 165zM333 687h-211v-291h219c111 0 169 67 169 150c0 89 -65 141 -177 141z " />
<glyph unicode="&#x413;" horiz-adv-x="485" d="M85 720h380v-33h-343v-687h-37v720z" />
<glyph unicode="&#x414;" horiz-adv-x="602" d="M135 720h382v-686h50v-174h-34v140h-489v-140h-34v174h41c37 21 58 82 61 149zM150 189c-3 -75 -23 -126 -60 -155h390v652h-309z" />
<glyph unicode="&#x415;" horiz-adv-x="561" d="M472 383v-33h-350v-317h379v-33h-416v720h416v-33h-379v-304h350z" />
<glyph unicode="&#x416;" horiz-adv-x="822" d="M44 720h42l199 -337h108v337h36v-337h107l200 337h42l-209 -349l238 -371h-42l-224 350h-112v-350h-36v350h-112l-224 -350h-42l238 371z" />
<glyph unicode="&#x417;" horiz-adv-x="588" d="M293 -15c-127 0 -222 60 -243 168h39c18 -88 97 -136 205 -136c122 0 200 69 200 183c0 106 -72 165 -178 165h-82v33h78c102 0 164 65 164 156c0 93 -69 149 -180 149c-109 0 -178 -48 -197 -136h-39c21 105 107 168 237 168c128 0 217 -68 217 -177 c0 -96 -45 -155 -134 -176c87 -10 153 -76 153 -180c0 -137 -96 -217 -240 -217z" />
<glyph unicode="&#x418;" horiz-adv-x="673" d="M552 684v36h36v-720h-36v631l-433 -594v-37h-34v720h34v-631z" />
<glyph unicode="&#x419;" horiz-adv-x="673" d="M552 684v36h36v-720h-36v631l-433 -594v-37h-34v720h34v-631zM332 768c-75 1 -128 32 -133 112h34c3 -55 37 -82 99 -82s96 27 99 82h34c-5 -80 -58 -111 -133 -112z" />
<glyph unicode="&#x41a;" horiz-adv-x="580" d="M565 0h-51l-335 350h-57v-350h-37v720h37v-337h59l310 337h45l-324 -352z" />
<glyph unicode="&#x41b;" horiz-adv-x="620" d="M535 720v-720h-37v686h-322l-48 -556c-9 -100 -36 -130 -108 -130v39c43 0 62 15 68 81l54 600h393z" />
<glyph unicode="&#x41c;" horiz-adv-x="829" d="M445 0h-45l-279 682v-682h-36v720h58l280 -685l265 685h56v-720h-36v677z" />
<glyph unicode="&#x41d;" horiz-adv-x="676" d="M554 720h37v-720h-37v351h-432v-351h-37v720h37v-335h432v335z" />
<glyph unicode="&#x41e;" horiz-adv-x="744" d="M372 18c147 0 279 106 279 341c0 223 -122 343 -279 343s-279 -120 -279 -343c0 -230 132 -341 279 -341zM372 -15c-176 0 -317 134 -317 374c0 242 142 376 317 376s317 -134 317 -376c0 -245 -141 -374 -317 -374z" />
<glyph unicode="&#x41f;" horiz-adv-x="676" d="M85 720h506v-720h-37v686h-432v-686h-37v720z" />
<glyph unicode="&#x420;" horiz-adv-x="624" d="M85 720h245c155 0 244 -84 244 -222c0 -132 -105 -214 -246 -214h-206v-284h-37v720zM333 687h-211v-369h206c126 0 207 68 207 180c0 118 -75 189 -202 189z" />
<glyph unicode="&#x421;" horiz-adv-x="715" d="M378 -15c-191 0 -323 146 -323 367c0 248 141 383 319 383c149 0 266 -77 291 -226h-36c-27 129 -124 193 -255 193c-158 0 -281 -126 -281 -350c0 -206 123 -334 285 -334c134 0 230 78 249 215h37c-18 -141 -124 -248 -286 -248z" />
<glyph unicode="&#x422;" horiz-adv-x="563" d="M543 720v-33h-243v-687h-37v687h-243v33h523z" />
<glyph unicode="&#x423;" horiz-adv-x="543" d="M533 720l-233 -548c-56 -133 -66 -187 -135 -187c-11 0 -29 3 -40 6v31c14 -3 30 -5 42 -5c41 0 55 38 97 155h-16l-238 548h39l225 -519l222 519h37z" />
<glyph unicode="&#x424;" horiz-adv-x="771" d="M367 735h37v-35c172 -2 312 -116 312 -341c0 -208 -139 -337 -312 -339v-35h-37v35c-174 2 -312 131 -312 339c0 225 139 339 312 341v35zM678 359c0 190 -107 306 -274 308v-614c145 2 274 108 274 306zM93 359c0 -198 129 -304 274 -306v614 c-167 -2 -274 -118 -274 -308z" />
<glyph unicode="&#x425;" horiz-adv-x="596" d="M567 720l-244 -348l253 -372h-44l-234 345l-235 -345h-43l256 374l-236 346h44l217 -319l225 319h41z" />
<glyph unicode="&#x426;" horiz-adv-x="676" d="M85 0v720h37v-686h432v686h37v-686h50v-174h-34v140h-522z" />
<glyph unicode="&#x427;" horiz-adv-x="625" d="M503 720h37v-720h-37v374c-35 -75 -109 -116 -206 -116c-141 0 -227 76 -227 225v237h37v-241c0 -128 74 -188 201 -188c124 0 195 76 195 191v238z" />
<glyph unicode="&#x428;" horiz-adv-x="987" d="M865 720h37v-720h-817v720h37v-686h353v686h37v-686h353v686z" />
<glyph unicode="&#x429;" horiz-adv-x="987" d="M865 720h37v-686h50v-174h-34v140h-833v720h37v-686h353v686h37v-686h353v686z" />
<glyph unicode="&#x42a;" horiz-adv-x="804" d="M10 687v33h292v-284h208c155 0 244 -84 244 -222c0 -132 -105 -214 -246 -214h-243v687h-255zM513 403h-211v-369h206c126 0 207 68 207 180c0 118 -75 189 -202 189z" />
<glyph unicode="&#x42b;" horiz-adv-x="742" d="M85 720h37v-284h208c155 0 244 -84 244 -222c0 -132 -105 -214 -246 -214h-243v720zM333 403h-211v-369h206c126 0 207 68 207 180c0 118 -75 189 -202 189zM620 720h37v-720h-37v720z" />
<glyph unicode="&#x42c;" horiz-adv-x="624" d="M85 720h37v-284h208c155 0 244 -84 244 -222c0 -132 -105 -214 -246 -214h-243v720zM333 403h-211v-369h206c126 0 207 68 207 180c0 118 -75 189 -202 189z" />
<glyph unicode="&#x42d;" horiz-adv-x="715" d="M350 -15c-173 0 -280 102 -299 248h38c19 -137 120 -215 261 -215c168 0 269 130 272 332h-366v33h365c-8 209 -126 319 -278 319c-133 0 -230 -64 -256 -193h-37c24 149 143 226 293 226c178 0 317 -127 317 -375c0 -219 -109 -375 -310 -375z" />
<glyph unicode="&#x42e;" horiz-adv-x="1004" d="M642 -15c-164 0 -304 131 -307 366h-218v-351h-37v720h37v-335h218c10 239 147 350 307 350c165 0 307 -134 307 -376c0 -256 -141 -374 -307 -374zM642 18c137 0 269 95 269 341c0 223 -122 343 -269 343c-160 0 -269 -121 -269 -343c0 -230 132 -341 269 -341z" />
<glyph unicode="&#x42f;" horiz-adv-x="633" d="M64 0h-44l199 308c-77 18 -160 67 -160 193c0 140 84 219 216 219h273v-720h-37v304h-253zM98 501c0 -103 72 -163 170 -163h243v349h-241c-122 0 -172 -88 -172 -186z" />
<glyph unicode="&#x430;" horiz-adv-x="520" d="M103 390h-36c8 86 85 145 193 145s185 -62 185 -167v-368h-29l-6 93c-31 -57 -92 -108 -188 -108s-172 51 -172 146c0 87 53 140 201 165l158 26v53c0 79 -57 130 -151 130c-87 0 -148 -48 -155 -115zM409 183v109l-144 -24c-138 -23 -178 -66 -178 -135 c0 -79 61 -117 145 -117c87 0 177 67 177 167z" />
<glyph unicode="&#x431;" horiz-adv-x="565" d="M87 234c0 -138 86 -219 196 -219c108 0 195 87 195 219s-79 219 -190 219c-107 0 -201 -76 -201 -219zM82 349c35 82 118 134 206 134c134 0 227 -100 227 -249s-104 -249 -230 -249c-133 0 -235 76 -235 305s71 333 193 362c78 18 152 36 152 68h42 c0 -57 -122 -81 -174 -92c-121 -26 -156 -98 -181 -279z" />
<glyph unicode="&#x432;" horiz-adv-x="498" d="M275 0h-195v520h196c95 0 163 -36 163 -119c0 -67 -41 -109 -108 -128c68 -14 127 -55 127 -130c0 -100 -80 -143 -183 -143zM272 32c73 0 150 17 150 109c0 74 -75 114 -149 114h-157v-223h156zM404 397c0 64 -44 91 -129 91h-159v-200h155c61 0 133 42 133 109z" />
<glyph unicode="&#x433;" horiz-adv-x="379" d="M116 0h-36v520h279v-32h-243v-488z" />
<glyph unicode="&#x434;" horiz-adv-x="521" d="M20 32h41c19 17 32 31 34 80l20 408h326v-488h40v-172h-34v140h-393v-140h-34v172zM131 119c-2 -45 -18 -70 -35 -87h309v456h-256z" />
<glyph unicode="&#x435;" horiz-adv-x="568" d="M465 138h38c-25 -94 -105 -153 -210 -153c-138 0 -243 99 -243 275c0 177 102 275 231 275s232 -92 232 -284h-426c4 -161 95 -235 207 -235c84 0 150 44 171 122zM281 505c-103 0 -187 -78 -194 -223h388c-7 148 -90 223 -194 223z" />
<glyph unicode="&#x436;" horiz-adv-x="698" d="M40 520h42l161 -221h89v221h34v-221h88l162 221h42l-176 -237l211 -283h-43l-198 267h-86v-267h-34v267h-86l-198 -267h-43l211 283z" />
<glyph unicode="&#x437;" horiz-adv-x="467" d="M239 505c-92 0 -150 -50 -163 -125h-37c17 93 91 155 201 155c100 0 168 -51 168 -134c0 -67 -41 -109 -108 -128c68 -14 127 -55 127 -130c0 -100 -82 -158 -189 -158c-116 0 -185 66 -202 162h36c13 -76 70 -131 163 -131c77 0 156 33 156 125c0 74 -75 114 -149 114 h-45v33h43c61 0 133 42 133 109c0 64 -44 108 -134 108z" />
<glyph unicode="&#x438;" horiz-adv-x="547" d="M116 0h-36v520h36v-447l315 425v22h36v-520h-36v447l-315 -425v-22z" />
<glyph unicode="&#x439;" horiz-adv-x="547" d="M116 0h-36v520h36v-447l315 425v22h36v-520h-36v447l-315 -425v-22zM278 598c-75 1 -128 32 -133 112h34c3 -55 37 -82 99 -82s96 27 99 82h34c-5 -80 -58 -111 -133 -112z" />
<glyph unicode="&#x43a;" horiz-adv-x="474" d="M116 0h-36v520h36v-221h55l217 221h46l-231 -237l266 -283h-45l-253 267h-55v-267z" />
<glyph unicode="&#x43b;" horiz-adv-x="508" d="M428 0h-36v488h-254l-30 -375c-6 -75 -20 -113 -88 -113v34c27 0 48 0 54 75l32 411h322v-520z" />
<glyph unicode="&#x43c;" horiz-adv-x="637" d="M340 0h-44l-181 479v-479h-35v520h57l182 -482l182 482h56v-520h-36v474z" />
<glyph unicode="&#x43d;" horiz-adv-x="552" d="M116 0h-36v520h36v-235h320v235h36v-520h-36v253h-320v-253z" />
<glyph unicode="&#x43e;" horiz-adv-x="565" d="M87 260c0 -163 86 -245 196 -245c113 0 195 82 195 245c0 164 -82 245 -195 245s-196 -82 -196 -245zM50 260c0 181 100 275 233 275c136 0 232 -95 232 -275c0 -181 -98 -275 -230 -275c-133 0 -235 96 -235 275z" />
<glyph unicode="&#x43f;" horiz-adv-x="552" d="M116 0h-36v520h392v-520h-36v488h-320v-488z" />
<glyph unicode="&#x440;" horiz-adv-x="568" d="M80 520h29l6 -109c31 72 97 124 188 124c124 0 215 -86 215 -268c0 -186 -98 -282 -220 -282c-87 0 -151 48 -182 119v-284h-36v700zM481 268c0 163 -78 237 -184 237c-89 0 -185 -63 -185 -247c0 -164 78 -243 181 -243c104 0 188 82 188 253z" />
<glyph unicode="&#x441;" horiz-adv-x="534" d="M447 147h37c-17 -95 -99 -162 -209 -162c-126 0 -225 93 -225 271c0 188 105 279 227 279c108 0 187 -62 204 -155h-38c-13 75 -78 125 -165 125c-106 0 -192 -81 -192 -251c0 -163 88 -238 191 -238c88 0 157 55 170 131z" />
<glyph unicode="&#x442;" horiz-adv-x="472" d="M254 0h-36v488h-203v32h442v-32h-203v-488z" />
<glyph unicode="&#x443;" horiz-adv-x="490" d="M470 520l-186 -523c-55 -153 -70 -192 -136 -192c-17 0 -37 5 -51 10v30c17 -6 37 -10 52 -10c44 0 58 39 100 165h-17l-212 520h39l200 -494l174 494h37z" />
<glyph unicode="&#x444;" horiz-adv-x="826" d="M395 720h36v-308c27 71 83 123 160 123c104 0 185 -86 185 -268c0 -186 -88 -282 -190 -282c-73 0 -128 48 -155 120v-285h-36v285c-28 -72 -83 -120 -155 -120c-102 0 -190 96 -190 282c0 182 81 268 185 268c76 0 132 -52 160 -123v308zM739 268 c0 163 -68 237 -154 237c-69 0 -155 -63 -155 -247c0 -164 68 -243 151 -243c84 0 158 82 158 253zM87 268c0 -171 74 -253 158 -253c83 0 151 79 151 243c0 184 -86 247 -155 247c-86 0 -154 -74 -154 -237z" />
<glyph unicode="&#x445;" horiz-adv-x="504" d="M453 520l-182 -246l213 -274h-45l-192 248l-184 -248h-43l205 274l-196 246h46l175 -220l161 220h42z" />
<glyph unicode="&#x446;" horiz-adv-x="552" d="M436 520h36v-488h40v-172h-34v140h-398v520h36v-488h320v488z" />
<glyph unicode="&#x447;" horiz-adv-x="537" d="M70 520h36v-193c0 -99 58 -149 148 -149s167 78 167 180v162h36v-520h-36v254c-36 -74 -109 -106 -175 -106c-100 0 -176 59 -176 177v195z" />
<glyph unicode="&#x448;" horiz-adv-x="807" d="M691 520h36v-520h-647v520h36v-488h270v488h36v-488h269v488z" />
<glyph unicode="&#x449;" horiz-adv-x="807" d="M691 520h36v-488h40v-172h-34v140h-653v520h36v-488h270v488h36v-488h269v488z" />
<glyph unicode="&#x44a;" horiz-adv-x="632" d="M10 520h235v-187h128c143 0 209 -72 209 -158c0 -115 -71 -175 -219 -175h-154v488h-199v32zM372 301h-127v-269h122c129 0 178 49 178 142c0 71 -47 127 -173 127z" />
<glyph unicode="&#x44b;" horiz-adv-x="614" d="M80 520h36v-187h128c143 0 209 -72 209 -158c0 -115 -71 -175 -219 -175h-154v520zM243 301h-127v-269h122c129 0 178 49 178 142c0 71 -47 127 -173 127zM534 0h-36v520h36v-520z" />
<glyph unicode="&#x44c;" horiz-adv-x="503" d="M80 520h36v-187h128c143 0 209 -72 209 -158c0 -115 -71 -175 -219 -175h-154v520zM243 301h-127v-269h122c129 0 178 49 178 142c0 71 -47 127 -173 127z" />
<glyph unicode="&#x44d;" horiz-adv-x="534" d="M50 147h37c13 -76 87 -131 180 -131c106 0 180 74 181 237h-249v32h248c-9 149 -78 220 -178 220c-99 0 -165 -50 -178 -125h-38c17 93 98 155 217 155c123 0 214 -91 214 -279c0 -177 -89 -271 -218 -271c-112 0 -199 67 -216 162z" />
<glyph unicode="&#x44e;" horiz-adv-x="767" d="M116 0h-36v520h36v-235h156c9 164 101 250 223 250c131 0 222 -95 222 -275c0 -181 -92 -275 -220 -275c-127 0 -223 93 -225 268h-156v-253zM309 260c0 -163 81 -245 186 -245c108 0 185 82 185 245c0 164 -76 245 -185 245c-108 0 -186 -82 -186 -245z" />
<glyph unicode="&#x44f;" horiz-adv-x="523" d="M60 0h-40l165 210c-64 14 -115 68 -115 146c0 106 64 164 202 164h171v-520h-36v207h-183zM230 239h177v249h-139c-120 0 -161 -47 -161 -131c0 -73 47 -118 123 -118z" />
<glyph unicode="&#x451;" horiz-adv-x="568" d="M465 138h38c-25 -94 -105 -153 -210 -153c-138 0 -243 99 -243 275c0 177 102 275 231 275s232 -92 232 -284h-426c4 -161 95 -235 207 -235c84 0 150 44 171 122zM281 505c-103 0 -187 -78 -194 -223h388c-7 148 -90 223 -194 223zM206 663h-46v57h46v-57zM402 663h-46 v57h46v-57z" />
<glyph unicode="&#x452;" horiz-adv-x="547" d="M116 0h-36v620h-54v31h54v69h36v-69h181v-31h-181v-198c33 73 103 113 178 113c108 0 178 -68 178 -175v-437c0 -78 -36 -118 -99 -118c-22 0 -45 3 -70 11v32c21 -7 48 -11 65 -11c44 0 68 24 68 88v433c0 91 -55 147 -150 147c-81 0 -170 -69 -170 -180v-325z" />
<glyph unicode="&#x453;" horiz-adv-x="379" d="M116 0h-36v520h279v-32h-243v-488zM148 598l103 137h53l-122 -137h-34z" />
<glyph unicode="&#x454;" horiz-adv-x="534" d="M447 147h37c-17 -95 -99 -162 -209 -162c-126 0 -225 93 -225 271c0 188 105 279 227 279c108 0 187 -62 204 -155h-38c-13 75 -78 125 -165 125c-100 0 -181 -71 -191 -220h248v-32h-249c0 -163 88 -237 191 -237c88 0 157 55 170 131z" />
<glyph unicode="&#x455;" horiz-adv-x="491" d="M403 136c0 69 -50 103 -179 123c-98 15 -168 58 -168 142c0 73 60 134 184 134c105 0 184 -56 199 -140h-38c-8 62 -75 110 -164 110c-99 0 -144 -47 -144 -101c0 -64 40 -96 156 -116c138 -24 192 -68 192 -151c0 -78 -74 -152 -198 -152c-119 0 -190 62 -203 148h38 c7 -68 70 -117 166 -117c103 0 159 58 159 120z" />
<glyph unicode="&#x456;" horiz-adv-x="184" d="M110 0h-36v520h36v-520zM115 663h-46v57h46v-57z" />
<glyph unicode="&#x457;" horiz-adv-x="184" d="M110 0h-36v520h36v-520zM17 663h-46v57h46v-57zM213 663h-46v57h46v-57z" />
<glyph unicode="&#x458;" horiz-adv-x="184" d="M-59 -184v32c21 -7 48 -11 65 -11c44 0 68 24 68 88v595h36v-597c0 -78 -36 -118 -99 -118c-22 0 -45 3 -70 11zM115 663h-46v57h46v-57z" />
<glyph unicode="&#x459;" horiz-adv-x="785" d="M106 520h292v-187h128c143 0 209 -72 209 -158c0 -115 -71 -175 -219 -175h-154v488h-222l-30 -375c-6 -75 -22 -113 -90 -113v34c27 0 48 0 54 75zM525 301h-127v-269h122c129 0 178 49 178 142c0 71 -47 127 -173 127z" />
<glyph unicode="&#x45a;" horiz-adv-x="829" d="M116 0h-36v520h36v-235h290v235h36v-187h128c143 0 209 -72 209 -158c0 -115 -71 -175 -219 -175h-154v253h-290v-253zM569 301h-127v-269h122c129 0 178 49 178 142c0 71 -47 127 -173 127z" />
<glyph unicode="&#x45b;" horiz-adv-x="547" d="M116 0h-36v620h-54v31h54v69h36v-69h181v-31h-181v-198c33 73 103 113 178 113c108 0 178 -68 178 -175v-360h-36v358c0 91 -55 147 -150 147c-81 0 -170 -70 -170 -181v-324z" />
<glyph unicode="&#x45c;" horiz-adv-x="474" d="M116 0h-36v520h36v-221h55l217 221h46l-231 -237l266 -283h-45l-253 267h-55v-267zM189 598l103 137h53l-122 -137h-34z" />
<glyph unicode="&#x45e;" horiz-adv-x="490" d="M470 520l-186 -523c-55 -153 -70 -192 -136 -192c-17 0 -37 5 -51 10v30c17 -6 37 -10 52 -10c44 0 58 39 100 165h-17l-212 520h39l200 -494l174 494h37zM251 598c-75 1 -128 32 -133 112h34c3 -55 37 -82 99 -82s96 27 99 82h34c-5 -80 -58 -111 -133 -112z" />
<glyph unicode="&#x45f;" horiz-adv-x="552" d="M436 520h36v-520h-179v-140h-34v140h-179v520h36v-486h320v486z" />
<glyph unicode="&#x462;" horiz-adv-x="782" d="M486 0h-243v687h-223v33h483v-33h-223v-251h208c155 0 244 -84 244 -222c0 -132 -105 -214 -246 -214zM491 403h-211v-369h206c126 0 207 68 207 180c0 118 -75 189 -202 189z" />
<glyph unicode="&#x463;" horiz-adv-x="503" d="M240 489h-124v-156h128c143 0 209 -72 209 -158c0 -115 -71 -175 -219 -175h-154v489h-75v31h75v125h36v-125h124v-31zM243 301h-127v-269h122c129 0 178 49 178 142c0 71 -47 127 -173 127z" />
<glyph unicode="&#x472;" horiz-adv-x="744" d="M372 -15c-176 0 -317 134 -317 374c0 242 142 376 317 376s317 -134 317 -376c0 -245 -141 -374 -317 -374zM372 18c145 0 276 103 279 333h-558c3 -225 133 -333 279 -333zM372 702c-151 0 -270 -111 -279 -317h557c-9 206 -128 317 -278 317z" />
<glyph unicode="&#x473;" horiz-adv-x="565" d="M50 260c0 181 100 275 233 275c136 0 232 -95 232 -275c0 -181 -98 -275 -230 -275c-133 0 -235 96 -235 275zM283 15c111 0 192 79 195 236h-391c3 -157 88 -236 196 -236zM283 505c-108 0 -189 -75 -196 -223h390c-7 149 -86 223 -194 223z" />
<glyph unicode="&#x474;" horiz-adv-x="618" d="M10 720h38l260 -691l264 691h36l-272 -720h-55z" />
<glyph unicode="&#x475;" horiz-adv-x="490" d="M433 520h37l-201 -520h-48l-201 520h39l186 -488z" />
<glyph unicode="&#x490;" horiz-adv-x="485" d="M85 720h346v140h34v-173h-343v-687h-37v720z" />
<glyph unicode="&#x491;" horiz-adv-x="379" d="M116 0h-36v520h245v140h34v-172h-243v-488z" />
<glyph unicode="&#x492;" horiz-adv-x="485" d="M465 720v-33h-343v-304h223v-33h-223v-350h-37v350h-90v33h90v337h380z" />
<glyph unicode="&#x493;" horiz-adv-x="379" d="M359 488h-243v-203h159v-32h-159v-253h-36v253h-50v32h50v235h279v-32z" />
<glyph unicode="&#x496;" horiz-adv-x="819" d="M44 720h42l199 -337h108v337h36v-337h107l200 337h42l-209 -349l216 -337h44v-174h-34v140h-30l-224 350h-112v-350h-36v350h-112l-224 -350h-42l238 371z" />
<glyph unicode="&#x497;" horiz-adv-x="699" d="M40 520h42l161 -221h89v221h34v-221h88l162 221h42l-176 -237l187 -251h35v-172h-34v140h-20l-198 267h-86v-267h-34v267h-86l-198 -267h-43l211 283z" />
<glyph unicode="&#x498;" horiz-adv-x="588" d="M429 -143c0 -52 -45 -95 -108 -95c-59 0 -105 28 -113 82h33c4 -35 38 -53 81 -53c45 0 75 28 75 65c0 40 -32 67 -115 67l4 62c-123 2 -216 62 -236 168h39c18 -88 97 -136 205 -136c122 0 200 69 200 183c0 106 -72 165 -178 165h-82v33h78c102 0 164 65 164 156 c0 93 -69 149 -180 149c-109 0 -178 -48 -197 -136h-39c21 105 107 168 237 168c128 0 217 -68 217 -177c0 -96 -45 -155 -134 -176c87 -10 153 -76 153 -180c0 -129 -86 -207 -216 -216v-38c74 -7 112 -43 112 -91z" />
<glyph unicode="&#x499;" horiz-adv-x="467" d="M362 -143c0 -52 -45 -95 -108 -95c-59 0 -105 28 -113 82h33c4 -35 38 -53 81 -53c45 0 75 28 75 65c0 40 -32 67 -115 67l5 63c-105 6 -168 70 -184 161h36c13 -76 70 -131 163 -131c77 0 156 33 156 125c0 74 -75 114 -149 114h-45v33h43c61 0 133 42 133 109 c0 64 -44 108 -134 108c-92 0 -150 -50 -163 -125h-37c17 93 91 155 201 155c100 0 168 -51 168 -134c0 -67 -41 -109 -108 -128c68 -14 127 -55 127 -130c0 -97 -76 -154 -177 -158v-37c74 -7 112 -43 112 -91z" />
<glyph unicode="&#x49a;" horiz-adv-x="580" d="M491 720h45l-324 -352l320 -334h48v-174h-34v140h-32l-335 350h-57v-350h-37v720h37v-337h59z" />
<glyph unicode="&#x49b;" horiz-adv-x="474" d="M116 0h-36v520h36v-221h55l217 221h46l-231 -237l236 -251h39v-172h-34v140h-21l-252 267h-55v-267z" />
<glyph unicode="&#x49c;" horiz-adv-x="610" d="M211 63h-30v287h-59v-350h-37v720h37v-337h59v208h30v-208l310 337h45l-324 -352l353 -368h-50l-334 349v-286z" />
<glyph unicode="&#x49d;" horiz-adv-x="494" d="M156 401h32v-102h3l217 221h46l-231 -237l266 -283h-45l-253 267h-3v-214h-32v214h-40v-267h-36v520h36v-221h40v102z" />
<glyph unicode="&#x4a0;" horiz-adv-x="760" d="M745 0h-51l-335 350h-57v-350h-37v687h-255v33h292v-337h59l310 337h45l-324 -352z" />
<glyph unicode="&#x4a1;" horiz-adv-x="603" d="M245 0h-36v488h-199v32h235v-221h55l217 221h46l-231 -237l266 -283h-45l-253 267h-55v-267z" />
<glyph unicode="&#x4a2;" horiz-adv-x="676" d="M554 720h37v-686h50v-174h-34v140h-53v351h-432v-351h-37v720h37v-335h432v335z" />
<glyph unicode="&#x4a3;" horiz-adv-x="552" d="M116 0h-36v520h36v-235h320v235h36v-488h40v-172h-34v140h-42v253h-320v-253z" />
<glyph unicode="&#x4aa;" horiz-adv-x="715" d="M522 -149h35c-17 -55 -66 -86 -119 -86c-64 0 -108 38 -108 100c0 48 36 91 88 123c-13 -2 -26 -3 -40 -3c-191 0 -323 146 -323 367c0 248 141 383 319 383c149 0 266 -77 291 -226h-36c-27 129 -124 193 -255 193c-158 0 -281 -126 -281 -350c0 -206 123 -334 285 -334 c134 0 230 78 249 215h37c-12 -93 -68 -177 -140 -212c-89 -43 -161 -86 -161 -153c0 -48 30 -73 77 -73c42 0 70 22 82 56z" />
<glyph unicode="&#x4ab;" horiz-adv-x="534" d="M394 -149h35c-17 -55 -66 -86 -119 -86c-64 0 -108 38 -108 100c0 47 35 89 85 120h-12c-126 0 -225 93 -225 271c0 188 105 279 227 279c108 0 187 -62 204 -155h-38c-13 75 -78 125 -165 125c-106 0 -192 -81 -192 -251c0 -163 88 -238 191 -238c88 0 157 55 170 131 h37c-13 -73 -61 -124 -129 -149c-67 -25 -120 -77 -120 -130c0 -48 30 -73 77 -73c42 0 70 22 82 56z" />
<glyph unicode="&#x4ae;" horiz-adv-x="620" d="M10 720h40l259 -403l263 403h38l-282 -439v-281h-37v283z" />
<glyph unicode="&#x4af;" horiz-adv-x="490" d="M263 -180h-36v180l-207 520h39l186 -484l188 484h37l-207 -520v-180z" />
<glyph unicode="&#x4b0;" horiz-adv-x="620" d="M10 720h40l259 -403l263 403h38l-266 -414h136v-33h-152v-273h-37v273h-152v33h137z" />
<glyph unicode="&#x4b1;" horiz-adv-x="490" d="M433 520h37l-195 -488h101v-32h-113v-180h-36v180h-116v32h103l-194 488h39l186 -484z" />
<glyph unicode="&#x4b2;" horiz-adv-x="595" d="M567 720l-244 -348l230 -338h44v-174h-34v140h-31l-234 345l-235 -345h-43l256 374l-236 346h44l217 -319l225 319h41z" />
<glyph unicode="&#x4b3;" horiz-adv-x="503" d="M453 520l-182 -246l188 -242h34v-172h-34v140h-20l-192 248l-184 -248h-43l205 274l-196 246h46l175 -220l161 220h42z" />
<glyph unicode="&#x4b8;" horiz-adv-x="625" d="M323 63h-30v195c-139 1 -223 77 -223 225v237h37v-241c0 -123 68 -183 186 -188v300h30v-300c114 6 180 79 180 189v240h37v-720h-37v374c-32 -68 -96 -108 -180 -115v-196z" />
<glyph unicode="&#x4b9;" horiz-adv-x="537" d="M244 401h32v-222c82 12 145 86 145 184v157h36v-520h-36v254c-31 -63 -88 -95 -145 -104v-97h-32v95c-99 1 -174 60 -174 177v195h36v-193c0 -96 53 -145 138 -149v223z" />
<glyph unicode="&#x4ba;" horiz-adv-x="625" d="M122 0h-37v720h37v-370c36 73 111 112 206 112c135 0 227 -74 227 -225v-237h-37v241c0 130 -81 188 -201 188c-124 0 -195 -80 -195 -196v-233z" />
<glyph unicode="&#x4bb;" horiz-adv-x="547" d="M116 0h-36v720h36v-390c33 73 103 113 178 113c108 0 178 -68 178 -175v-268h-36v266c0 91 -55 147 -150 147c-81 0 -170 -69 -170 -180v-233z" />
<glyph unicode="&#x4c0;" horiz-adv-x="207" d="M85 720h37v-720h-37v720z" />
<glyph unicode="&#x4cb;" horiz-adv-x="625" d="M503 720h37v-686h50v-174h-34v140h-53v374c-35 -75 -109 -116 -206 -116c-141 0 -227 76 -227 225v237h37v-241c0 -128 74 -188 201 -188s195 78 195 198v231z" />
<glyph unicode="&#x4cc;" horiz-adv-x="537" d="M70 520h36v-193c0 -99 58 -149 148 -149s167 79 167 181v161h36v-488h40v-172h-34v140h-42v254c-36 -74 -109 -106 -175 -106c-100 0 -176 59 -176 177v195z" />
<glyph unicode="&#x4cf;" horiz-adv-x="196" d="M116 720v-720h-36v720h36z" />
<glyph unicode="&#x4d8;" horiz-adv-x="715" d="M348 -15c-194 0 -288 134 -303 370h577c-1 230 -112 347 -270 347c-147 0 -233 -61 -264 -183h-37c32 149 148 216 301 216c178 0 308 -127 308 -375c0 -221 -121 -375 -312 -375zM348 18c152 0 259 119 272 304h-532c12 -207 113 -304 260 -304z" />
<glyph unicode="&#x4d9;" horiz-adv-x="568" d="M103 382h-38c25 94 115 153 220 153c135 0 233 -100 233 -275c0 -176 -100 -275 -229 -275s-234 92 -234 284h426c-4 160 -86 235 -197 235c-84 0 -160 -44 -181 -122zM289 15c102 0 185 79 191 223h-388c7 -148 92 -223 197 -223z" />
<glyph unicode="&#x4e2;" horiz-adv-x="673" d="M552 684v36h36v-720h-36v631l-433 -594v-37h-34v720h34v-631zM451 831h-230v32h230v-32z" />
<glyph unicode="&#x4e3;" horiz-adv-x="547" d="M116 0h-36v520h36v-447l315 425v22h36v-520h-36v447l-315 -425v-22zM388 661h-230v32h230v-32z" />
<glyph unicode="&#x4e8;" horiz-adv-x="744" d="M372 -15c-176 0 -317 134 -317 374c0 242 142 376 317 376s317 -134 317 -376c0 -245 -141 -374 -317 -374zM372 18c145 0 276 103 279 333h-558c3 -225 133 -333 279 -333zM372 702c-151 0 -270 -111 -279 -317h557c-9 206 -128 317 -278 317z" />
<glyph unicode="&#x4e9;" horiz-adv-x="565" d="M50 260c0 181 100 275 233 275c136 0 232 -95 232 -275c0 -181 -98 -275 -230 -275c-133 0 -235 96 -235 275zM283 15c111 0 192 79 195 236h-391c3 -157 88 -236 196 -236zM283 505c-108 0 -189 -75 -196 -223h390c-7 149 -86 223 -194 223z" />
<glyph unicode="&#x4ee;" horiz-adv-x="543" d="M533 720l-233 -548c-56 -133 -66 -187 -135 -187c-11 0 -29 3 -40 6v31c14 -3 30 -5 42 -5c41 0 55 38 97 155h-16l-238 548h39l225 -519l222 519h37zM386 831h-230v32h230v-32z" />
<glyph unicode="&#x4ef;" horiz-adv-x="490" d="M470 520l-186 -523c-55 -153 -70 -192 -136 -192c-17 0 -37 5 -51 10v30c17 -6 37 -10 52 -10c44 0 58 39 100 165h-17l-212 520h39l200 -494l174 494h37zM360 661h-230v32h230v-32z" />
<glyph unicode="&#x2012;" horiz-adv-x="540" d="M470 339v-34h-400v34h400z" />
<glyph unicode="&#x2013;" horiz-adv-x="400" d="M400 339v-34h-400v34h400z" />
<glyph unicode="&#x2014;" d="M600 339v-34h-600v34h600z" />
<glyph unicode="&#x2015;" horiz-adv-x="400" d="M400 339v-34h-400v34h400z" />
<glyph unicode="&#x2018;" horiz-adv-x="270" d="M104 521v61c0 77 34 120 93 138v-29c-39 -16 -55 -46 -55 -106h18v-64h-56z" />
<glyph unicode="&#x2019;" horiz-adv-x="270" d="M166 720v-61c0 -77 -34 -120 -93 -138v29c39 16 55 46 55 106h-18v64h56z" />
<glyph unicode="&#x201a;" horiz-adv-x="270" d="M166 64v-61c0 -77 -34 -120 -93 -138v29c39 16 55 46 55 106h-18v64h56z" />
<glyph unicode="&#x201c;" horiz-adv-x="398" d="M107 521v61c0 77 34 120 93 138v-29c-39 -16 -55 -46 -55 -106h18v-64h-56zM232 521v61c0 77 34 120 93 138v-29c-39 -16 -55 -46 -55 -106h18v-64h-56z" />
<glyph unicode="&#x201d;" horiz-adv-x="395" d="M166 720v-61c0 -77 -34 -120 -93 -138v29c39 16 55 46 55 106h-18v64h56zM291 720v-61c0 -77 -34 -120 -93 -138v29c39 16 55 46 55 106h-18v64h56z" />
<glyph unicode="&#x201e;" horiz-adv-x="395" d="M166 64v-61c0 -77 -34 -120 -93 -138v29c39 16 55 46 55 106h-18v64h56zM291 64v-61c0 -77 -34 -120 -93 -138v29c39 16 55 46 55 106h-18v64h56z" />
<glyph unicode="&#x2020;" d="M282 720h36v-212h202v-34h-202v-474h-36v474h-202v34h202v212z" />
<glyph unicode="&#x2021;" d="M282 720h36v-192h202v-34h-202v-268h202v-34h-202v-192h-36v192h-202v34h202v268h-202v34h202v192z" />
<glyph unicode="&#x2022;" horiz-adv-x="295" d="M205 260h-115v116h115v-116z" />
<glyph unicode="&#x2026;" horiz-adv-x="586" d="M158 0h-46v64h46v-64zM316 0h-46v64h46v-64zM474 0h-46v64h46v-64z" />
<glyph unicode="&#x2030;" horiz-adv-x="1194" d="M585 700l-313 -700h-35l313 700h35zM93 546c0 -98 60 -140 126 -140c65 0 127 42 127 140s-61 140 -127 140s-126 -42 -126 -140zM380 546c0 -113 -74 -169 -161 -169s-160 56 -160 169s74 169 160 169c87 0 161 -56 161 -169zM478 154c0 -98 60 -140 126 -140 c65 0 127 42 127 140s-61 140 -127 140s-126 -42 -126 -140zM765 154c0 -113 -74 -169 -161 -169s-160 56 -160 169s74 169 160 169c87 0 161 -56 161 -169zM858 154c0 -98 60 -140 126 -140c65 0 127 42 127 140s-61 140 -127 140s-126 -42 -126 -140zM1145 154 c0 -113 -74 -169 -161 -169s-160 56 -160 169s74 169 160 169c87 0 161 -56 161 -169z" />
<glyph unicode="&#x2039;" horiz-adv-x="279" d="M174 90l-109 225l119 205h30l-106 -207l96 -223h-30z" />
<glyph unicode="&#x203a;" horiz-adv-x="279" d="M214 315l-109 -225h-30l96 223l-106 207h30z" />
<glyph unicode="&#x2044;" horiz-adv-x="270" d="M377 790l-455 -880h-34l454 880h35z" />
<glyph unicode="&#x2074;" horiz-adv-x="340" d="M198 660h29v-121h67v-29h-67v-90h-34v90h-148v30l84 260h34l-85 -261h115v20z" />
<glyph unicode="&#x20ac;" d="M349 -15c-117 0 -222 71 -241 278h-80l8 32h69c-2 17 -2 36 -2 55c0 21 0 41 2 60h-77l8 32h72c20 209 124 273 238 273c117 0 203 -63 224 -168h-37c-19 88 -87 136 -189 136c-93 0 -180 -53 -198 -241h313l-8 -32h-308c-2 -19 -2 -39 -2 -60c0 -20 0 -38 2 -55h276 l-8 -32h-265c17 -186 106 -246 204 -246c101 0 166 48 185 136h37c-21 -105 -107 -168 -223 -168z" />
<glyph unicode="&#x2116;" horiz-adv-x="1093" d="M590 720h34v-720h-39l-464 668v-668h-36v720h41l464 -663v663zM778 513c0 -140 60 -188 124 -188s122 48 122 188c0 141 -58 191 -122 191s-124 -51 -124 -191zM744 513c0 146 62 219 158 219s156 -71 156 -219s-63 -216 -155 -216c-93 0 -159 70 -159 216zM1043 34v-34 h-294v34h294z" />
<glyph unicode="&#x2122;" horiz-adv-x="820" d="M568 324h-29l-141 360v-360h-30v367h-148v-367h-31v367h-154v29h380l139 -358l136 358h45v-396h-31v360z" />
<glyph unicode="&#x2126;" horiz-adv-x="744" d="M413 0v34c125 0 238 85 238 328c0 220 -122 340 -279 340c-170 0 -279 -120 -279 -340c0 -222 107 -323 228 -328h10v-34h-236v34h122c-92 49 -162 162 -162 328c0 255 142 373 317 373s317 -134 317 -373c0 -174 -69 -281 -159 -328h119v-34h-236z" />
<glyph unicode="&#x212e;" horiz-adv-x="945" d="M875 339h-657v-218c42 -63 161 -97 255 -97s204 33 260 98h58c-73 -85 -180 -137 -319 -137c-229 0 -402 152 -402 362s181 368 402 368c214 0 403 -153 403 -376zM727 379v195c-56 61 -137 102 -254 102s-204 -39 -255 -101v-196h509z" />
<glyph unicode="&#x2153;" horiz-adv-x="880" d="M588 296h-34c13 54 59 85 120 85c65 0 107 -43 107 -100c0 -42 -24 -74 -69 -87c38 -8 84 -32 84 -99c0 -63 -50 -110 -123 -110c-58 0 -111 40 -121 88h36c11 -35 49 -59 84 -59c58 0 90 38 90 82c0 55 -44 82 -92 82h-23v27h28c40 0 73 36 73 75c0 45 -29 73 -75 73 s-75 -23 -85 -57zM684 790l-455 -880h-34l454 880h35zM303 320h-206v29h94v318l-108 -64v35l104 62h38v-351h78v-29z" />
<glyph unicode="&#x2154;" horiz-adv-x="880" d="M697 790l-455 -880h-34l454 880h35zM100 620h-34c14 56 60 95 125 95c73 0 118 -51 118 -110c0 -55 -28 -91 -71 -134l-116 -116h182v-30h-223v30l135 138c28 28 59 61 59 112c0 32 -20 82 -84 82c-47 0 -79 -27 -91 -67zM606 296h-34c13 54 59 85 120 85 c65 0 107 -43 107 -100c0 -42 -24 -74 -69 -87c38 -8 84 -32 84 -99c0 -63 -50 -110 -123 -110c-58 0 -111 40 -121 88h36c11 -35 49 -59 84 -59c58 0 90 38 90 82c0 55 -44 82 -92 82h-23v27h28c40 0 73 36 73 75c0 45 -29 73 -75 73s-75 -23 -85 -57z" />
<glyph unicode="&#x2190;" d="M261 620l-184 -236h503v-34h-503l184 -236h-45l-196 253l196 253h45z" />
<glyph unicode="&#x2191;" d="M553 409l-235 182v-504h-36v504l-235 -182v42l253 196l253 -196v-42z" />
<glyph unicode="&#x2192;" d="M339 114l183 236h-502v34h502l-183 236h45l196 -253l-196 -253h-45z" />
<glyph unicode="&#x2193;" d="M47 325l235 -183v505h36v-505l235 183v-42l-253 -196l-253 196v42z" />
<glyph unicode="&#x2194;" horiz-adv-x="900" d="M639 114l183 236h-745l184 -236h-45l-196 253l196 253h45l-184 -236h745l-183 236h45l196 -253l-196 -253h-45z" />
<glyph unicode="&#x2195;" d="M47 175l235 -183v749l-235 -182v42l253 196l253 -196v-42l-235 182v-749l235 183v-42l-253 -196l-253 196v42z" />
<glyph unicode="&#x2196;" d="M449 578l-298 -38l359 -358l-25 -25l-356 356l-37 -295l-30 29l40 318l318 40z" />
<glyph unicode="&#x2197;" d="M480 218l-38 295l-355 -356l-25 25l359 358l-298 38l29 27l318 -40l40 -318z" />
<glyph unicode="&#x2198;" d="M123 184l298 38l-359 358l25 25l355 -357l38 296l30 -29l-40 -318l-318 -40z" />
<glyph unicode="&#x2199;" d="M92 544l37 -296l356 357l25 -25l-359 -358l298 -38l-29 -27l-318 40l-40 318z" />
<glyph unicode="&#x2202;" horiz-adv-x="536" d="M133 696l9 29c139 -25 344 -118 344 -412c0 -184 -52 -328 -226 -328c-132 0 -210 107 -210 252c0 131 71 241 205 241c111 0 174 -71 194 -143c-9 260 -179 334 -316 361zM446 226v11c0 96 -61 209 -185 209c-96 0 -174 -61 -174 -212c0 -122 65 -216 173 -216 c114 0 171 69 186 208z" />
<glyph unicode="&#x2206;" horiz-adv-x="642" d="M632 0h-622l286 720h51zM322 686l-261 -654h517z" />
<glyph unicode="&#x220f;" d="M140 0h-36v668h-59v32h510v-32h-61v-668h-36v668h-318v-668z" />
<glyph unicode="&#x2211;" horiz-adv-x="641" d="M75 -138l255 413l-255 413v32h516v-32h-477l255 -413l-255 -413h477v-32h-516v32z" />
<glyph unicode="&#x2212;" d="M500 339v-34h-400v34h400z" />
<glyph unicode="&#x2215;" horiz-adv-x="270" d="M377 790l-455 -880h-34l454 880h35z" />
<glyph unicode="&#x2219;" horiz-adv-x="270" d="M166 289h-54v64h54v-64z" />
<glyph unicode="&#x221a;" horiz-adv-x="596" d="M267 0h-48l-189 460h38l175 -428l245 770h158v-32h-131z" />
<glyph unicode="&#x221e;" horiz-adv-x="720" d="M201 523c64 0 128 -37 161 -114c30 79 87 114 160 114c114 0 168 -88 168 -173c0 -80 -54 -173 -171 -173c-65 0 -129 37 -161 113c-30 -78 -87 -113 -160 -113c-114 0 -168 88 -168 173c0 80 54 173 171 173zM519 211c92 0 133 66 133 139s-46 139 -131 139 c-102 0 -141 -87 -147 -146c3 -23 39 -132 145 -132zM201 489c-92 0 -133 -66 -133 -139s46 -139 131 -139c102 0 141 87 147 146c-3 23 -39 132 -145 132z" />
<glyph unicode="&#x222b;" d="M118 -189v29c35 -4 54 -5 79 -5c42 0 85 24 85 90v879c0 76 53 121 121 121c29 0 48 -2 79 -6v-29c-35 4 -54 5 -79 5c-42 0 -85 -24 -85 -90v-879c0 -76 -53 -121 -121 -121c-29 0 -48 2 -79 6z" />
<glyph unicode="&#x2248;" d="M396 418c41 0 70 19 104 49v-41c-27 -21 -58 -40 -105 -40c-82 0 -122 59 -191 59c-41 0 -70 -19 -104 -49v41c27 21 58 40 105 40c82 0 122 -59 191 -59zM396 214c41 0 70 19 104 49v-41c-27 -21 -58 -40 -105 -40c-82 0 -122 59 -191 59c-41 0 -70 -19 -104 -49v41 c27 21 58 40 105 40c82 0 122 -59 191 -59z" />
<glyph unicode="&#x2260;" d="M500 234v-34h-256l-102 -160h-40l101 160h-103v34h125l112 176h-237v34h258l100 156h40l-99 -156h101v-34h-123l-112 -176h235z" />
<glyph unicode="&#x2264;" d="M142 333v-1l358 -157v-40l-400 183v29l400 193v-40zM500 34v-34h-400v34h400z" />
<glyph unicode="&#x2265;" d="M458 332v1l-358 167v40l400 -193v-29l-400 -183v40zM100 0v34h400v-34h-400z" />
<glyph unicode="&#x22c6;" d="M267 431l34 315l33 -315l229 220l-177 -263l316 22l-305 -88l257 -187l-290 129l76 -308l-139 285l-140 -285l77 308l-290 -129l256 187l-305 88l317 -22l-177 263z" />
<glyph unicode="&#x25af;" horiz-adv-x="547" d="M80 0v720h387v-720h-387zM114 34h319v652h-319v-652z" />
<glyph unicode="&#x25ca;" d="M476 350l-177 321l-175 -321l177 -323zM517 350l-194 -350h-46l-194 350l194 350h46z" />
<glyph unicode="&#xfb00;" horiz-adv-x="613" d="M618 723v-30c-24 7 -55 12 -76 12c-48 0 -77 -30 -77 -90v-95h121v-31h-121v-489h-36v489h-286v-489h-36v489h-77v31h77v48c0 97 36 161 169 161c56 0 119 -15 175 -36c19 27 51 42 91 42c24 0 51 -4 76 -12zM143 569v-49h286v94c0 20 3 38 8 53c-42 17 -106 32 -161 32 c-104 0 -133 -43 -133 -130z" />
<glyph unicode="&#xfb01;" horiz-adv-x="545" d="M465 0h-36v489h-286v-489h-36v489h-77v31h77v84c0 86 53 131 150 131c51 0 98 -11 123 -19v-30c-24 7 -74 19 -123 19c-76 0 -114 -30 -114 -100v-85h322v-520z" />
<glyph unicode="&#xfb02;" horiz-adv-x="545" d="M465 0h-36v682c-38 12 -106 23 -152 23c-103 0 -134 -43 -134 -130v-55h122v-31h-122v-489h-36v489h-77v31h77v54c0 97 39 161 170 161c47 0 113 -10 153 -21l35 6v-720z" />
<glyph unicode="&#xfb03;" horiz-adv-x="866" d="M786 0h-36v489h-286v-489h-36v489h-285v-489h-36v489h-77v31h77v48c0 97 36 161 169 161c58 0 122 -16 180 -38c25 29 66 44 122 44c51 0 98 -11 123 -19v-30c-24 7 -74 19 -123 19c-76 0 -114 -30 -114 -100v-85h322v-520zM428 604c0 23 4 44 12 61 c-42 18 -108 34 -164 34c-104 0 -133 -43 -133 -130v-49h285v84z" />
<glyph unicode="&#xfb04;" horiz-adv-x="867" d="M787 0h-36v682c-38 12 -106 23 -152 23c-103 0 -134 -43 -134 -130v-55h121v-31h-121v-489h-36v489h-286v-489h-36v489h-77v31h77v48c0 97 36 161 169 161c57 0 127 -16 186 -41c26 30 69 47 137 47c47 0 113 -10 153 -21l35 6v-720zM429 574c0 34 5 64 17 89 c-46 21 -116 36 -170 36c-104 0 -133 -43 -133 -130v-49h286v54z" />
<glyph horiz-adv-x="184" d="M110 0h-36v520h36v-520zM115 663h-46v57h46v-57z" />
<glyph horiz-adv-x="620" d="M311 17c121 0 198 106 198 332s-77 334 -198 334s-198 -108 -198 -334s77 -332 198 -332zM311 -15c-134 0 -235 109 -235 364c0 256 101 366 235 366s235 -110 235 -366s-101 -364 -235 -364z" />
<glyph horiz-adv-x="527" d="M447 0h-316v32h153v628l-164 -97v39l165 98h36v-668h126v-32z" />
<glyph horiz-adv-x="585" d="M109 537h-39c18 114 107 178 222 178s206 -72 206 -188c0 -90 -44 -150 -138 -247l-240 -246h377v-34h-424v34l274 283c73 76 115 131 115 210c0 95 -67 156 -171 156c-100 0 -170 -60 -182 -146z" />
<glyph horiz-adv-x="591" d="M275 -15c-119 0 -212 60 -233 168h37c18 -88 97 -136 197 -136c114 0 193 65 193 173c0 106 -69 165 -175 165h-78v33h74c102 0 161 62 161 146c0 93 -70 149 -173 149c-102 0 -170 -48 -189 -136h-37c21 105 105 168 227 168c121 0 208 -68 208 -177 c0 -88 -45 -145 -134 -166c87 -10 153 -76 153 -180c0 -130 -95 -207 -231 -207z" />
<glyph horiz-adv-x="607" d="M382 387h37v-223h126v-32h-126v-132h-37v132h-307v39l244 529h38l-246 -536h271v223z" />
<glyph horiz-adv-x="623" d="M298 -15c-110 0 -204 63 -226 175h37c20 -98 101 -143 192 -143c110 0 199 79 199 205c0 123 -79 194 -192 194c-102 0 -162 -55 -185 -89h-28l13 373h388v-32h-353l-12 -292c35 36 95 72 181 72c130 0 225 -83 225 -227s-106 -236 -239 -236z" />
<glyph horiz-adv-x="593" d="M510 581h-37c-20 65 -76 102 -150 102c-111 0 -211 -71 -214 -356c29 68 103 127 200 127c124 0 222 -85 222 -232s-98 -237 -222 -237c-181 0 -234 155 -234 333c0 316 123 397 248 397c87 0 165 -51 187 -134zM306 422c-96 0 -188 -66 -188 -187 c0 -78 40 -217 193 -217c95 0 184 74 184 200c0 132 -78 204 -189 204z" />
<glyph horiz-adv-x="557" d="M492 667l-326 -667h-39l327 667h-404v33h442v-33z" />
<glyph horiz-adv-x="612" d="M525 544c0 -106 -84 -150 -161 -172c87 -24 186 -77 186 -193c0 -110 -93 -194 -244 -194c-150 0 -244 86 -244 190c0 123 90 171 174 195c-70 21 -149 71 -149 169c0 118 106 176 219 176c114 0 219 -53 219 -171zM513 178c0 117 -116 162 -213 179 c-103 -24 -201 -63 -201 -180c0 -99 92 -160 207 -160c114 0 207 60 207 161zM123 542c0 -107 97 -142 179 -157c96 21 187 55 187 157c0 101 -90 142 -183 142c-87 0 -183 -41 -183 -142z" />
<glyph horiz-adv-x="594" d="M79 119h36c19 -66 84 -102 156 -102c125 0 211 90 214 356c-29 -69 -103 -127 -200 -127c-118 0 -222 79 -222 232c0 142 99 237 218 237c181 0 238 -155 238 -333c0 -297 -106 -397 -248 -397c-88 0 -171 52 -192 134zM288 278c96 0 188 66 188 187 c0 78 -40 217 -193 217c-102 0 -184 -81 -184 -200c0 -138 84 -204 189 -204z" />
<glyph horiz-adv-x="340" d="M126 360c0 -215 76 -363 159 -490h-34c-77 102 -161 273 -161 490s84 388 161 490h34c-83 -127 -159 -275 -159 -490z" />
<glyph horiz-adv-x="340" d="M214 360c0 215 -76 363 -159 490h34c77 -102 161 -273 161 -490s-84 -388 -161 -490h-34c83 127 159 275 159 490z" />
<glyph horiz-adv-x="540" d="M440 377v-34h-340v34h340z" />
<glyph horiz-adv-x="230" d="M200 -98v-32h-170v980h170v-32h-134v-916h134z" />
<glyph horiz-adv-x="230" d="M30 -130v32h134v916h-134v32h170v-980h-170z" />
<glyph horiz-adv-x="340" d="M60 378c57 0 95 37 95 101v238c0 83 35 132 135 132v-32c-79 0 -99 -35 -99 -95v-240c0 -66 -37 -111 -92 -122c55 -11 92 -56 92 -122v-240c0 -60 20 -95 99 -95v-32c-100 0 -135 49 -135 132v238c0 64 -38 101 -95 101v36z" />
<glyph horiz-adv-x="340" d="M280 378v-36c-57 0 -95 -37 -95 -101v-238c0 -83 -35 -132 -135 -132v32c79 0 99 35 99 95v240c0 66 37 111 92 122c-55 11 -92 56 -92 122v240c0 60 -20 95 -99 95v32c100 0 135 -49 135 -132v-238c0 -64 38 -101 95 -101z" />
<glyph horiz-adv-x="459" d="M174 145l-109 225l119 205h30l-106 -207l96 -223h-30zM354 145l-109 225l119 205h30l-106 -207l96 -223h-30z" />
<glyph horiz-adv-x="540" d="M440 377v-34h-340v34h340z" />
<glyph horiz-adv-x="459" d="M394 370l-109 -225h-30l96 223l-106 207h30zM214 370l-109 -225h-30l96 223l-106 207h30z" />
<glyph horiz-adv-x="400" d="M400 377v-34h-400v34h400z" />
<glyph d="M600 377v-34h-600v34h600z" />
<glyph horiz-adv-x="279" d="M174 145l-109 225l119 205h30l-106 -207l96 -223h-30z" />
<glyph horiz-adv-x="279" d="M214 370l-109 -225h-30l96 223l-106 207h30z" />
<glyph d="M300 -15c-134 0 -235 109 -235 364c0 256 101 366 235 366s235 -110 235 -366s-101 -364 -235 -364zM300 17c121 0 198 106 198 332c0 112 -19 195 -53 251l-273 -525c33 -39 76 -58 128 -58zM102 349c0 -108 17 -189 49 -244l273 523c-33 37 -75 55 -124 55 c-121 0 -198 -108 -198 -334z" />
<glyph horiz-adv-x="126" d="M96 720v-61c0 -61 -24 -92 -76 -110v24c32 15 42 38 42 83h-16v64h50z" />
<glyph horiz-adv-x="326" d="M163 598c-75 1 -128 32 -133 112h34c3 -55 37 -82 99 -82s96 27 99 82h34c-5 -80 -58 -111 -133 -112z" />
<glyph horiz-adv-x="141" d="M111 -90v-61c0 -63 -24 -99 -76 -117v23c32 15 44 46 44 91h-14v64h46z" />
</font>
</defs>
</svg>
