<?xml version="1.0" standalone="no"?>
<!DOCTYPE svg PUBLIC "-//W3C//DTD SVG 1.1//EN" "http://www.w3.org/Graphics/SVG/1.1/DTD/svg11.dtd" >
<svg xmlns="http://www.w3.org/2000/svg">
<metadata></metadata>
<defs>
<font id="ciscosanslight" horiz-adv-x="1228" >
<font-face units-per-em="2048" ascent="1618" descent="-430" />
<missing-glyph horiz-adv-x="614" />
<glyph horiz-adv-x="0" />
<glyph horiz-adv-x="0" />
<glyph horiz-adv-x="682" />
<glyph unicode="&#xd;" horiz-adv-x="614" />
<glyph unicode=" "  horiz-adv-x="614" />
<glyph unicode="&#x09;" horiz-adv-x="614" />
<glyph unicode="&#xa0;" horiz-adv-x="614" />
<glyph unicode="!" horiz-adv-x="557" d="M184 0v199h191v-199h-191zM186 1475h181l-27 -998h-127z" />
<glyph unicode="&#x22;" d="M190 1317v188h160v-188l-24 -313h-111zM496 1317v188h159v-188l-24 -313h-111z" />
<glyph unicode="#" d="M68 385v121h172l36 422h-167v121h178l35 385h137l-35 -385h436l35 385h137l-35 -385h164v-121h-174l-37 -422h170v-121h-180l-33 -385h-137l33 385h-436l-33 -385h-137l32 385h-161zM377 506h436l37 422h-436z" />
<glyph unicode="$" d="M61 389h166q25 -136 128 -208t270 -72q181 0 280 75t99 197q0 78 -34 129.5t-134 99t-287 92.5q-232 57 -331 151t-99 245q0 147 112.5 247t317.5 115v240h143v-240q195 -15 317.5 -112t151.5 -258h-166q-23 116 -120.5 177.5t-262.5 61.5q-163 0 -247 -61.5t-84 -159.5 q0 -69 26 -112.5t110 -85.5t245 -81q274 -67 388.5 -173t114.5 -267q0 -163 -126 -280t-347 -134v-251h-143v253q-195 15 -326 121.5t-162 290.5z" />
<glyph unicode="%" horiz-adv-x="1710" d="M90 1118q0 84 28 151t75.5 109t108 64t128.5 22t129 -22t109 -64t76 -109t28 -151t-28 -151t-76 -109t-109 -64t-129 -22t-128.5 22t-108 64t-75.5 109t-28 151zM221 1118q0 -118 58.5 -175.5t150.5 -57.5t152.5 58t60.5 175t-60.5 175.5t-152.5 58.5t-150.5 -58 t-58.5 -176zM408 0l731 1434h151l-731 -1434h-151zM936 315q0 111 49 191.5t125 118t168 37.5t168 -37.5t125 -118t49 -191.5q0 -84 -28 -151t-76 -109t-109 -64t-129 -22t-129 22t-109 64t-76 109t-28 151zM1069 315q0 -118 58.5 -175.5t150.5 -57.5t152.5 58t60.5 175 t-60.5 175.5t-152.5 58.5t-150.5 -58t-58.5 -176z" />
<glyph unicode="&#x26;" horiz-adv-x="1343" d="M76 342q0 60 14.5 111.5t39.5 92t65.5 79t84.5 69.5t105 66q-119 120 -168 198.5t-49 169.5q0 64 26 123.5t73 107t120.5 76.5t161.5 29t161.5 -27t120.5 -72t73 -101t26 -115q0 -242 -324 -416l381 -368q87 153 109 327l139 -18q-26 -220 -148 -406l209 -200l-110 -99 l-191 187q-175 -187 -434 -187q-221 0 -353 102.5t-132 270.5zM236 352q0 -118 88 -185t247 -67q190 0 330 150l-424 418q-121 -69 -181 -142.5t-60 -173.5zM315 1130q0 -70 41.5 -131.5t153.5 -173.5q142 80 209 154.5t67 165.5q0 77 -60 135.5t-175 58.5 q-116 0 -176 -62.5t-60 -146.5z" />
<glyph unicode="'" horiz-adv-x="552" d="M197 1317v188h159v-188l-24 -313h-111z" />
<glyph unicode="(" horiz-adv-x="696" d="M152 655q0 159 29.5 312.5t80 280t106 226.5t119.5 185h129q-144 -220 -227.5 -464.5t-83.5 -539.5t83.5 -538.5t227.5 -464.5h-129q-64 85 -119.5 185t-106 226t-80 279.5t-29.5 312.5z" />
<glyph unicode=")" horiz-adv-x="696" d="M80 -348q144 221 227.5 464.5t83.5 538.5t-83.5 539.5t-227.5 464.5h129q64 -85 120 -185t106.5 -226.5t80 -280t29.5 -312.5t-29.5 -312.5t-80 -280t-106.5 -226t-120 -184.5h-129z" />
<glyph unicode="*" horiz-adv-x="962" d="M98 1176l47 135l291 -125l-26 319h141l-29 -319l295 125l47 -135l-315 -72l209 -242l-115 -84l-164 273l-164 -275l-114 86l211 242z" />
<glyph unicode="+" d="M193 590v137h350v354h145v-354h348v-137h-348v-352h-145v352h-350z" />
<glyph unicode="," horiz-adv-x="591" d="M156 -209q60 18 90 66.5t30 142.5h-75v199h194v-176q0 -144 -67 -221.5t-172 -98.5v88z" />
<glyph unicode="-" horiz-adv-x="1105" d="M193 592v137h720v-137h-720z" />
<glyph unicode="." horiz-adv-x="598" d="M203 0v199h192v-199h-192z" />
<glyph unicode="/" horiz-adv-x="774" d="M74 -184l481 1689h145l-481 -1689h-145z" />
<glyph unicode="0" d="M113 719q0 154 25 279t69.5 211t108 144t138 84.5t160.5 26.5q109 0 198.5 -43.5t158.5 -131t107 -233t38 -337.5q0 -189 -38 -334.5t-106.5 -235.5t-158.5 -135t-199 -45t-199 45t-158 135t-106 235.5t-38 334.5zM268 719q0 -621 346 -621q347 0 347 621q0 616 -347 616 q-346 0 -346 -616z" />
<glyph unicode="1" d="M293 1096v157l328 181h149v-1434h-152v1274z" />
<glyph unicode="2" d="M133 1073q25 175 157.5 283t330.5 108q195 0 322.5 -109t127.5 -290q0 -139 -69.5 -253.5t-251.5 -291.5l-388 -379h705v-141h-909v141l501 496q141 138 198.5 229.5t57.5 196.5q0 124 -80.5 198t-218.5 74q-132 0 -219 -71t-102 -191h-162z" />
<glyph unicode="3" d="M102 340h162q25 -117 112.5 -179.5t225.5 -62.5q157 0 249.5 80.5t92.5 214.5q0 144 -89 219.5t-220 75.5h-133v133h127q114 0 192 69.5t78 190.5t-86 187.5t-217 66.5q-132 0 -218 -61.5t-106 -169.5h-159q28 166 160.5 263t330.5 97q124 0 224.5 -40.5t163.5 -126 t63 -203.5q0 -122 -71 -210t-193 -122q134 -23 221.5 -120t87.5 -251q0 -189 -136.5 -304.5t-359.5 -115.5q-209 0 -341.5 99t-160.5 270z" />
<glyph unicode="4" d="M113 270v146l630 1018h162v-1033h225v-131h-225v-270h-149v270h-643zM279 401h477v789z" />
<glyph unicode="5" d="M111 340h159q25 -110 114.5 -176t221.5 -66q150 0 248 100t98 269q0 166 -92 258t-246 92q-98 0 -181.5 -41t-137.5 -108h-133l31 766h849v-129h-710l-19 -486q135 121 334 121q200 0 331.5 -127t131.5 -352q0 -211 -140 -351.5t-366 -140.5q-197 0 -330.5 105.5 t-162.5 265.5z" />
<glyph unicode="6" d="M139 657q0 187 29 330.5t77 232t117 145t140 78t155 21.5q153 0 266.5 -79.5t147.5 -213.5h-166q-24 78 -89.5 123t-160.5 45q-58 0 -107.5 -17.5t-96 -61.5t-80 -112.5t-55.5 -176.5t-27 -248q57 101 156 157t210 56q203 0 327 -132t124 -347q0 -116 -39.5 -210.5 t-105.5 -154t-150 -91.5t-176 -32q-251 0 -373.5 181.5t-122.5 506.5zM309 469q0 -74 21 -140t60.5 -118t103.5 -82.5t143 -30.5q132 0 223.5 94t91.5 254q0 168 -87.5 264.5t-233.5 96.5q-145 0 -233.5 -94.5t-88.5 -243.5z" />
<glyph unicode="7" d="M150 1296v138h909v-138l-615 -1296h-172l625 1296h-747z" />
<glyph unicode="8" d="M100 367q0 67 18.5 124.5t48 98t71.5 73.5t82.5 54t87.5 37q-50 20 -91.5 47.5t-80 67.5t-60.5 97t-22 124q0 123 66 209.5t167.5 125.5t226.5 39q93 0 174.5 -21.5t146.5 -64t102.5 -113.5t37.5 -163q0 -65 -23 -121t-63.5 -97t-84.5 -69.5t-97 -50.5q321 -122 321 -385 q0 -179 -141.5 -294.5t-372.5 -115.5q-230 0 -372 113t-142 285zM262 379q0 -124 95 -203.5t257 -79.5t257.5 77.5t95.5 205.5q0 66 -24.5 119t-59.5 85.5t-91.5 58t-101.5 38t-108 25.5q-320 -82 -320 -326zM303 1098q0 -62 22.5 -111.5t54.5 -79t80.5 -52t87.5 -32.5 t89 -18q58 18 104.5 40.5t90 57t68 84t24.5 111.5q0 116 -89.5 180.5t-220.5 64.5q-62 0 -116.5 -14.5t-98.5 -43.5t-70 -77t-26 -110z" />
<glyph unicode="9" d="M139 977q0 217 133.5 352t333.5 135q253 0 376.5 -179t123.5 -509q0 -807 -522 -807q-156 0 -270.5 80t-149.5 215h166q23 -79 92.5 -124.5t167.5 -45.5q63 0 114.5 19t96.5 64t76.5 115t51.5 176t25 243q-55 -101 -154 -157t-210 -56q-198 0 -324.5 128t-126.5 351z M293 987q0 -173 90 -266.5t231 -93.5q144 0 233 94.5t89 243.5q0 99 -35.5 181.5t-112 135.5t-180.5 53q-135 0 -225 -95t-90 -253z" />
<glyph unicode=":" horiz-adv-x="598" d="M203 0v199h192v-199h-192zM203 866v199h192v-199h-192z" />
<glyph unicode=";" horiz-adv-x="598" d="M156 -209q60 18 90 66.5t30 142.5h-75v199h194v-176q0 -144 -67 -221.5t-172 -98.5v88zM203 866v199h192v-199h-192z" />
<glyph unicode="&#x3c;" d="M193 588v145l843 400v-156l-688 -313v-7l688 -313v-156z" />
<glyph unicode="=" d="M193 379v137h843v-137h-843zM193 803v137h843v-137h-843z" />
<glyph unicode="&#x3e;" d="M193 188v156l688 313v7l-688 313v156l843 -400v-145z" />
<glyph unicode="?" horiz-adv-x="1128" d="M109 1124q28 178 157.5 279.5t329.5 101.5t325.5 -103.5t125.5 -254.5q0 -112 -40.5 -198t-158.5 -167q-53 -37 -80.5 -57t-56.5 -47.5t-40.5 -47.5t-22 -52.5t-13 -67.5t-2.5 -88h-152q0 171 42.5 258t166.5 172q112 78 153.5 137t41.5 158q0 98 -80.5 161.5 t-212.5 63.5q-133 0 -217 -65.5t-103 -182.5h-163zM465 0v199h190v-199h-190z" />
<glyph unicode="@" horiz-adv-x="1873" d="M111 647q0 131 28 245.5t76 200t114.5 156t142 117.5t159 79t164.5 46t161 14q223 0 405.5 -83t292 -242t109.5 -365q0 -174 -50.5 -314t-141 -219t-205.5 -79q-92 0 -153 61.5t-66 141.5q-30 -66 -115 -126.5t-194 -60.5q-61 0 -117 21.5t-103 64t-75.5 114.5t-28.5 163 q0 247 118.5 401t317.5 154q68 0 132 -37.5t89 -102.5l37 125h113l-76 -581q-6 -50 -6 -78q0 -70 32 -107t91 -37q106 0 180 134t74 360q0 256 -183 412.5t-477 156.5q-94 0 -188 -23.5t-187.5 -79.5t-164.5 -138.5t-115.5 -210.5t-44.5 -285q0 -170 60.5 -306.5t162 -220 t227.5 -127.5t265 -44q161 0 315 53l8 -125q-144 -53 -333 -53q-131 0 -253.5 32t-231.5 99.5t-190 163.5t-128 232.5t-47 297.5zM662 639q0 -48 4.5 -87t17.5 -80.5t35 -69.5t60 -46t89 -18q122 0 197.5 119.5t75.5 345.5q0 105 -48 161t-135 56q-123 0 -209.5 -108 t-86.5 -273z" />
<glyph unicode="A" horiz-adv-x="1398" d="M8 0l598 1475h189l596 -1475h-179l-153 395h-725l-158 -395h-168zM385 528h621l-308 787z" />
<glyph unicode="B" horiz-adv-x="1320" d="M162 0v1475h516q239 0 365 -100t126 -279q0 -109 -70 -199t-181 -117q128 -19 216.5 -120.5t88.5 -245.5q0 -196 -139 -305t-404 -109h-518zM322 133h383q172 0 261 72.5t89 208.5q0 140 -89.5 218.5t-252.5 78.5h-391v-578zM322 838h385q145 0 223 71t78 187 q0 120 -82.5 187t-231.5 67h-372v-512z" />
<glyph unicode="C" horiz-adv-x="1482" d="M100 731q0 184 51 332t141.5 244t214.5 147t271 51q250 0 420 -137.5t195 -351.5h-162q-28 166 -149 260t-304 94q-231 0 -372.5 -166t-141.5 -473q0 -291 141 -458t367 -167q188 0 315 110.5t144 287.5h162q-9 -108 -57.5 -205t-127.5 -170.5t-193 -116.5t-245 -43 q-305 0 -487.5 204t-182.5 558z" />
<glyph unicode="D" horiz-adv-x="1425" d="M162 0v1475h446q161 0 292 -46.5t226 -137t147 -231.5t52 -323q0 -174 -54 -314t-151 -232.5t-230 -141.5t-292 -49h-436zM322 135h292q255 0 402 156t147 446q0 297 -149 451.5t-404 154.5h-288v-1208z" />
<glyph unicode="E" horiz-adv-x="1165" d="M162 0v1475h895v-138h-735v-520h675v-135h-675v-545h735v-137h-895z" />
<glyph unicode="F" horiz-adv-x="1140" d="M162 0v1475h878v-138h-718v-559h647v-137h-647v-641h-160z" />
<glyph unicode="G" horiz-adv-x="1503" d="M100 737q0 185 51.5 332.5t142.5 242t211.5 144t260.5 49.5q240 0 402 -123.5t196 -322.5h-160q-34 149 -149 230t-289 81q-104 0 -193.5 -39.5t-159 -115.5t-109.5 -199t-40 -279q0 -153 41.5 -275.5t113 -199.5t162 -117.5t191.5 -40.5q121 0 223.5 50t163 141.5 t60.5 204.5v151h-455v131h600v-782h-119l-22 211q-68 -115 -190 -178.5t-277 -63.5q-138 0 -256.5 50.5t-208 146t-140.5 242.5t-51 329z" />
<glyph unicode="H" horiz-adv-x="1425" d="M162 0v1475h160v-658h780v658h162v-1475h-162v680h-780v-680h-160z" />
<glyph unicode="I" horiz-adv-x="483" d="M162 0v1475h160v-1475h-160z" />
<glyph unicode="J" horiz-adv-x="1089" d="M59 401h160q7 -147 82 -221t203 -74q129 0 201.5 82.5t72.5 233.5v1053h160v-1053q0 -213 -115.5 -333t-324.5 -120q-194 0 -313.5 120t-125.5 312z" />
<glyph unicode="K" horiz-adv-x="1255" d="M162 0v1475h160v-672l657 672h197l-703 -707l766 -768h-215l-702 711v-711h-160z" />
<glyph unicode="L" horiz-adv-x="1126" d="M162 0v1475h162v-1332h723v-143h-885z" />
<glyph unicode="M" horiz-adv-x="1753" d="M162 0v1475h227l508 -1293l477 1293h217v-1475h-151v1231l-467 -1231h-160l-496 1241v-1241h-155z" />
<glyph unicode="N" horiz-adv-x="1464" d="M162 0v1475h207l790 -1272v1272h146v-1475h-199l-797 1282v-1282h-147z" />
<glyph unicode="O" horiz-adv-x="1562" d="M100 737q0 181 53.5 328.5t146.5 242.5t216.5 146t265.5 51q143 0 266.5 -50t216.5 -145t146 -242t53 -331q0 -181 -52.5 -327.5t-145 -242.5t-216.5 -147t-268 -51q-148 0 -272.5 52t-215.5 148t-142.5 242t-51.5 326zM264 737q0 -154 39.5 -276t109.5 -199.5 t163.5 -118.5t205.5 -41q111 0 204.5 40t163.5 117.5t109 200t39 277.5q0 302 -142.5 468.5t-373.5 166.5q-113 0 -208 -41.5t-164 -120t-107.5 -200t-38.5 -273.5z" />
<glyph unicode="P" horiz-adv-x="1286" d="M162 0v1475h487q263 0 406 -122.5t143 -348.5q0 -217 -146.5 -337t-410.5 -120h-319v-547h-160zM322 680h323q191 0 288 84t97 240q0 160 -98 248.5t-279 88.5h-331v-661z" />
<glyph unicode="Q" horiz-adv-x="1562" d="M100 737q0 181 53.5 328.5t146.5 242.5t216.5 146t265.5 51q143 0 266.5 -50t216.5 -145t146 -242t53 -331q0 -202 -63.5 -357.5t-179.5 -254.5l233 -291l-133 -88l-217 301q-144 -78 -322 -78q-148 0 -272.5 52t-215.5 148t-142.5 242t-51.5 326zM264 737 q0 -154 39.5 -276t109.5 -199.5t163.5 -118.5t205.5 -41q111 0 204.5 40t163.5 117.5t109 200t39 277.5q0 302 -142.5 468.5t-373.5 166.5q-113 0 -208 -41.5t-164 -120t-107.5 -200t-38.5 -273.5z" />
<glyph unicode="R" horiz-adv-x="1310" d="M162 0v1475h489q265 0 408 -118.5t143 -334.5q0 -154 -90 -258t-235 -150l407 -614h-192l-377 584h-393v-584h-160zM322 717h335q176 0 276.5 83.5t100.5 221.5q0 155 -95 237t-284 82h-333v-624z" />
<glyph unicode="S" horiz-adv-x="1329" d="M80 395h166q23 -138 134 -214.5t284 -76.5q192 0 297.5 79t105.5 206q0 84 -36.5 137t-140 100.5t-302.5 96.5q-248 62 -350.5 158.5t-102.5 253.5q0 164 137 267t381 103q230 0 385 -102.5t187 -280.5h-166q-23 118 -128 183t-276 65q-178 0 -268 -62.5t-90 -164.5 q0 -55 15.5 -92.5t59 -73.5t122.5 -66t206 -61q296 -75 412.5 -177.5t116.5 -277.5q0 -87 -38 -164t-108 -135.5t-178 -92.5t-239 -34q-235 0 -394.5 114.5t-191.5 311.5z" />
<glyph unicode="T" horiz-adv-x="1206" d="M29 1331v144h1149v-144h-496v-1331h-162v1331h-491z" />
<glyph unicode="U" horiz-adv-x="1441" d="M152 489v986h159v-998q0 -166 112.5 -268.5t299.5 -102.5q188 0 301 103t113 268v998h155v-986q0 -232 -155 -376t-414 -144q-263 0 -417 144.5t-154 375.5z" />
<glyph unicode="V" horiz-adv-x="1304" d="M8 1475h168l479 -1328l484 1328h157l-538 -1475h-207z" />
<glyph unicode="W" horiz-adv-x="1961" d="M18 1475h164l344 -1295l365 1295h207l352 -1291l346 1291h150l-400 -1475h-194l-363 1309l-368 -1309h-205z" />
<glyph unicode="X" horiz-adv-x="1294" d="M29 0l528 764l-491 711h190l399 -586l412 586h182l-510 -709l527 -766h-193l-424 635l-438 -635h-182z" />
<glyph unicode="Y" horiz-adv-x="1282" d="M8 1475h176l457 -752l469 752h164l-553 -893v-582h-160v584z" />
<glyph unicode="Z" horiz-adv-x="1308" d="M90 0v141l938 1194h-891v140h1082v-136l-940 -1200h919v-139h-1108z" />
<glyph unicode="[" horiz-adv-x="614" d="M121 -348v2007h399v-129h-252v-1749h252v-129h-399z" />
<glyph unicode="\" horiz-adv-x="747" d="M61 1505h146l479 -1689h-143z" />
<glyph unicode="]" horiz-adv-x="614" d="M94 -219h254v1749h-254v129h402v-2007h-402v129z" />
<glyph unicode="^" horiz-adv-x="1009" d="M68 819l362 656h148l364 -656h-164l-274 508l-273 -508h-163z" />
<glyph unicode="_" horiz-adv-x="1230" d="M61 -111h1108v-137h-1108v137z" />
<glyph unicode="`" horiz-adv-x="534" d="M61 1505h201l211 -280h-137z" />
<glyph unicode="a" horiz-adv-x="1103" d="M90 272q0 144 95 228.5t311 120.5l317 53v74q0 106 -71.5 166.5t-198.5 60.5q-119 0 -188.5 -53t-80.5 -144h-159q14 144 131 231t303 87q192 0 304 -97.5t112 -261.5v-737h-125l-19 162q-56 -86 -149 -139.5t-219 -53.5q-165 0 -264 83t-99 220zM250 287 q0 -91 63.5 -140t175.5 -49q125 0 224.5 83.5t99.5 203.5v168l-276 -47q-161 -28 -224 -80t-63 -139z" />
<glyph unicode="b" horiz-adv-x="1216" d="M152 0v1475h151v-584q55 94 148.5 149.5t218.5 55.5q208 0 333 -144.5t125 -408.5q0 -272 -131 -423t-340 -151q-123 0 -213.5 53.5t-144.5 145.5l-23 -168h-124zM293 539q0 -210 93.5 -325.5t248.5 -115.5q153 0 243.5 113.5t90.5 335.5q0 207 -91.5 313.5t-242.5 106.5 q-69 0 -129 -25.5t-108.5 -76t-76.5 -134.5t-28 -192z" />
<glyph unicode="c" horiz-adv-x="1120" d="M90 524q0 269 135 420.5t353 151.5q178 0 299 -90.5t147 -245.5h-168q-20 98 -93 152.5t-181 54.5q-150 0 -241 -114t-91 -335q0 -205 93.5 -312.5t238.5 -107.5q113 0 190 62t94 168h164q-24 -156 -146.5 -257.5t-305.5 -101.5q-103 0 -191.5 36.5t-155 105t-104 174.5 t-37.5 239z" />
<glyph unicode="d" horiz-adv-x="1216" d="M90 524q0 277 129.5 424.5t339.5 147.5q121 0 210.5 -52t143.5 -141v572h154v-1475h-125l-27 176q-55 -96 -147.5 -151.5t-216.5 -55.5q-202 0 -331.5 145.5t-129.5 409.5zM248 522q0 -206 93 -315t241 -109q151 0 246.5 112.5t95.5 315.5q0 211 -92.5 326t-247.5 115 q-153 0 -244.5 -113t-91.5 -332z" />
<glyph unicode="e" horiz-adv-x="1177" d="M90 532q0 269 138.5 416.5t359.5 147.5q108 0 196 -35.5t154 -106.5t102.5 -187t36.5 -269h-831q9 -198 108 -299t254 -101q107 0 186 55t105 146h164q-41 -150 -162.5 -240t-298.5 -90q-229 0 -370.5 147t-141.5 416zM250 621h672q-10 172 -100 262t-232 90 q-136 0 -229 -91t-111 -261z" />
<glyph unicode="f" horiz-adv-x="636" d="M49 934v131h158v166q0 126 74.5 200t197.5 74q77 0 168 -24v-131q-89 24 -160 24q-62 0 -95.5 -35.5t-33.5 -99.5v-174h240v-131h-240v-934h-151v934h-158z" />
<glyph unicode="g" horiz-adv-x="1216" d="M90 557q0 250 130.5 394.5t338.5 144.5q123 0 214.5 -52.5t144.5 -142.5l24 164h125v-1051q0 -182 -125.5 -297.5t-343.5 -115.5q-195 0 -314 82.5t-147 230.5h162q19 -93 96 -143t199 -50q152 0 235.5 79.5t83.5 219.5v187q-55 -80 -147 -126t-215 -46q-92 0 -175 34.5 t-147 99t-101.5 165t-37.5 223.5zM248 555q0 -183 95.5 -287t240.5 -104q153 0 246.5 99.5t93.5 291.5q0 199 -93.5 305.5t-248.5 106.5q-149 0 -241.5 -105t-92.5 -307z" />
<glyph unicode="h" horiz-adv-x="1146" d="M152 0v1475h151v-560q54 87 142 134t188 47q173 0 273 -101.5t100 -283.5v-711h-152v707q0 127 -67 193.5t-189 66.5q-121 0 -208 -86.5t-87 -227.5v-653h-151z" />
<glyph unicode="i" horiz-adv-x="444" d="M135 1284v191h174v-191h-174zM145 0v1065h154v-1065h-154z" />
<glyph unicode="j" horiz-adv-x="444" d="M-109 -248q75 -20 127 -20q69 0 98 33t29 118v1182h154v-1190q0 -127 -67 -200.5t-189 -73.5q-75 0 -152 24v127zM135 1284v191h174v-191h-174z" />
<glyph unicode="k" horiz-adv-x="1030" d="M152 0v1475h151v-834l465 424h203l-514 -463l577 -602h-205l-526 549v-549h-151z" />
<glyph unicode="l" horiz-adv-x="454" d="M152 0v1475h151v-1475h-151z" />
<glyph unicode="m" horiz-adv-x="1767" d="M152 0v1065h124l17 -145q53 89 138 132.5t183 43.5q113 0 194.5 -49t121.5 -142q53 99 145.5 145t200.5 46q164 0 258 -96.5t94 -276.5v-723h-153v711q0 131 -58 193.5t-172 62.5q-123 0 -201.5 -91.5t-78.5 -220.5v-655h-152v711q0 256 -229 256q-120 0 -200.5 -89.5 t-80.5 -220.5v-657h-151z" />
<glyph unicode="n" horiz-adv-x="1146" d="M152 0v1065h124l19 -160q54 92 144 141.5t194 49.5q173 0 273 -101.5t100 -283.5v-711h-152v707q0 127 -67 193.5t-189 66.5q-119 0 -207 -85.5t-88 -222.5v-659h-151z" />
<glyph unicode="o" horiz-adv-x="1193" d="M90 532q0 138 39.5 247t109 177.5t160.5 104t199 35.5q109 0 200.5 -35.5t160 -104.5t107 -177.5t38.5 -246.5q0 -137 -38 -245t-106 -177t-160 -105t-202 -36q-225 0 -366.5 147.5t-141.5 415.5zM248 532q0 -210 97.5 -324t254.5 -114t251.5 113.5t94.5 324.5 q0 214 -95.5 326.5t-252.5 112.5t-253.5 -114t-96.5 -325z" />
<glyph unicode="p" horiz-adv-x="1216" d="M152 -369v1434h124l23 -170q57 92 152 146.5t219 54.5q208 0 333 -144.5t125 -408.5q0 -272 -132 -423t-341 -151q-120 0 -210 52.5t-142 142.5v-533h-151zM293 539q0 -210 93.5 -325.5t246.5 -115.5t244.5 113.5t91.5 335.5q0 207 -91.5 313.5t-242.5 106.5 q-69 0 -129 -25.5t-108.5 -76t-76.5 -134.5t-28 -192z" />
<glyph unicode="q" horiz-adv-x="1216" d="M90 524q0 277 129.5 424.5t339.5 147.5q122 0 214 -51.5t147 -139.5l22 160h125v-1434h-154v543q-55 -94 -147.5 -149.5t-214.5 -55.5q-202 0 -331.5 145.5t-129.5 409.5zM248 522q0 -206 93 -315t241 -109q151 0 246.5 112.5t95.5 315.5q0 211 -92.5 326t-247.5 115 q-153 0 -244.5 -113t-91.5 -332z" />
<glyph unicode="r" horiz-adv-x="712" d="M152 0v1065h124l21 -182q42 105 115.5 159t169.5 54q50 0 112 -15v-151q-67 18 -119 18q-116 0 -194 -101t-78 -288v-559h-151z" />
<glyph unicode="s" horiz-adv-x="1032" d="M70 293h155q15 -98 89.5 -149.5t199.5 -51.5q128 0 200 55.5t72 137.5q0 92 -76 137t-253 80q-176 36 -262 108.5t-86 192.5q0 132 104.5 212.5t296.5 80.5q172 0 286.5 -81.5t139.5 -221.5h-156q-15 83 -87.5 132.5t-186.5 49.5q-119 0 -180.5 -44.5t-61.5 -113.5 q0 -76 57 -117t216 -73q104 -21 175 -46.5t125 -64t79.5 -93t25.5 -128.5q0 -141 -116 -233.5t-314 -92.5q-191 0 -309 88t-133 236z" />
<glyph unicode="t" horiz-adv-x="638" d="M39 934v131h156l10 256h141v-256h240v-131h-240v-698q0 -66 33 -100t94 -34q56 0 125 17v-129q-76 -21 -141 -21q-126 0 -194 72t-68 199v694h-156z" />
<glyph unicode="u" horiz-adv-x="1136" d="M141 356v709h152v-709q0 -128 66 -193t184 -65q134 0 212.5 91t78.5 225v651h153v-1065h-127l-16 147q-55 -88 -144 -133t-192 -45q-166 0 -266.5 99t-100.5 288z" />
<glyph unicode="v" horiz-adv-x="1034" d="M29 1065h166l325 -940l328 940h160l-390 -1065h-204z" />
<glyph unicode="w" horiz-adv-x="1615" d="M39 1065h158l256 -905l268 905h186l273 -901l245 901h154l-309 -1065h-180l-279 899l-270 -899h-185z" />
<glyph unicode="x" horiz-adv-x="1064" d="M29 0l405 555l-383 510h185l290 -391l275 391h174l-363 -500l424 -565h-186l-326 446l-317 -446h-178z" />
<glyph unicode="y" horiz-adv-x="1034" d="M29 1065h164l339 -944l322 944h154l-375 -1077q-31 -89 -52.5 -142t-50.5 -106t-58.5 -79.5t-70 -43t-92.5 -16.5q-49 0 -119 18v125q62 -16 105 -16q65 0 100 54t92 218h-53z" />
<glyph unicode="z" horiz-adv-x="985" d="M70 0v145l669 791h-639v129h815v-147l-669 -787h669v-131h-845z" />
<glyph unicode="{" horiz-adv-x="696" d="M84 588v139q83 0 136.5 48.5t53.5 142.5v417q0 163 80 243.5t260 80.5v-123q-115 0 -154.5 -45t-39.5 -145v-406q0 -117 -47.5 -188t-130.5 -95q83 -24 130.5 -94.5t47.5 -187.5v-406q0 -100 39.5 -145t154.5 -45v-123q-180 0 -260 80.5t-80 243.5v417q0 94 -53.5 142.5 t-136.5 48.5z" />
<glyph unicode="|" horiz-adv-x="722" d="M293 -287v1895h137v-1895h-137z" />
<glyph unicode="}" horiz-adv-x="696" d="M82 -221q115 0 154.5 45t39.5 145v406q0 117 48 187.5t131 94.5q-83 24 -131 95t-48 188v406q0 100 -39.5 145t-154.5 45v123q180 0 260 -80.5t80 -243.5v-417q0 -94 53.5 -142.5t136.5 -48.5v-139q-83 0 -136.5 -48.5t-53.5 -142.5v-417q0 -163 -80 -243.5t-260 -80.5 v123z" />
<glyph unicode="~" d="M193 559v150q43 35 104.5 58.5t128.5 23.5q56 0 111.5 -18.5t93 -40t86 -40t92.5 -18.5q121 0 227 96v-149q-42 -35 -103.5 -58.5t-129.5 -23.5q-56 0 -112 18t-93.5 39t-86.5 39t-93 18q-121 0 -225 -94z" />
<glyph unicode="&#xa1;" horiz-adv-x="557" d="M184 907v199h191v-199h-191zM186 -369l27 998h127l27 -998h-181z" />
<glyph unicode="&#xa2;" d="M147 524q0 243 112.5 391t297.5 175v262h141v-260q153 -15 255.5 -103.5t127.5 -228.5h-166q-20 98 -93.5 152.5t-182.5 54.5q-148 0 -240 -114t-92 -335q0 -205 94.5 -312.5t239.5 -107.5q111 0 188.5 62.5t94.5 167.5h166q-24 -142 -128.5 -239.5t-263.5 -115.5v-249 h-141v253q-184 24 -297 166.5t-113 380.5z" />
<glyph unicode="&#xa3;" d="M119 0v139q80 28 116.5 89t36.5 169v256h-96v125h96v293q0 128 54 218.5t142.5 132.5t203.5 42q153 0 261 -81t142 -234h-157q-20 89 -84 137.5t-164 48.5q-118 0 -183 -69t-65 -197v-291h418v-125h-418v-213q0 -105 -22.5 -179t-88.5 -122h758v-139h-950z" />
<glyph unicode="&#xa4;" d="M88 287l131 131q-84 122 -84 278q0 155 82 275l-127 127l107 106l122 -125q61 48 140.5 73.5t154.5 25.5t154.5 -25.5t140.5 -73.5l125 125l107 -106l-129 -129q82 -120 82 -273q0 -157 -84 -276l133 -133l-109 -107l-127 129q-61 -45 -140 -69.5t-153 -24.5 q-73 0 -151 24t-141 68l-127 -127zM279 696q0 -154 97.5 -252t239.5 -98q140 0 237 98t97 252t-97 252.5t-237 98.5q-142 0 -239.5 -98.5t-97.5 -252.5z" />
<glyph unicode="&#xa5;" d="M20 1434h177l417 -711l433 711h163l-450 -738h231v-121h-297v-176h297v-118h-297v-281h-159v281h-295v118h295v176h-295v121h229z" />
<glyph unicode="&#xa6;" horiz-adv-x="722" d="M293 -287v789h137v-789h-137zM293 819v789h137v-789h-137z" />
<glyph unicode="&#xa7;" d="M168 659q0 102 58.5 173t162.5 108q-145 92 -145 234q0 125 102 207.5t283 82.5q149 0 260 -75t143 -201h-162q-20 69 -84 113.5t-159 44.5q-112 0 -173 -46.5t-61 -117.5q0 -74 55.5 -120t188.5 -83q235 -64 329.5 -148t94.5 -213q0 -103 -60.5 -175t-164.5 -109 q151 -90 151 -230q0 -132 -103.5 -211t-277.5 -79q-156 0 -267.5 75.5t-143.5 200.5h163q16 -67 84 -111.5t166 -44.5q110 0 170 45t60 117q0 73 -57 120.5t-187 82.5q-237 65 -331.5 149.5t-94.5 210.5zM313 670q0 -85 63 -137.5t240 -106.5q62 -18 111 -39q88 36 137 94 t49 154q0 74 -80.5 125.5t-289.5 109.5q-29 7 -47 15q-183 -65 -183 -215z" />
<glyph unicode="&#xa8;" horiz-adv-x="784" d="M84 1300v175h170v-175h-170zM524 1300v175h170v-175h-170z" />
<glyph unicode="&#xa9;" horiz-adv-x="1779" d="M123 737q0 156 44.5 286t119 218t174 148.5t207 88t221.5 27.5t222.5 -27.5t208 -88t174 -148.5t119 -218t44.5 -286t-44.5 -286t-119 -218t-174 -148.5t-208 -88t-222.5 -27.5t-221.5 27.5t-207 88t-174 148.5t-119 218t-44.5 286zM254 737q0 -162 53.5 -290.5 t144 -206.5t202 -118t235.5 -40q99 0 191 24.5t173.5 77t142 128.5t95.5 185t35 240q0 162 -53.5 290.5t-144 206.5t-202.5 118.5t-237 40.5q-98 0 -189.5 -24.5t-173 -77.5t-142 -128.5t-95.5 -185t-35 -240.5zM516 737q0 111 32 196.5t86 136t119.5 76t137.5 25.5 q135 0 228.5 -68.5t113.5 -189.5h-133q-13 73 -68 114.5t-137 41.5q-109 0 -179.5 -83.5t-70.5 -246.5q0 -87 22 -151.5t59.5 -100t79.5 -52.5t89 -17q90 0 146 49t67 121h131q-20 -115 -112 -195t-236 -80q-52 0 -103 13.5t-100.5 46t-87.5 80t-61 121t-23 163.5z" />
<glyph unicode="&#xaa;" horiz-adv-x="978" d="M123 0v137h733v-137h-733zM143 858q0 232 318 277l213 30v60q0 170 -191 170q-74 0 -125 -31t-61 -88h-137q15 102 107.5 165.5t221.5 63.5q140 0 229 -74t89 -200v-604h-98l-23 110q-35 -58 -104 -94.5t-156 -36.5q-54 0 -103 15t-90 44t-65.5 79t-24.5 114zM281 864 q0 -70 45.5 -107.5t126.5 -37.5q88 0 154.5 61t66.5 144v131l-178 -25q-215 -28 -215 -166z" />
<glyph unicode="&#xab;" horiz-adv-x="1007" d="M127 645l250 420h110l-180 -426l160 -455h-111zM520 645l250 420h111l-181 -426l160 -455h-110z" />
<glyph unicode="&#xac;" d="M193 592v137h843v-491h-145v354h-698z" />
<glyph unicode="&#xad;" horiz-adv-x="1105" d="M193 592v137h720v-137h-720z" />
<glyph unicode="&#xae;" horiz-adv-x="1296" d="M147 1010q0 101 30.5 184.5t80.5 139t116 94.5t135.5 56t139.5 17t138.5 -17t134.5 -56t116 -94.5t80.5 -139t30.5 -184.5t-30.5 -184.5t-80.5 -139.5t-116 -94.5t-134.5 -56t-138.5 -17.5t-139.5 17.5t-135.5 56t-116 94.5t-80.5 139.5t-30.5 184.5zM250 1010 q0 -82 22.5 -150.5t61 -114.5t90 -78t108 -46.5t117.5 -14.5t117.5 14.5t108 46.5t89.5 78t60.5 114.5t22.5 150.5q0 102 -34 181.5t-91.5 126.5t-127 71t-145.5 24t-145.5 -24t-127.5 -71t-92 -126.5t-34 -181.5zM496 752v524h153q81 0 133 -41t52 -117q0 -106 -101 -149 l123 -217h-98l-107 198h-71v-198h-84zM580 1020h69q44 0 69 27.5t25 70.5q0 40 -24.5 64t-73.5 24h-65v-186z" />
<glyph unicode="&#xaf;" horiz-adv-x="647" d="M61 1317v131h525v-131h-525z" />
<glyph unicode="&#xb0;" horiz-adv-x="1183" d="M115 1130q0 153 99 243.5t237 90.5t235.5 -90.5t97.5 -243.5t-97.5 -243t-235.5 -90t-237 90t-99 243zM252 1130q0 -100 56 -160.5t143 -60.5t141.5 60.5t54.5 160.5t-54.5 161t-141.5 61t-143 -61t-56 -161z" />
<glyph unicode="&#xb1;" d="M193 0v137h843v-137h-843zM193 592v137h348v352h145v-352h350v-137h-350v-295h-145v295h-348z" />
<glyph unicode="&#xb2;" horiz-adv-x="837" d="M90 1270q17 117 108 185.5t226 68.5q137 0 222 -70t85 -188q0 -97 -52.5 -180t-186.5 -187l-211 -166h444v-131h-616v131l297 260q101 89 140.5 148.5t39.5 122.5q0 66 -41 102.5t-121 36.5q-166 0 -184 -133h-150z" />
<glyph unicode="&#xb3;" horiz-adv-x="868" d="M90 829h143q36 -124 195 -124q91 0 139.5 40.5t48.5 108.5q0 85 -50.5 125.5t-129.5 40.5h-80v108h80q66 0 110 36t44 112q0 66 -45.5 98.5t-120.5 32.5t-118 -32t-54 -87h-146q17 108 104 172t222 64q133 0 217 -59t84 -179q0 -72 -48 -127t-136 -78q99 -18 156 -76.5 t57 -154.5q0 -119 -89 -191.5t-245 -72.5q-144 0 -233.5 67t-104.5 176z" />
<glyph unicode="&#xb4;" horiz-adv-x="534" d="M61 1225l209 280h203l-274 -280h-138z" />
<glyph unicode="&#xb5;" horiz-adv-x="1146" d="M152 -369v1434h151v-709q0 -134 69.5 -196t180.5 -62q131 0 211 90t80 220v657h153v-1065h-127l-16 141q-54 -86 -140.5 -129t-181.5 -43q-137 0 -229 82v-420h-151z" />
<glyph unicode="&#xb6;" horiz-adv-x="1191" d="M137 1128q0 75 24 137t60 99.5t81 63.5t84.5 36.5t72.5 10.5h137v-1844h-137v1151q-34 0 -73 10t-84 35.5t-81 63t-60 99.5t-24 138zM874 -369v1844h138v-1844h-138z" />
<glyph unicode="&#xb7;" horiz-adv-x="598" d="M203 553v201h192v-201h-192z" />
<glyph unicode="&#xb8;" horiz-adv-x="606" d="M51 -309h123q5 -39 41 -65.5t90 -26.5q57 0 92 29.5t35 80.5q0 115 -209 115l19 213h108v-131q98 -15 150.5 -65.5t52.5 -129.5q0 -92 -70.5 -152.5t-179.5 -60.5q-100 0 -169.5 51t-82.5 142z" />
<glyph unicode="&#xb9;" horiz-adv-x="512" d="M43 1253v138l227 114h136v-903h-144v762z" />
<glyph unicode="&#xba;" horiz-adv-x="937" d="M100 1055q0 123 30 213t83.5 140t117.5 73.5t140 23.5t139.5 -23t116.5 -73t83 -140t30 -214q0 -123 -30.5 -213.5t-84 -140t-116.5 -72.5t-138 -23t-138 23t-117 73t-85 140t-31 213zM102 0v137h715v-137h-715zM240 1055q0 -174 64 -256t167 -82q104 0 167.5 81.5 t63.5 256.5t-63.5 256.5t-167.5 81.5q-102 0 -166.5 -82.5t-64.5 -255.5z" />
<glyph unicode="&#xbb;" horiz-adv-x="1007" d="M127 1065h109l251 -420l-231 -461h-109l160 455zM520 1065h111l250 -420l-230 -461h-110l159 455z" />
<glyph unicode="&#xbc;" horiz-adv-x="1746" d="M102 1253v138l228 114h135v-903h-143v762zM315 -184l852 1802h148l-854 -1802h-146zM965 170v131l397 602h145v-612h138v-121h-138v-170h-127v170h-415zM1090 291h290v420z" />
<glyph unicode="&#xbd;" horiz-adv-x="1830" d="M102 1253v138l228 114h135v-903h-143v762zM315 -184l852 1802h148l-854 -1802h-146zM1087 668q17 117 108 185.5t226 68.5q137 0 222.5 -70t85.5 -188q0 -96 -52.5 -179t-187.5 -188l-211 -166h444v-131h-616v131l297 260q101 89 140.5 148.5t39.5 122.5q0 66 -41 102.5 t-121 36.5q-166 0 -184 -133h-150z" />
<glyph unicode="&#xbe;" horiz-adv-x="1939" d="M102 829h144q36 -124 194 -124q91 0 140 40.5t49 108.5q0 85 -50.5 125.5t-129.5 40.5h-80v108h80q65 0 109 36t44 112q0 66 -45.5 98.5t-120.5 32.5t-118 -32t-54 -87h-145q17 108 103.5 172t221.5 64q133 0 217 -59t84 -179q0 -72 -48 -127t-136 -78q99 -18 156 -76.5 t57 -154.5q0 -119 -89 -191.5t-245 -72.5q-144 0 -233.5 67t-104.5 176zM506 -184l852 1802h147l-854 -1802h-145zM1157 170v131l397 602h146v-612h137v-121h-137v-170h-127v170h-416zM1282 291h291v420z" />
<glyph unicode="&#xbf;" horiz-adv-x="1128" d="M78 -37q0 112 40 196t158 165q53 37 80.5 57t56.5 47.5t40.5 47.5t22.5 52.5t13.5 67.5t2.5 88h151q0 -171 -42.5 -258t-166.5 -172q-76 -53 -114.5 -90t-59 -85t-20.5 -116q0 -99 80.5 -164t211.5 -65q133 0 217 65.5t103 182.5h164q-28 -177 -157.5 -279t-330.5 -102 q-199 0 -324.5 105t-125.5 257zM473 907v199h191v-199h-191z" />
<glyph unicode="&#xc0;" horiz-adv-x="1398" d="M8 0l598 1475h189l596 -1475h-179l-153 395h-725l-158 -395h-168zM385 528h621l-308 787zM430 1853h201l211 -280h-137z" />
<glyph unicode="&#xc1;" horiz-adv-x="1398" d="M8 0l598 1475h189l596 -1475h-179l-153 395h-725l-158 -395h-168zM385 528h621l-308 787zM553 1573l209 280h203l-275 -280h-137z" />
<glyph unicode="&#xc2;" horiz-adv-x="1398" d="M8 0l598 1475h189l596 -1475h-179l-153 395h-725l-158 -395h-168zM383 1573l231 280h174l230 -280h-152l-166 190l-165 -190h-152zM385 528h621l-308 787z" />
<glyph unicode="&#xc3;" horiz-adv-x="1398" d="M8 0l598 1475h189l596 -1475h-179l-153 395h-725l-158 -395h-168zM385 528h621l-308 787zM410 1616v133q88 63 172 63q41 0 74.5 -11.5t52.5 -25t47.5 -25t60.5 -11.5q68 0 160 73v-133q-88 -63 -166 -63q-41 0 -75 11.5t-52.5 25.5t-47.5 25.5t-61 11.5q-72 0 -165 -74z " />
<glyph unicode="&#xc4;" horiz-adv-x="1398" d="M8 0l598 1475h189l596 -1475h-179l-153 395h-725l-158 -395h-168zM385 528h621l-308 787zM393 1649v174h170v-174h-170zM834 1649v174h170v-174h-170z" />
<glyph unicode="&#xc5;" horiz-adv-x="1398" d="M8 0l578 1425q-69 25 -109.5 85t-40.5 137q0 105 71 173t187 68t186 -68t70 -173q0 -75 -36.5 -131.5t-102.5 -85.5l580 -1430h-179l-153 395h-725l-158 -395h-168zM385 528h621l-308 787zM549 1647q0 -68 40 -108t105 -40q64 0 104 40t40 108t-40 107.5t-104 39.5 q-65 0 -105 -39.5t-40 -107.5z" />
<glyph unicode="&#xc6;" horiz-adv-x="1955" d="M0 0l901 1475h946v-138h-694v-520h635v-135h-635v-545h694v-137h-854v395h-579l-242 -395h-172zM496 528h497v813z" />
<glyph unicode="&#xc7;" horiz-adv-x="1482" d="M100 731q0 184 51 332t141.5 244t214.5 147t271 51q250 0 420 -137.5t195 -351.5h-162q-28 166 -149 260t-304 94q-231 0 -372.5 -166t-141.5 -473q0 -291 141 -458t367 -167q188 0 315 110.5t144 287.5h162q-19 -209 -172.5 -361t-389.5 -172v-65q98 -15 149.5 -65 t51.5 -130q0 -93 -70 -153t-178 -60q-100 0 -169.5 51t-82.5 142h121q6 -40 42 -66t91 -26q57 0 91 29.5t34 80.5q0 57 -48 86t-158 29l12 147q-284 19 -450.5 220t-166.5 540z" />
<glyph unicode="&#xc8;" horiz-adv-x="1165" d="M162 0v1475h895v-138h-735v-520h675v-135h-675v-545h735v-137h-895zM350 1853h201l211 -280h-137z" />
<glyph unicode="&#xc9;" horiz-adv-x="1165" d="M162 0v1475h895v-138h-735v-520h675v-135h-675v-545h735v-137h-895zM473 1573l209 280h203l-275 -280h-137z" />
<glyph unicode="&#xca;" horiz-adv-x="1165" d="M162 0v1475h895v-138h-735v-520h675v-135h-675v-545h735v-137h-895zM291 1573l231 280h174l230 -280h-152l-166 190l-166 -190h-151z" />
<glyph unicode="&#xcb;" horiz-adv-x="1165" d="M162 0v1475h895v-138h-735v-520h675v-135h-675v-545h735v-137h-895zM299 1649v174h170v-174h-170zM739 1649v174h170v-174h-170z" />
<glyph unicode="&#xcc;" horiz-adv-x="483" d="M-31 1853h201l211 -280h-137zM162 0v1475h160v-1475h-160z" />
<glyph unicode="&#xcd;" horiz-adv-x="483" d="M98 1573l209 280h203l-274 -280h-138zM162 0v1475h160v-1475h-160z" />
<glyph unicode="&#xce;" horiz-adv-x="483" d="M-76 1573l232 280h174l229 -280h-151l-166 190l-166 -190h-152zM162 0v1475h160v-1475h-160z" />
<glyph unicode="&#xcf;" horiz-adv-x="483" d="M-63 1649v174h169v-174h-169zM162 0v1475h160v-1475h-160zM377 1649v174h170v-174h-170z" />
<glyph unicode="&#xd0;" horiz-adv-x="1425" d="M51 707v137h111v631h446q161 0 292 -46.5t226 -137t147 -231.5t52 -323q0 -174 -54 -314t-151 -232.5t-230 -141.5t-292 -49h-436v707h-111zM322 135h292q255 0 402 156t147 446q0 297 -149 451.5t-404 154.5h-288v-499h444v-137h-444v-572z" />
<glyph unicode="&#xd1;" horiz-adv-x="1464" d="M162 0v1475h207l790 -1272v1272h146v-1475h-199l-797 1282v-1282h-147zM469 1616v133q88 63 172 63q41 0 75 -11.5t52.5 -25t47.5 -25t61 -11.5q39 0 75 17.5t84 55.5v-133q-88 -63 -166 -63q-52 0 -90 18.5t-71.5 37t-73.5 18.5q-73 0 -166 -74z" />
<glyph unicode="&#xd2;" horiz-adv-x="1562" d="M100 737q0 181 53.5 328.5t146.5 242.5t216.5 146t265.5 51q143 0 266.5 -50t216.5 -145t146 -242t53 -331q0 -181 -52.5 -327.5t-145 -242.5t-216.5 -147t-268 -51q-148 0 -272.5 52t-215.5 148t-142.5 242t-51.5 326zM264 737q0 -154 39.5 -276t109.5 -199.5 t163.5 -118.5t205.5 -41q111 0 204.5 40t163.5 117.5t109 200t39 277.5q0 302 -142.5 468.5t-373.5 166.5q-113 0 -208 -41.5t-164 -120t-107.5 -200t-38.5 -273.5zM500 1853h200l211 -280h-137z" />
<glyph unicode="&#xd3;" horiz-adv-x="1562" d="M100 737q0 181 53.5 328.5t146.5 242.5t216.5 146t265.5 51q143 0 266.5 -50t216.5 -145t146 -242t53 -331q0 -181 -52.5 -327.5t-145 -242.5t-216.5 -147t-268 -51q-148 0 -272.5 52t-215.5 148t-142.5 242t-51.5 326zM264 737q0 -154 39.5 -276t109.5 -199.5 t163.5 -118.5t205.5 -41q111 0 204.5 40t163.5 117.5t109 200t39 277.5q0 302 -142.5 468.5t-373.5 166.5q-113 0 -208 -41.5t-164 -120t-107.5 -200t-38.5 -273.5zM649 1573l209 280h203l-275 -280h-137z" />
<glyph unicode="&#xd4;" horiz-adv-x="1562" d="M100 737q0 181 53.5 328.5t146.5 242.5t216.5 146t265.5 51q143 0 266.5 -50t216.5 -145t146 -242t53 -331q0 -181 -52.5 -327.5t-145 -242.5t-216.5 -147t-268 -51q-148 0 -272.5 52t-215.5 148t-142.5 242t-51.5 326zM264 737q0 -154 39.5 -276t109.5 -199.5 t163.5 -118.5t205.5 -41q111 0 204.5 40t163.5 117.5t109 200t39 277.5q0 302 -142.5 468.5t-373.5 166.5q-113 0 -208 -41.5t-164 -120t-107.5 -200t-38.5 -273.5zM455 1573l231 280h174l230 -280h-152l-166 190l-166 -190h-151z" />
<glyph unicode="&#xd5;" horiz-adv-x="1562" d="M100 737q0 181 53.5 328.5t146.5 242.5t216.5 146t265.5 51q143 0 266.5 -50t216.5 -145t146 -242t53 -331q0 -181 -52.5 -327.5t-145 -242.5t-216.5 -147t-268 -51q-148 0 -272.5 52t-215.5 148t-142.5 242t-51.5 326zM264 737q0 -154 39.5 -276t109.5 -199.5 t163.5 -118.5t205.5 -41q111 0 204.5 40t163.5 117.5t109 200t39 277.5q0 302 -142.5 468.5t-373.5 166.5q-113 0 -208 -41.5t-164 -120t-107.5 -200t-38.5 -273.5zM494 1616v133q88 63 172 63q41 0 74.5 -11.5t52.5 -25t47.5 -25t60.5 -11.5q68 0 160 73v-133 q-88 -63 -166 -63q-41 0 -75 11.5t-52.5 25.5t-47.5 25.5t-61 11.5q-72 0 -165 -74z" />
<glyph unicode="&#xd6;" horiz-adv-x="1562" d="M100 737q0 181 53.5 328.5t146.5 242.5t216.5 146t265.5 51q143 0 266.5 -50t216.5 -145t146 -242t53 -331q0 -181 -52.5 -327.5t-145 -242.5t-216.5 -147t-268 -51q-148 0 -272.5 52t-215.5 148t-142.5 242t-51.5 326zM264 737q0 -154 39.5 -276t109.5 -199.5 t163.5 -118.5t205.5 -41q111 0 204.5 40t163.5 117.5t109 200t39 277.5q0 302 -142.5 468.5t-373.5 166.5q-113 0 -208 -41.5t-164 -120t-107.5 -200t-38.5 -273.5zM463 1649v174h170v-174h-170zM903 1649v174h170v-174h-170z" />
<glyph unicode="&#xd7;" d="M266 410l250 249l-250 250l96 97l250 -250l254 252l97 -97l-252 -252l252 -251l-97 -97l-254 252l-250 -250z" />
<glyph unicode="&#xd8;" horiz-adv-x="1562" d="M100 737q0 156 38.5 285t103.5 217t153 149t185.5 89t201.5 28q101 0 203 -30l76 204h141l-92 -252q162 -87 258 -260.5t96 -429.5q0 -157 -38.5 -286.5t-104 -217.5t-153.5 -148.5t-185 -88t-201 -27.5q-98 0 -200 29l-78 -223h-144l97 270q-164 85 -260.5 258 t-96.5 434zM264 737q0 -203 65.5 -344.5t182.5 -216.5l426 1172q-70 24 -156 24q-113 0 -208 -41.5t-164 -120t-107.5 -200t-38.5 -273.5zM625 127q77 -25 157 -25q111 0 204.5 40t163.5 117.5t109 200t39 277.5q0 200 -64 342t-181 217z" />
<glyph unicode="&#xd9;" horiz-adv-x="1441" d="M152 489v986h159v-998q0 -166 112.5 -268.5t299.5 -102.5q188 0 301 103t113 268v998h155v-986q0 -232 -155 -376t-414 -144q-263 0 -417 144.5t-154 375.5zM463 1853h201l210 -280h-137z" />
<glyph unicode="&#xda;" horiz-adv-x="1441" d="M152 489v986h159v-998q0 -166 112.5 -268.5t299.5 -102.5q188 0 301 103t113 268v998h155v-986q0 -232 -155 -376t-414 -144q-263 0 -417 144.5t-154 375.5zM580 1573l208 280h203l-274 -280h-137z" />
<glyph unicode="&#xdb;" horiz-adv-x="1441" d="M152 489v986h159v-998q0 -166 112.5 -268.5t299.5 -102.5q188 0 301 103t113 268v998h155v-986q0 -232 -155 -376t-414 -144q-263 0 -417 144.5t-154 375.5zM408 1573l231 280h174l229 -280h-151l-166 190l-166 -190h-151z" />
<glyph unicode="&#xdc;" horiz-adv-x="1441" d="M152 489v986h159v-998q0 -166 112.5 -268.5t299.5 -102.5q188 0 301 103t113 268v998h155v-986q0 -232 -155 -376t-414 -144q-263 0 -417 144.5t-154 375.5zM414 1649v174h170v-174h-170zM854 1649v174h170v-174h-170z" />
<glyph unicode="&#xdd;" horiz-adv-x="1282" d="M8 1475h176l457 -752l469 752h164l-553 -893v-582h-160v584zM539 1573l209 280h202l-274 -280h-137z" />
<glyph unicode="&#xde;" horiz-adv-x="1267" d="M162 0v1475h160v-250h321q257 0 406 -126t149 -356q0 -225 -152.5 -349t-404.5 -124h-319v-270h-160zM322 403h323q186 0 285.5 89.5t99.5 250.5q0 167 -97.5 258t-285.5 91h-325v-689z" />
<glyph unicode="&#xdf;" horiz-adv-x="1191" d="M152 0v1079q0 90 22 165t67.5 134.5t122.5 93t179 33.5t186.5 -31.5t139.5 -102.5t55 -171q0 -59 -21.5 -107.5t-52 -80.5t-60.5 -59.5t-51.5 -59t-21.5 -64.5q0 -43 32.5 -78.5t122.5 -80.5q147 -71 210 -155t63 -200q0 -139 -106.5 -242.5t-280.5 -103.5 q-153 0 -245 68.5t-114 191.5h156q12 -64 65.5 -97.5t139.5 -33.5q102 0 164.5 56.5t62.5 152.5q0 86 -41.5 141.5t-148.5 110.5q-131 66 -177.5 122.5t-46.5 149.5q0 45 20.5 83.5t49.5 67.5l58.5 58.5t50 68t20.5 83.5q0 84 -63 134t-166 50q-109 0 -174.5 -71t-65.5 -209 v-1096h-151z" />
<glyph unicode="&#xe0;" horiz-adv-x="1103" d="M90 272q0 144 95 228.5t311 120.5l317 53v74q0 106 -71.5 166.5t-198.5 60.5q-119 0 -188.5 -53t-80.5 -144h-159q14 144 131 231t303 87q192 0 304 -97.5t112 -261.5v-737h-125l-19 162q-56 -86 -149 -139.5t-219 -53.5q-165 0 -264 83t-99 220zM244 1505h200l211 -280 h-137zM250 287q0 -91 63.5 -140t175.5 -49q125 0 224.5 83.5t99.5 203.5v168l-276 -47q-161 -28 -224 -80t-63 -139z" />
<glyph unicode="&#xe1;" horiz-adv-x="1103" d="M90 272q0 144 95 228.5t311 120.5l317 53v74q0 106 -71.5 166.5t-198.5 60.5q-119 0 -188.5 -53t-80.5 -144h-159q14 144 131 231t303 87q192 0 304 -97.5t112 -261.5v-737h-125l-19 162q-56 -86 -149 -139.5t-219 -53.5q-165 0 -264 83t-99 220zM250 287 q0 -91 63.5 -140t175.5 -49q125 0 224.5 83.5t99.5 203.5v168l-276 -47q-161 -28 -224 -80t-63 -139zM461 1225l209 280h202l-274 -280h-137z" />
<glyph unicode="&#xe2;" horiz-adv-x="1103" d="M90 272q0 144 95 228.5t311 120.5l317 53v74q0 106 -71.5 166.5t-198.5 60.5q-119 0 -188.5 -53t-80.5 -144h-159q14 144 131 231t303 87q192 0 304 -97.5t112 -261.5v-737h-125l-19 162q-56 -86 -149 -139.5t-219 -53.5q-165 0 -264 83t-99 220zM233 1225l232 280h174 l229 -280h-151l-166 190l-166 -190h-152zM250 287q0 -91 63.5 -140t175.5 -49q125 0 224.5 83.5t99.5 203.5v168l-276 -47q-161 -28 -224 -80t-63 -139z" />
<glyph unicode="&#xe3;" horiz-adv-x="1103" d="M90 272q0 144 95 228.5t311 120.5l317 53v74q0 106 -71.5 166.5t-198.5 60.5q-119 0 -188.5 -53t-80.5 -144h-159q14 144 131 231t303 87q192 0 304 -97.5t112 -261.5v-737h-125l-19 162q-56 -86 -149 -139.5t-219 -53.5q-165 0 -264 83t-99 220zM250 287 q0 -91 63.5 -140t175.5 -49q125 0 224.5 83.5t99.5 203.5v168l-276 -47q-161 -28 -224 -80t-63 -139zM266 1268v133q88 63 172 63q41 0 75 -11.5t52.5 -25t47.5 -25t61 -11.5q68 0 160 73v-133q-88 -63 -166 -63q-41 0 -75 11.5t-52.5 25t-47.5 25t-61 11.5q-74 0 -166 -73z " />
<glyph unicode="&#xe4;" horiz-adv-x="1103" d="M90 272q0 144 95 228.5t311 120.5l317 53v74q0 106 -71.5 166.5t-198.5 60.5q-119 0 -188.5 -53t-80.5 -144h-159q14 144 131 231t303 87q192 0 304 -97.5t112 -261.5v-737h-125l-19 162q-56 -86 -149 -139.5t-219 -53.5q-165 0 -264 83t-99 220zM242 1300v175h170v-175 h-170zM250 287q0 -91 63.5 -140t175.5 -49q125 0 224.5 83.5t99.5 203.5v168l-276 -47q-161 -28 -224 -80t-63 -139zM682 1300v175h170v-175h-170z" />
<glyph unicode="&#xe5;" horiz-adv-x="1103" d="M90 272q0 144 95 228.5t311 120.5l317 53v74q0 106 -71.5 166.5t-198.5 60.5q-119 0 -188.5 -53t-80.5 -144h-159q14 144 131 231t303 87q192 0 304 -97.5t112 -261.5v-737h-125l-19 162q-56 -86 -149 -139.5t-219 -53.5q-165 0 -264 83t-99 220zM250 287 q0 -91 63.5 -140t175.5 -49q125 0 224.5 83.5t99.5 203.5v168l-276 -47q-161 -28 -224 -80t-63 -139zM293 1434q0 105 70 173t186 68q117 0 187.5 -68t70.5 -173t-71 -173.5t-187 -68.5t-186 68.5t-70 173.5zM406 1434q0 -68 39.5 -108t103.5 -40t104.5 40t40.5 108 t-40 107.5t-105 39.5q-64 0 -103.5 -39.5t-39.5 -107.5z" />
<glyph unicode="&#xe6;" horiz-adv-x="1900" d="M90 272q0 279 399 326l322 39v111q0 105 -70 166t-198 61q-107 0 -183 -50t-86 -147h-159q17 147 134 232.5t300 85.5q135 0 229 -52t137 -149q70 103 176 152t218 49q104 0 190.5 -33t154 -99.5t105.5 -179.5t39 -262h-831q1 -94 23 -169t57 -121.5t82.5 -77.5t96 -43.5 t101.5 -12.5q105 0 185 55t108 148h164q-40 -152 -164.5 -242t-296.5 -90q-137 0 -253.5 61t-184.5 193q-50 -110 -157.5 -182t-260.5 -72q-169 0 -273 77.5t-104 225.5zM250 281q0 -85 60.5 -134t178.5 -49t220 78t102 193v147l-246 -29q-177 -21 -246 -67.5t-69 -138.5z M973 645h669q-13 157 -102.5 242.5t-228.5 85.5q-127 0 -220 -84t-118 -244z" />
<glyph unicode="&#xe7;" horiz-adv-x="1120" d="M90 524q0 269 135 420.5t353 151.5q178 0 299 -90.5t147 -245.5h-168q-20 98 -93 152.5t-181 54.5q-150 0 -241 -114t-91 -335q0 -205 93.5 -312.5t238.5 -107.5q113 0 190 62t94 168h164q-22 -145 -130 -243.5t-271 -113.5v-65q98 -15 149 -65t51 -130q0 -92 -70 -152.5 t-177 -60.5q-100 0 -169.5 51t-82.5 142h121q6 -40 42 -66t91 -26q56 0 90.5 30t34.5 80q0 56 -48.5 85.5t-158.5 29.5l12 149q-191 23 -307.5 165t-116.5 386z" />
<glyph unicode="&#xe8;" horiz-adv-x="1177" d="M90 532q0 269 138.5 416.5t359.5 147.5q108 0 196 -35.5t154 -106.5t102.5 -187t36.5 -269h-831q9 -198 108 -299t254 -101q107 0 186 55t105 146h164q-41 -150 -162.5 -240t-298.5 -90q-229 0 -370.5 147t-141.5 416zM250 621h672q-10 172 -100 262t-232 90 q-136 0 -229 -91t-111 -261zM274 1505h201l211 -280h-137z" />
<glyph unicode="&#xe9;" horiz-adv-x="1177" d="M90 532q0 269 138.5 416.5t359.5 147.5q108 0 196 -35.5t154 -106.5t102.5 -187t36.5 -269h-831q9 -198 108 -299t254 -101q107 0 186 55t105 146h164q-41 -150 -162.5 -240t-298.5 -90q-229 0 -370.5 147t-141.5 416zM250 621h672q-10 172 -100 262t-232 90 q-136 0 -229 -91t-111 -261zM494 1225l208 280h203l-274 -280h-137z" />
<glyph unicode="&#xea;" horiz-adv-x="1177" d="M90 532q0 269 138.5 416.5t359.5 147.5q108 0 196 -35.5t154 -106.5t102.5 -187t36.5 -269h-831q9 -198 108 -299t254 -101q107 0 186 55t105 146h164q-41 -150 -162.5 -240t-298.5 -90q-229 0 -370.5 147t-141.5 416zM250 621h672q-10 172 -100 262t-232 90 q-136 0 -229 -91t-111 -261zM266 1225l232 280h174l229 -280h-151l-166 190l-166 -190h-152z" />
<glyph unicode="&#xeb;" horiz-adv-x="1177" d="M90 532q0 269 138.5 416.5t359.5 147.5q108 0 196 -35.5t154 -106.5t102.5 -187t36.5 -269h-831q9 -198 108 -299t254 -101q107 0 186 55t105 146h164q-41 -150 -162.5 -240t-298.5 -90q-229 0 -370.5 147t-141.5 416zM250 621h672q-10 172 -100 262t-232 90 q-136 0 -229 -91t-111 -261zM276 1300v175h170v-175h-170zM717 1300v175h170v-175h-170z" />
<glyph unicode="&#xec;" horiz-adv-x="444" d="M-61 1505h200l211 -280h-137zM145 0v1065h154v-1065h-154z" />
<glyph unicode="&#xed;" horiz-adv-x="444" d="M102 1225l209 280h203l-274 -280h-138zM145 0v1065h154v-1065h-154z" />
<glyph unicode="&#xee;" horiz-adv-x="444" d="M-94 1225l231 280h174l230 -280h-152l-166 190l-166 -190h-151zM145 0v1065h154v-1065h-154z" />
<glyph unicode="&#xef;" horiz-adv-x="444" d="M-82 1300v175h170v-175h-170zM145 0v1065h154v-1065h-154zM358 1300v175h170v-175h-170z" />
<glyph unicode="&#xf0;" horiz-adv-x="1157" d="M90 487q0 219 125 358.5t324 139.5q131 0 233 -64.5t139 -160.5q-25 312 -227 467l-82 -88h-168l146 153q-113 58 -281 88l8 140q226 -50 367 -129l80 84h168l-146 -152q283 -221 283 -674q0 -322 -126 -501t-368 -179q-213 0 -344 140.5t-131 377.5zM246 477 q0 -184 89 -281.5t230 -97.5q155 0 247.5 106.5t92.5 278.5q0 162 -94 267.5t-252 105.5q-141 0 -227 -96.5t-86 -282.5z" />
<glyph unicode="&#xf1;" horiz-adv-x="1146" d="M152 0v1065h124l19 -160q54 92 144 141.5t194 49.5q173 0 273 -101.5t100 -283.5v-711h-152v707q0 127 -67 193.5t-189 66.5q-119 0 -207 -85.5t-88 -222.5v-659h-151zM311 1268v133q88 63 172 63q41 0 75 -11.5t52.5 -25t47.5 -25t61 -11.5q68 0 160 73v-133 q-88 -63 -166 -63q-41 0 -75 11.5t-52.5 25t-47.5 25t-61 11.5q-74 0 -166 -73z" />
<glyph unicode="&#xf2;" horiz-adv-x="1193" d="M90 532q0 138 39.5 247t109 177.5t160.5 104t199 35.5q109 0 200.5 -35.5t160 -104.5t107 -177.5t38.5 -246.5q0 -137 -38 -245t-106 -177t-160 -105t-202 -36q-225 0 -366.5 147.5t-141.5 415.5zM248 532q0 -210 97.5 -324t254.5 -114t251.5 113.5t94.5 324.5 q0 214 -95.5 326.5t-252.5 112.5t-253.5 -114t-96.5 -325zM295 1505h201l211 -280h-138z" />
<glyph unicode="&#xf3;" horiz-adv-x="1193" d="M90 532q0 138 39.5 247t109 177.5t160.5 104t199 35.5q109 0 200.5 -35.5t160 -104.5t107 -177.5t38.5 -246.5q0 -137 -38 -245t-106 -177t-160 -105t-202 -36q-225 0 -366.5 147.5t-141.5 415.5zM248 532q0 -210 97.5 -324t254.5 -114t251.5 113.5t94.5 324.5 q0 214 -95.5 326.5t-252.5 112.5t-253.5 -114t-96.5 -325zM494 1225l208 280h203l-274 -280h-137z" />
<glyph unicode="&#xf4;" horiz-adv-x="1193" d="M90 532q0 138 39.5 247t109 177.5t160.5 104t199 35.5q109 0 200.5 -35.5t160 -104.5t107 -177.5t38.5 -246.5q0 -137 -38 -245t-106 -177t-160 -105t-202 -36q-225 0 -366.5 147.5t-141.5 415.5zM248 532q0 -210 97.5 -324t254.5 -114t251.5 113.5t94.5 324.5 q0 214 -95.5 326.5t-252.5 112.5t-253.5 -114t-96.5 -325zM272 1225l232 280h174l229 -280h-151l-166 190l-166 -190h-152z" />
<glyph unicode="&#xf5;" horiz-adv-x="1193" d="M90 532q0 138 39.5 247t109 177.5t160.5 104t199 35.5q109 0 200.5 -35.5t160 -104.5t107 -177.5t38.5 -246.5q0 -137 -38 -245t-106 -177t-160 -105t-202 -36q-225 0 -366.5 147.5t-141.5 415.5zM248 532q0 -210 97.5 -324t254.5 -114t251.5 113.5t94.5 324.5 q0 214 -95.5 326.5t-252.5 112.5t-253.5 -114t-96.5 -325zM309 1268v133q88 63 172 63q41 0 75 -11.5t52.5 -25t47.5 -25t61 -11.5q68 0 160 73v-133q-88 -63 -166 -63q-41 0 -75 11.5t-52.5 25t-47.5 25t-61 11.5q-74 0 -166 -73z" />
<glyph unicode="&#xf6;" horiz-adv-x="1193" d="M90 532q0 138 39.5 247t109 177.5t160.5 104t199 35.5q109 0 200.5 -35.5t160 -104.5t107 -177.5t38.5 -246.5q0 -137 -38 -245t-106 -177t-160 -105t-202 -36q-225 0 -366.5 147.5t-141.5 415.5zM248 532q0 -210 97.5 -324t254.5 -114t251.5 113.5t94.5 324.5 q0 214 -95.5 326.5t-252.5 112.5t-253.5 -114t-96.5 -325zM291 1300v175h170v-175h-170zM731 1300v175h170v-175h-170z" />
<glyph unicode="&#xf7;" d="M193 592v137h843v-137h-843zM520 131v199h189v-199h-189zM520 989v199h189v-199h-189z" />
<glyph unicode="&#xf8;" horiz-adv-x="1193" d="M90 532q0 138 39.5 247t109 177.5t160.5 104t199 35.5q92 0 172 -27l102 221h142l-125 -276q102 -68 158.5 -190t56.5 -292q0 -137 -38 -245t-106 -177t-160 -105t-202 -36q-95 0 -172 29l-100 -223h-148l127 276q-102 71 -158.5 192.5t-56.5 288.5zM248 532 q0 -235 125 -350l346 766q-53 23 -121 23q-157 0 -253.5 -114t-96.5 -325zM477 115q59 -21 123 -21q157 0 251.5 113.5t94.5 324.5q0 236 -123 353z" />
<glyph unicode="&#xf9;" horiz-adv-x="1136" d="M141 356v709h152v-709q0 -128 66 -193t184 -65q134 0 212.5 91t78.5 225v651h153v-1065h-127l-16 147q-55 -88 -144 -133t-192 -45q-166 0 -266.5 99t-100.5 288zM274 1505h201l211 -280h-137z" />
<glyph unicode="&#xfa;" horiz-adv-x="1136" d="M141 356v709h152v-709q0 -128 66 -193t184 -65q134 0 212.5 91t78.5 225v651h153v-1065h-127l-16 147q-55 -88 -144 -133t-192 -45q-166 0 -266.5 99t-100.5 288zM451 1225l208 280h203l-274 -280h-137z" />
<glyph unicode="&#xfb;" horiz-adv-x="1136" d="M141 356v709h152v-709q0 -128 66 -193t184 -65q134 0 212.5 91t78.5 225v651h153v-1065h-127l-16 147q-55 -88 -144 -133t-192 -45q-166 0 -266.5 99t-100.5 288zM248 1225l231 280h174l230 -280h-152l-166 190l-166 -190h-151z" />
<glyph unicode="&#xfc;" horiz-adv-x="1136" d="M141 356v709h152v-709q0 -128 66 -193t184 -65q134 0 212.5 91t78.5 225v651h153v-1065h-127l-16 147q-55 -88 -144 -133t-192 -45q-166 0 -266.5 99t-100.5 288zM258 1300v175h170v-175h-170zM698 1300v175h170v-175h-170z" />
<glyph unicode="&#xfd;" horiz-adv-x="1034" d="M29 1065h164l339 -944l322 944h154l-375 -1077q-31 -89 -52.5 -142t-50.5 -106t-58.5 -79.5t-70 -43t-92.5 -16.5q-49 0 -119 18v125q62 -16 105 -16q65 0 100 54t92 218h-53zM418 1225l209 280h202l-274 -280h-137z" />
<glyph unicode="&#xfe;" horiz-adv-x="1216" d="M152 -369v1844h151v-584q55 94 148.5 149.5t218.5 55.5q72 0 137.5 -19t124.5 -61.5t102 -105t68.5 -157t25.5 -210.5q0 -140 -36.5 -250.5t-101 -180.5t-149.5 -106.5t-184 -36.5q-120 0 -209.5 52t-142.5 143v-533h-153zM293 539q0 -195 89 -318t253 -123 q68 0 125.5 24t105.5 75t75.5 140.5t27.5 209.5q0 113 -28 197.5t-76.5 131.5t-106 69t-123.5 22q-151 0 -246.5 -112.5t-95.5 -315.5z" />
<glyph unicode="&#xff;" horiz-adv-x="1034" d="M29 1065h164l339 -944l322 944h154l-375 -1077q-31 -89 -52.5 -142t-50.5 -106t-58.5 -79.5t-70 -43t-92.5 -16.5q-49 0 -119 18v125q62 -16 105 -16q65 0 100 54t92 218h-53zM215 1300v175h170v-175h-170zM655 1300v175h170v-175h-170z" />
<glyph unicode="&#x152;" horiz-adv-x="1982" d="M100 739q0 156 38.5 285t104 217t154 148.5t186 88t201.5 27.5q112 0 236 -30h852v-138h-692v-520h632v-135h-632v-545h692v-137h-854q-118 -27 -236 -27q-107 0 -204.5 27t-185.5 87t-152.5 148t-102 217t-37.5 287zM264 739q0 -305 142.5 -469t375.5 -164q136 0 236 39 v1184q-100 43 -234 43q-234 0 -377 -166t-143 -467z" />
<glyph unicode="&#x153;" horiz-adv-x="2029" d="M90 532q0 121 31 219.5t81 161t117.5 105t136.5 60.5t142 18q131 0 246.5 -64.5t181.5 -191.5q66 125 178.5 190.5t233.5 65.5q83 0 154.5 -20.5t134 -66.5t106.5 -114.5t69.5 -169.5t26.5 -227h-833q5 -108 39.5 -189t88 -125t112.5 -65t122 -21q104 0 183.5 55.5 t107.5 147.5h164q-40 -152 -164.5 -242t-296.5 -90q-130 0 -245 65t-181 191q-66 -126 -181.5 -191t-244.5 -65q-74 0 -144 18t-137.5 60.5t-117.5 105.5t-80.5 160.5t-30.5 218.5zM248 532q0 -109 28.5 -194t78 -137.5t112 -79.5t133.5 -27t132 26.5t109.5 78.5t76.5 137.5 t28 195.5t-28 196t-77 138t-110.5 78.5t-132.5 26.5q-149 0 -249.5 -113t-100.5 -326zM1100 621h672q-10 170 -100 261t-232 91q-130 0 -225.5 -90.5t-114.5 -261.5z" />
<glyph unicode="&#x178;" horiz-adv-x="1282" d="M8 1475h176l457 -752l469 752h164l-553 -893v-582h-160v584zM336 1649v174h170v-174h-170zM776 1649v174h170v-174h-170z" />
<glyph unicode="&#x2c6;" horiz-adv-x="753" d="M59 1225l232 280h174l229 -280h-151l-166 190l-166 -190h-152z" />
<glyph unicode="&#x2dc;" horiz-adv-x="690" d="M61 1268v133q88 63 172 63q41 0 75 -11.5t52.5 -25t47.5 -25t61 -11.5q68 0 160 73v-133q-88 -63 -166 -63q-41 0 -75 11.5t-52.5 25t-47.5 25t-61 11.5q-74 0 -166 -73z" />
<glyph unicode="&#x2000;" horiz-adv-x="944" />
<glyph unicode="&#x2001;" horiz-adv-x="1888" />
<glyph unicode="&#x2002;" horiz-adv-x="944" />
<glyph unicode="&#x2003;" horiz-adv-x="1888" />
<glyph unicode="&#x2004;" horiz-adv-x="629" />
<glyph unicode="&#x2005;" horiz-adv-x="472" />
<glyph unicode="&#x2006;" horiz-adv-x="314" />
<glyph unicode="&#x2007;" horiz-adv-x="314" />
<glyph unicode="&#x2008;" horiz-adv-x="236" />
<glyph unicode="&#x2009;" horiz-adv-x="377" />
<glyph unicode="&#x200a;" horiz-adv-x="104" />
<glyph unicode="&#x2010;" horiz-adv-x="1105" d="M193 592v137h720v-137h-720z" />
<glyph unicode="&#x2011;" horiz-adv-x="1105" d="M193 592v137h720v-137h-720z" />
<glyph unicode="&#x2012;" horiz-adv-x="1105" d="M193 592v137h720v-137h-720z" />
<glyph unicode="&#x2013;" horiz-adv-x="897" d="M39 592v137h819v-137h-819z" />
<glyph unicode="&#x2014;" horiz-adv-x="1306" d="M39 592v137h1229v-137h-1229z" />
<glyph unicode="&#x2018;" horiz-adv-x="579" d="M190 979v178q0 143 67.5 220t172.5 98v-86q-60 -18 -90.5 -67.5t-30.5 -143.5h76v-199h-195z" />
<glyph unicode="&#x2019;" horiz-adv-x="579" d="M147 979v88q61 16 92 65t31 144h-75v199h194v-179q0 -143 -67.5 -219.5t-174.5 -97.5z" />
<glyph unicode="&#x201a;" horiz-adv-x="579" d="M147 -209q62 18 92.5 66.5t30.5 142.5h-75v199h194v-176q0 -144 -67.5 -221.5t-174.5 -98.5v88z" />
<glyph unicode="&#x201c;" horiz-adv-x="897" d="M193 979v178q0 143 67.5 220t173.5 98v-86q-61 -18 -92 -67t-31 -144h76v-199h-194zM510 979v178q0 143 67 220t173 98v-86q-61 -18 -92 -67t-31 -144h75v-199h-192z" />
<glyph unicode="&#x201d;" horiz-adv-x="894" d="M147 979v88q61 16 92 65t31 144h-75v199h194v-179q0 -143 -67.5 -219.5t-174.5 -97.5zM465 979v88q61 16 91 65t30 144h-74v199h193v-179q0 -143 -67.5 -219.5t-172.5 -97.5z" />
<glyph unicode="&#x201e;" horiz-adv-x="894" d="M147 -209q62 18 92.5 66.5t30.5 142.5h-75v199h194v-176q0 -144 -67.5 -221.5t-174.5 -98.5v88zM465 -209q61 18 91 66t30 143h-74v199h193v-176q0 -144 -67.5 -221.5t-172.5 -98.5v88z" />
<glyph unicode="&#x2022;" horiz-adv-x="610" d="M150 502v301h311v-301h-311z" />
<glyph unicode="&#x2026;" horiz-adv-x="1611" d="M203 0v199h186v-199h-186zM713 0v199h186v-199h-186zM1223 0v199h186v-199h-186z" />
<glyph unicode="&#x202f;" horiz-adv-x="377" />
<glyph unicode="&#x2039;" horiz-adv-x="612" d="M127 645l250 420h110l-180 -426l160 -455h-111z" />
<glyph unicode="&#x203a;" horiz-adv-x="612" d="M127 1065h109l251 -420l-231 -461h-109l160 455z" />
<glyph unicode="&#x205f;" horiz-adv-x="472" />
<glyph unicode="&#x20ac;" d="M25 502l32 127h105q-4 27 -4 88q0 57 4 84h-137l32 127h117q40 270 184 403t357 133q203 0 330 -104.5t157 -276.5h-164q-27 117 -109.5 181.5t-215.5 64.5q-319 0 -375 -401h549l-31 -127h-532q0 -13 -1 -41t-1 -43q0 -34 4 -88h479l-31 -127h-434q31 -202 129.5 -299 t249.5 -97q128 0 209.5 63.5t109.5 184.5h166q-38 -174 -164.5 -279.5t-322.5 -105.5q-215 0 -359 133.5t-182 399.5h-151z" />
<glyph unicode="&#x2122;" horiz-adv-x="1705" d="M59 1366v109h877l213 -658l205 658h190v-811h-119v684l-217 -684h-125l-227 684v-684h-115v702h-288v-702h-123v702h-271z" />
<glyph unicode="&#x25fc;" horiz-adv-x="1064" d="M0 0v1065h1065v-1065h-1065z" />
<glyph unicode="&#xfb01;" horiz-adv-x="1099" d="M49 934v131h158v137q0 138 82 217.5t246 79.5q111 0 251 -37v-131q-136 37 -233 37q-100 0 -147.5 -37t-47.5 -119v-147h592v-1065h-153v934h-439v-934h-151v934h-158z" />
<glyph unicode="&#xfb02;" horiz-adv-x="1120" d="M49 934v131h158v117q0 147 81.5 232t260.5 85q117 0 270 -37l150 13v-1475h-152v1331q-144 37 -248 37q-114 0 -162.5 -42t-48.5 -136v-125h224v-131h-224v-934h-151v934h-158z" />
<glyph unicode="&#xfb03;" horiz-adv-x="1714" d="M49 934v131h158v92q0 149 81.5 239.5t260.5 90.5q161 0 344 -70q85 88 254 88q127 0 254 -37v-131q-136 37 -234 37q-101 0 -148.5 -36.5t-47.5 -118.5v-154h592v-1065h-152v934h-440v-934h-152v934h-461v-934h-151v934h-158zM358 1065h461v145q0 56 15 103 q-132 51 -269 51q-111 0 -159 -50t-48 -149v-100z" />
<glyph unicode="&#xfb04;" horiz-adv-x="1734" d="M49 934v131h158v92q0 149 81.5 239.5t260.5 90.5q169 0 348 -72q87 90 266 90q131 0 271 -37l149 13v-1481h-151v1337q-133 37 -250 37q-113 0 -161 -42t-48 -136v-131h221v-131h-221v-934h-154v934h-461v-934h-151v934h-158zM358 1065h461v123q0 70 21 125 q-130 51 -275 51q-111 0 -159 -50t-48 -149v-100z" />
</font>
</defs>
</svg>
