<?xml version="1.0" encoding="UTF-8"?>
<svg width="20px" height="20px" viewBox="0 0 20 20" version="1.1" xmlns="http://www.w3.org/2000/svg" xmlns:xlink="http://www.w3.org/1999/xlink">
    <!-- Generator: Sketch 52.3 (67297) - http://www.bohemiancoding.com/sketch -->
    <title>play-circle_20</title>
    <desc>Created with Sketch.</desc>
    <g id="Page-1" stroke="none" stroke-width="1" fill="none" fill-rule="evenodd" opacity="0.8">
        <g id="Web2.0-dashboard-search-2.0-Copy" transform="translate(-935.000000, -347.000000)" fill="#000000">
            <g id="dropdown" transform="translate(304.000000, 96.000000)">
                <g id="item" transform="translate(0.000000, 226.000000)">
                    <g id="play-circle_20" transform="translate(631.000000, 25.000000)">
                        <path d="M9.9998,-0.0002 C15.5228,-0.0002 19.9998,4.4778 19.9998,9.9998 C19.9998,15.5228 15.5228,19.9998 9.9998,19.9998 C4.4778,19.9998 -0.0002,15.5228 -0.0002,9.9998 C-0.0002,4.4778 4.4778,-0.0002 9.9998,-0.0002 Z M9.9998,18.9998 C14.9628,18.9998 18.9998,14.9628 18.9998,9.9998 C18.9998,5.0368 14.9628,0.9998 9.9998,0.9998 C5.0368,0.9998 0.9998,5.0368 0.9998,9.9998 C0.9998,14.9628 5.0368,18.9998 9.9998,18.9998 Z M13.7995,8.8975 C14.2295,9.1105 14.4995,9.5345 14.4995,10.0045 C14.4995,10.4735 14.2295,10.8985 13.7935,11.1145 L8.4145,13.8605 C8.2195,13.9565 8.0115,14.0045 7.8045,14.0045 C7.5575,14.0045 7.3125,13.9365 7.0945,13.8015 C6.7225,13.5705 6.4995,13.1785 6.4995,12.7535 L6.4995,7.2545 C6.4995,6.8295 6.7225,6.4385 7.0945,6.2065 C7.4945,5.9575 7.9885,5.9365 8.4085,6.1455 L13.7995,8.8975 Z M13.3445,10.2205 C13.4805,10.1535 13.4995,10.0565 13.4995,10.0045 C13.4995,9.9515 13.4805,9.8555 13.3505,9.7905 L7.9595,7.0385 C7.9125,7.0155 7.8605,7.0035 7.8075,7.0035 C7.7435,7.0035 7.6785,7.0215 7.6215,7.0565 C7.5755,7.0845 7.4995,7.1485 7.4995,7.2545 L7.4995,12.7535 C7.4995,12.8605 7.5755,12.9235 7.6215,12.9515 C7.7255,13.0165 7.8545,13.0225 7.9655,12.9665 L13.3445,10.2205 Z" id="fill"></path>
                    </g>
                </g>
            </g>
        </g>
    </g>
</svg>